<svg width="1219" height="108" viewBox="0 0 1219 108" fill="none" xmlns="http://www.w3.org/2000/svg">
<path d="M81.2 13.9L81.1 14C81.5 12.5333 82.2667 11.4666 83.4 10.8C84.6 10.1333 86.1667 9.96664 88.1 10.3C90.0333 10.6333 91.4 11.2333 92.2 12.1C93.0667 12.9666 93.2667 14.1666 92.8 15.7L74.8 87.4V87.3C74.4667 88.4333 73.7 89.3 72.5 89.9C71.3667 90.5 70.1667 90.8 68.9 90.8C67.4333 90.8 66.0333 90.5666 64.7 90.1C63.4333 89.7 62.6333 88.8333 62.3 87.5L62.4 87.6L50.1 38.8H47.4L35.2 87.5C34.8667 88.6333 34.0333 89.4666 32.7 90C31.3667 90.5333 30 90.8 28.6 90.8C26.8667 90.8 25.4667 90.5333 24.4 90C23.4 89.5333 22.7333 88.6666 22.4 87.4L22.5 87.5L4.49999 15.7C4.16665 14.3666 4.46665 13.2333 5.39999 12.3C6.33332 11.3 7.66665 10.6333 9.39999 10.3C13.1333 9.69997 15.4 10.9333 16.2 14L16.1 13.9L20.6 32C21.2 34.4 21.8 36.8666 22.4 39.4C23 41.8666 23.6667 44.5333 24.4 47.4C25.1333 50.2 25.9333 53.2666 26.8 56.6C27.6667 59.9333 28.6333 63.6666 29.7 67.8L42.5 13.8C42.8333 12.3333 43.6 11.3666 44.8 10.9C46 10.4333 47.3333 10.2 48.8 10.2C50.1333 10.2 51.4333 10.4666 52.7 11C53.9667 11.4666 54.7667 12.4666 55.1 14L68.3 67.5L81.2 13.9Z" stroke="#0080DC" stroke-width="8"/>
<path d="M111.995 74C111.995 75.6 112.495 77.1 113.495 78.5C114.561 79.9 116.328 80.6 118.795 80.6H131.295C133.761 80.6 135.495 80 136.495 78.8C137.561 77.5333 138.095 76.1 138.095 74.5V73.4C138.095 70.2666 139.928 68.7 143.595 68.7C147.261 68.7 149.095 70.2666 149.095 73.4V74.6C149.095 77.4 148.628 79.7 147.695 81.5C146.828 83.3 145.495 84.8666 143.695 86.2C140.161 88.7333 136.628 90 133.095 90H116.295C112.761 90 109.328 88.7333 105.995 86.2C104.395 84.8666 103.161 83.2 102.295 81.2C101.428 79.1333 100.995 76.7666 100.995 74.1V45.6C100.995 40.2 102.661 36.2 105.995 33.6C107.661 32.4 109.361 31.4666 111.095 30.8C112.895 30.0666 114.628 29.7 116.295 29.7H133.095C134.695 29.7 136.461 30.0333 138.395 30.7C140.328 31.3 142.128 32.1333 143.795 33.2C145.395 34.3333 146.661 35.9 147.595 37.9C148.595 39.9 149.095 42.2666 149.095 45V58.5C149.095 60.0333 148.628 61.4 147.695 62.6C146.828 63.8 145.195 64.4 142.795 64.4H121.195C118.795 64.4 117.528 62.8333 117.395 59.7C117.395 56.5666 118.661 55 121.195 55H138.195L138.095 45.7C138.095 44.0333 137.561 42.5333 136.495 41.2C135.495 39.8 133.761 39.1 131.295 39.1H118.795C116.328 39.1 114.561 39.8 113.495 41.2C112.495 42.5333 111.995 44.0333 111.995 45.7V74Z" stroke="#0080DC" stroke-width="8"/>
<path d="M173.234 86.1C173.234 89.2333 171.401 90.8 167.734 90.8C164.001 90.8 162.134 89.2333 162.134 86.1V14.4C162.134 11.2666 164.001 9.69997 167.734 9.69997C171.401 9.69997 173.234 11.2666 173.234 14.4V86.1Z" stroke="#0080DC" stroke-width="8"/>
<path d="M235.13 74.1C235.13 79.5666 233.33 83.6 229.73 86.2C226.196 88.7333 222.663 90 219.13 90H202.33C198.796 90 195.363 88.7333 192.03 86.2C190.43 84.8666 189.196 83.2 188.33 81.2C187.463 79.1333 187.03 76.7666 187.03 74.1V45.6C187.03 40.2 188.696 36.2 192.03 33.6C193.696 32.4 195.396 31.4666 197.13 30.8C198.93 30.0666 200.663 29.7 202.33 29.7H219.13C220.73 29.7 222.496 30.0333 224.43 30.7C226.363 31.3 228.163 32.1333 229.83 33.2C231.43 34.3333 232.696 35.9 233.63 37.9C234.63 39.9 235.13 42.2666 235.13 45V50C235.13 53.2 233.296 54.8 229.63 54.8C225.963 54.8 224.13 53.2 224.13 50V45.7C224.13 44.0333 223.596 42.5333 222.53 41.2C221.53 39.8 219.796 39.1 217.33 39.1H204.83C202.363 39.1 200.596 39.8 199.53 41.2C198.53 42.5333 198.03 44.0333 198.03 45.7V74C198.03 75.6 198.53 77.1 199.53 78.5C200.596 79.9 202.363 80.6 204.83 80.6H217.33C219.796 80.6 221.53 79.9 222.53 78.5C223.596 77.1 224.13 75.6 224.13 74V69.4C224.13 66.2666 225.963 64.7 229.63 64.7C233.296 64.7 235.13 66.2666 235.13 69.4V74.1Z" stroke="#0080DC" stroke-width="8"/>
<path d="M279.674 29.8C281.408 29.8 283.174 30.1666 284.974 30.9C286.841 31.6333 288.641 32.5666 290.374 33.7H290.274C292.008 34.9666 293.341 36.6333 294.274 38.7C295.208 40.7 295.674 43.0333 295.674 45.7V74.1C295.674 79.5666 293.874 83.6 290.274 86.2C286.741 88.7333 283.208 90 279.674 90H263.674C261.941 90 260.174 89.7 258.374 89.1C256.574 88.5 254.808 87.5333 253.074 86.2C249.474 83.6666 247.674 79.6333 247.674 74.1V45.7C247.674 43.0333 248.141 40.7 249.074 38.7C250.008 36.6333 251.341 34.9666 253.074 33.7H252.974C254.641 32.5666 256.408 31.6333 258.274 30.9C260.141 30.1666 261.941 29.8 263.674 29.8H279.674ZM277.874 80.6C280.341 80.6 282.074 79.9 283.074 78.5C284.141 77.1 284.674 75.6 284.674 74V45.8C284.674 44.1333 284.141 42.6333 283.074 41.3C282.074 39.9 280.341 39.2 277.874 39.2H265.474C263.008 39.2 261.241 39.9 260.174 41.3C259.174 42.6333 258.674 44.1333 258.674 45.8V74C258.674 75.6 259.174 77.1 260.174 78.5C261.241 79.9 263.008 80.6 265.474 80.6H277.874Z" stroke="#0080DC" stroke-width="8"/>
<path d="M339.319 46.5C339.319 45.6333 339.185 44.8 338.919 44C338.652 43.1333 338.319 42.3333 337.919 41.6C337.052 40 335.252 39.2 332.519 39.2H326.119C323.385 39.2 321.552 40 320.619 41.6C319.819 43.1333 319.419 44.7666 319.419 46.5V86.1C319.419 89.2333 317.585 90.8 313.919 90.8C310.119 90.8 308.219 89.2333 308.219 86.1V45.6C308.219 40.1333 310.019 36.1333 313.619 33.6C317.285 31.0666 320.852 29.8 324.319 29.8H334.419C335.952 29.8 337.652 30.1 339.519 30.7C341.385 31.3 343.185 32.2333 344.919 33.5C346.585 32.2333 348.319 31.3 350.119 30.7C351.985 30.1 353.752 29.8 355.419 29.8H365.419C368.952 29.8 372.485 31.0666 376.019 33.6C379.685 36.0666 381.519 40.0666 381.519 45.6V86.1C381.519 89.2333 379.652 90.8 375.919 90.8C372.185 90.8 370.319 89.2333 370.319 86.1V46.5C370.319 45.6333 370.219 44.7666 370.019 43.9C369.819 43.0333 369.452 42.2333 368.919 41.5L369.019 41.6C368.485 40.7333 367.819 40.1333 367.019 39.8C366.219 39.4 365.052 39.2 363.519 39.2H357.219C354.419 39.2 352.585 40 351.719 41.6C350.852 43.0666 350.419 44.7 350.419 46.5V86.1C350.419 89.2333 348.585 90.8 344.919 90.8C341.185 90.8 339.319 89.2333 339.319 86.1V46.5Z" stroke="#0080DC" stroke-width="8"/>
<path d="M404.67 74C404.67 75.6 405.17 77.1 406.17 78.5C407.237 79.9 409.004 80.6 411.47 80.6H423.97C426.437 80.6 428.17 80 429.17 78.8C430.237 77.5333 430.77 76.1 430.77 74.5V73.4C430.77 70.2666 432.604 68.7 436.27 68.7C439.937 68.7 441.77 70.2666 441.77 73.4V74.6C441.77 77.4 441.304 79.7 440.37 81.5C439.504 83.3 438.17 84.8666 436.37 86.2C432.837 88.7333 429.304 90 425.77 90H408.97C405.437 90 402.004 88.7333 398.67 86.2C397.07 84.8666 395.837 83.2 394.97 81.2C394.104 79.1333 393.67 76.7666 393.67 74.1V45.6C393.67 40.2 395.337 36.2 398.67 33.6C400.337 32.4 402.037 31.4666 403.77 30.8C405.57 30.0666 407.304 29.7 408.97 29.7H425.77C427.37 29.7 429.137 30.0333 431.07 30.7C433.004 31.3 434.804 32.1333 436.47 33.2C438.07 34.3333 439.337 35.9 440.27 37.9C441.27 39.9 441.77 42.2666 441.77 45V58.5C441.77 60.0333 441.304 61.4 440.37 62.6C439.504 63.8 437.87 64.4 435.47 64.4H413.87C411.47 64.4 410.204 62.8333 410.07 59.7C410.07 56.5666 411.337 55 413.87 55H430.87L430.77 45.7C430.77 44.0333 430.237 42.5333 429.17 41.2C428.17 39.8 426.437 39.1 423.97 39.1H411.47C409.004 39.1 407.237 39.8 406.17 41.2C405.17 42.5333 404.67 44.0333 404.67 45.7V74Z" stroke="#0080DC" stroke-width="8"/>
<path d="M497.591 39.2V75.6C497.591 77.3333 497.957 78.6666 498.691 79.6C499.424 80.5333 500.991 81 503.391 81H505.991C508.591 81 509.824 82.5333 509.691 85.6C509.691 88.7333 508.457 90.3 505.991 90.3H502.691C500.557 90.3 498.557 90.0333 496.691 89.5C494.824 88.9 493.024 88.0666 491.291 87V87.1C488.024 84.9666 486.391 81.1666 486.391 75.7V39.2H482.491C480.091 39.2 478.824 37.6333 478.691 34.5C478.691 31.3666 479.957 29.8 482.491 29.8H486.391V19.1C486.391 15.9 488.291 14.3 492.091 14.3C495.757 14.3 497.591 15.9 497.591 19.1V29.8H505.891C508.491 29.8 509.724 31.3666 509.591 34.5C509.591 37.6333 508.357 39.2 505.891 39.2H497.591Z" stroke="#0080DC" stroke-width="8"/>
<path d="M550.377 29.8C552.111 29.8 553.877 30.1666 555.677 30.9C557.544 31.6333 559.344 32.5666 561.077 33.7H560.977C562.711 34.9666 564.044 36.6333 564.977 38.7C565.911 40.7 566.377 43.0333 566.377 45.7V74.1C566.377 79.5666 564.577 83.6 560.977 86.2C557.444 88.7333 553.911 90 550.377 90H534.377C532.644 90 530.877 89.7 529.077 89.1C527.277 88.5 525.511 87.5333 523.777 86.2C520.177 83.6666 518.377 79.6333 518.377 74.1V45.7C518.377 43.0333 518.844 40.7 519.777 38.7C520.711 36.6333 522.044 34.9666 523.777 33.7H523.677C525.344 32.5666 527.111 31.6333 528.977 30.9C530.844 30.1666 532.644 29.8 534.377 29.8H550.377ZM548.577 80.6C551.044 80.6 552.777 79.9 553.777 78.5C554.844 77.1 555.377 75.6 555.377 74V45.8C555.377 44.1333 554.844 42.6333 553.777 41.3C552.777 39.9 551.044 39.2 548.577 39.2H536.177C533.711 39.2 531.944 39.9 530.877 41.3C529.877 42.6333 529.377 44.1333 529.377 45.8V74C529.377 75.6 529.877 77.1 530.877 78.5C531.944 79.9 533.711 80.6 536.177 80.6H548.577Z" stroke="#0080DC" stroke-width="8"/>
<path d="M640.002 46.5C640.002 45.6333 639.869 44.8 639.602 44C639.336 43.1333 639.002 42.3333 638.602 41.6C637.736 40 635.936 39.2 633.202 39.2H626.802C624.069 39.2 622.236 40 621.302 41.6C620.502 43.1333 620.102 44.7666 620.102 46.5V86.1C620.102 89.2333 618.269 90.8 614.602 90.8C610.802 90.8 608.902 89.2333 608.902 86.1V45.6C608.902 40.1333 610.702 36.1333 614.302 33.6C617.969 31.0666 621.536 29.8 625.002 29.8H635.102C636.636 29.8 638.336 30.1 640.202 30.7C642.069 31.3 643.869 32.2333 645.602 33.5C647.269 32.2333 649.002 31.3 650.802 30.7C652.669 30.1 654.436 29.8 656.102 29.8H666.102C669.636 29.8 673.169 31.0666 676.702 33.6C680.369 36.0666 682.202 40.0666 682.202 45.6V86.1C682.202 89.2333 680.336 90.8 676.602 90.8C672.869 90.8 671.002 89.2333 671.002 86.1V46.5C671.002 45.6333 670.902 44.7666 670.702 43.9C670.502 43.0333 670.136 42.2333 669.602 41.5L669.702 41.6C669.169 40.7333 668.502 40.1333 667.702 39.8C666.902 39.4 665.736 39.2 664.202 39.2H657.902C655.102 39.2 653.269 40 652.402 41.6C651.536 43.0666 651.102 44.7 651.102 46.5V86.1C651.102 89.2333 649.269 90.8 645.602 90.8C641.869 90.8 640.002 89.2333 640.002 86.1V46.5Z" stroke="#0080DC" stroke-width="8"/>
<path d="M697.554 104C695.221 104 693.987 102.433 693.854 99.3C693.854 96.1666 695.087 94.6 697.554 94.6H701.954C704.287 94.6 705.821 93.9 706.554 92.5L707.954 88.8L708.454 87.2L688.954 36.1V36.2C688.421 34.6 688.521 33.2333 689.254 32.1C690.054 30.9666 691.254 30.1333 692.854 29.6C694.054 29.2666 695.021 29.1 695.754 29.1C697.687 29.1 698.887 30.2333 699.354 32.5L707.254 52.2L713.954 68.6L724.654 32.7C725.254 30.3 726.654 29.1 728.854 29.1C729.387 29.1 730.254 29.2666 731.454 29.6C733.054 30.0666 734.187 30.8333 734.854 31.9C735.587 32.9666 735.754 34.2333 735.354 35.7C732.354 45.9 729.287 56.1666 726.154 66.5C723.087 76.8333 720.054 87.0666 717.054 97.2C716.721 97.9333 716.187 98.6666 715.454 99.4C714.787 100.2 713.887 100.933 712.754 101.6C711.621 102.333 710.221 102.9 708.554 103.3C706.887 103.767 704.954 104 702.754 104H697.554Z" stroke="#0080DC" stroke-width="8"/>
<path d="M794.046 90C791.646 90 790.379 88.4333 790.246 85.3C790.246 82.1666 791.513 80.6 794.046 80.6H804.146C806.613 80.6 808.346 79.9 809.346 78.5C810.413 77.1 810.946 75.6 810.946 74V45.8C810.946 44.1333 810.413 42.6 809.346 41.2C808.346 39.7333 806.579 39.0666 804.046 39.2H784.846V99.3C784.846 102.433 783.013 104 779.346 104C775.679 104 773.846 102.4 773.846 99.2V35.7C773.846 33.3666 774.446 31.8 775.646 31C776.846 30.2 778.313 29.8 780.046 29.8H805.946C807.679 29.8 809.413 30.1 811.146 30.7C812.946 31.3 814.779 32.1333 816.646 33.2C818.246 34.3333 819.513 35.9333 820.446 38C821.446 40 821.946 42.3666 821.946 45.1V74.7C821.946 80.1666 820.179 84.0666 816.646 86.4C812.913 88.8 809.346 90 805.946 90H794.046Z" stroke="#0080DC" stroke-width="8"/>
<path d="M866.491 29.8C868.224 29.8 869.991 30.1666 871.791 30.9C873.657 31.6333 875.457 32.5666 877.191 33.7H877.091C878.824 34.9666 880.157 36.6333 881.091 38.7C882.024 40.7 882.491 43.0333 882.491 45.7V74.1C882.491 79.5666 880.691 83.6 877.091 86.2C873.557 88.7333 870.024 90 866.491 90H850.491C848.757 90 846.991 89.7 845.191 89.1C843.391 88.5 841.624 87.5333 839.891 86.2C836.291 83.6666 834.491 79.6333 834.491 74.1V45.7C834.491 43.0333 834.957 40.7 835.891 38.7C836.824 36.6333 838.157 34.9666 839.891 33.7H839.791C841.457 32.5666 843.224 31.6333 845.091 30.9C846.957 30.1666 848.757 29.8 850.491 29.8H866.491ZM864.691 80.6C867.157 80.6 868.891 79.9 869.891 78.5C870.957 77.1 871.491 75.6 871.491 74V45.8C871.491 44.1333 870.957 42.6333 869.891 41.3C868.891 39.9 867.157 39.2 864.691 39.2H852.291C849.824 39.2 848.057 39.9 846.991 41.3C845.991 42.6333 845.491 44.1333 845.491 45.8V74C845.491 75.6 845.991 77.1 846.991 78.5C848.057 79.9 849.824 80.6 852.291 80.6H864.691Z" stroke="#0080DC" stroke-width="8"/>
<path d="M905.935 85.8C905.935 89 904.102 90.6 900.435 90.6C896.635 90.6 894.735 89 894.735 85.8V44.4C894.735 38.9333 896.368 35.1333 899.635 33C902.902 30.8666 906.669 29.8 910.935 29.8H922.335C924.802 29.8 926.035 31.3666 926.035 34.5C926.168 37.6333 924.935 39.2 922.335 39.2H911.735C909.335 39.2 907.768 39.6666 907.035 40.6C906.302 41.5333 905.935 42.8333 905.935 44.5V85.8Z" stroke="#0080DC" stroke-width="8"/>
<path d="M947.591 39.2V75.6C947.591 77.3333 947.957 78.6666 948.691 79.6C949.424 80.5333 950.991 81 953.391 81H955.991C958.591 81 959.824 82.5333 959.691 85.6C959.691 88.7333 958.457 90.3 955.991 90.3H952.691C950.557 90.3 948.557 90.0333 946.691 89.5C944.824 88.9 943.024 88.0666 941.291 87V87.1C938.024 84.9666 936.391 81.1666 936.391 75.7V39.2H932.491C930.091 39.2 928.824 37.6333 928.691 34.5C928.691 31.3666 929.957 29.8 932.491 29.8H936.391V19.1C936.391 15.9 938.291 14.3 942.091 14.3C945.757 14.3 947.591 15.9 947.591 19.1V29.8H955.891C958.491 29.8 959.724 31.3666 959.591 34.5C959.591 37.6333 958.357 39.2 955.891 39.2H947.591Z" stroke="#0080DC" stroke-width="8"/>
<path d="M979.677 85.8C979.677 89 977.844 90.6 974.177 90.6C970.444 90.6 968.577 89 968.577 85.8V34.2C968.577 31 970.444 29.4 974.177 29.4C977.844 29.4 979.677 31 979.677 34.2V85.8ZM981.777 16.8C981.777 18.9333 981.044 20.7333 979.577 22.2C978.111 23.6666 976.311 24.4 974.177 24.4C972.044 24.4 970.211 23.6666 968.677 22.2C967.211 20.7333 966.477 18.9333 966.477 16.8C966.477 14.6 967.211 12.7666 968.677 11.3C970.211 9.83331 972.044 9.09998 974.177 9.09998C976.311 9.09998 978.111 9.83331 979.577 11.3C981.044 12.7666 981.777 14.6 981.777 16.8Z" stroke="#0080DC" stroke-width="8"/>
<path d="M1007.47 85.8C1007.47 89 1005.61 90.6 1001.87 90.6C998.206 90.6 996.373 89 996.373 85.8V39.2H991.573C989.173 39.2 987.906 37.6333 987.773 34.5C987.773 31.3666 989.039 29.8 991.573 29.8H996.373V25C996.373 22.2666 996.739 19.9666 997.473 18.1C998.273 16.1666 999.539 14.7 1001.27 13.7V13.8C1003.01 12.7333 1004.77 11.9 1006.57 11.3C1008.44 10.7 1010.41 10.4 1012.47 10.4H1014.87C1017.34 10.4 1018.57 11.9666 1018.57 15.1C1018.71 18.2333 1017.47 19.8 1014.87 19.8H1013.27C1012.01 19.8 1010.97 19.9333 1010.17 20.2C1009.44 20.4 1008.87 20.7333 1008.47 21.2C1008.07 21.6666 1007.81 22.2333 1007.67 22.9C1007.54 23.5666 1007.47 24.3 1007.47 25.1V29.8H1014.97C1017.57 29.8 1018.81 31.3666 1018.67 34.5C1018.67 37.6333 1017.44 39.2 1014.97 39.2H1007.47V85.8Z" stroke="#0080DC" stroke-width="8"/>
<path d="M1059.17 29.8C1060.9 29.8 1062.67 30.1666 1064.47 30.9C1066.33 31.6333 1068.13 32.5666 1069.87 33.7H1069.77C1071.5 34.9666 1072.83 36.6333 1073.77 38.7C1074.7 40.7 1075.17 43.0333 1075.17 45.7V74.1C1075.17 79.5666 1073.37 83.6 1069.77 86.2C1066.23 88.7333 1062.7 90 1059.17 90H1043.17C1041.43 90 1039.67 89.7 1037.87 89.1C1036.07 88.5 1034.3 87.5333 1032.57 86.2C1028.97 83.6666 1027.17 79.6333 1027.17 74.1V45.7C1027.17 43.0333 1027.63 40.7 1028.57 38.7C1029.5 36.6333 1030.83 34.9666 1032.57 33.7H1032.47C1034.13 32.5666 1035.9 31.6333 1037.77 30.9C1039.63 30.1666 1041.43 29.8 1043.17 29.8H1059.17ZM1057.37 80.6C1059.83 80.6 1061.57 79.9 1062.57 78.5C1063.63 77.1 1064.17 75.6 1064.17 74V45.8C1064.17 44.1333 1063.63 42.6333 1062.57 41.3C1061.57 39.9 1059.83 39.2 1057.37 39.2H1044.97C1042.5 39.2 1040.73 39.9 1039.67 41.3C1038.67 42.6333 1038.17 44.1333 1038.17 45.8V74C1038.17 75.6 1038.67 77.1 1039.67 78.5C1040.73 79.9 1042.5 80.6 1044.97 80.6H1057.37Z" stroke="#0080DC" stroke-width="8"/>
<path d="M1099.21 86.1C1099.21 89.2333 1097.38 90.8 1093.71 90.8C1089.98 90.8 1088.11 89.2333 1088.11 86.1V14.4C1088.11 11.2666 1089.98 9.69997 1093.71 9.69997C1097.38 9.69997 1099.21 11.2666 1099.21 14.4V86.1Z" stroke="#0080DC" stroke-width="8"/>
<path d="M1124.31 85.8C1124.31 89 1122.47 90.6 1118.81 90.6C1115.07 90.6 1113.21 89 1113.21 85.8V34.2C1113.21 31 1115.07 29.4 1118.81 29.4C1122.47 29.4 1124.31 31 1124.31 34.2V85.8ZM1126.41 16.8C1126.41 18.9333 1125.67 20.7333 1124.21 22.2C1122.74 23.6666 1120.94 24.4 1118.81 24.4C1116.67 24.4 1114.84 23.6666 1113.31 22.2C1111.84 20.7333 1111.11 18.9333 1111.11 16.8C1111.11 14.6 1111.84 12.7666 1113.31 11.3C1114.84 9.83331 1116.67 9.09998 1118.81 9.09998C1120.94 9.09998 1122.74 9.83331 1124.21 11.3C1125.67 12.7666 1126.41 14.6 1126.41 16.8Z" stroke="#0080DC" stroke-width="8"/>
<path d="M1170.2 29.8C1171.93 29.8 1173.7 30.1666 1175.5 30.9C1177.37 31.6333 1179.17 32.5666 1180.9 33.7H1180.8C1182.53 34.9666 1183.87 36.6333 1184.8 38.7C1185.73 40.7 1186.2 43.0333 1186.2 45.7V74.1C1186.2 79.5666 1184.4 83.6 1180.8 86.2C1177.27 88.7333 1173.73 90 1170.2 90H1154.2C1152.47 90 1150.7 89.7 1148.9 89.1C1147.1 88.5 1145.33 87.5333 1143.6 86.2C1140 83.6666 1138.2 79.6333 1138.2 74.1V45.7C1138.2 43.0333 1138.67 40.7 1139.6 38.7C1140.53 36.6333 1141.87 34.9666 1143.6 33.7H1143.5C1145.17 32.5666 1146.93 31.6333 1148.8 30.9C1150.67 30.1666 1152.47 29.8 1154.2 29.8H1170.2ZM1168.4 80.6C1170.87 80.6 1172.6 79.9 1173.6 78.5C1174.67 77.1 1175.2 75.6 1175.2 74V45.8C1175.2 44.1333 1174.67 42.6333 1173.6 41.3C1172.6 39.9 1170.87 39.2 1168.4 39.2H1156C1153.53 39.2 1151.77 39.9 1150.7 41.3C1149.7 42.6333 1149.2 44.1333 1149.2 45.8V74C1149.2 75.6 1149.7 77.1 1150.7 78.5C1151.77 79.9 1153.53 80.6 1156 80.6H1168.4Z" stroke="#0080DC" stroke-width="8"/>
<path d="M1214.05 81.8C1214.05 84.0666 1213.28 86 1211.75 87.6C1210.21 89.1333 1208.31 89.9 1206.05 89.9C1203.78 89.9 1201.88 89.1333 1200.35 87.6C1198.81 86 1198.05 84.0666 1198.05 81.8C1198.05 79.6 1198.81 77.7333 1200.35 76.2C1201.88 74.6 1203.78 73.8 1206.05 73.8C1208.31 73.8 1210.21 74.6 1211.75 76.2C1213.28 77.7333 1214.05 79.6 1214.05 81.8Z" stroke="#0080DC" stroke-width="8"/>
</svg>
