<svg width="882" height="86" viewBox="0 0 882 86" fill="none" xmlns="http://www.w3.org/2000/svg">
<path d="M62.4001 13.925L62.3251 14C62.6251 12.9 63.2001 12.1 64.05 11.6C64.95 11.1 66.1251 10.975 67.5751 11.225C69.0251 11.475 70.0501 11.925 70.6501 12.575C71.3001 13.225 71.4501 14.125 71.1001 15.275L57.6001 69.05V68.975C57.3501 69.825 56.7751 70.475 55.8751 70.925C55.0251 71.375 54.1251 71.6 53.1751 71.6C52.0751 71.6 51.0251 71.425 50.0251 71.075C49.0751 70.775 48.4751 70.125 48.2251 69.125L48.3001 69.2L39.0751 32.6H37.0501L27.9001 69.125C27.6501 69.975 27.0251 70.6 26.0251 71C25.0251 71.4 24.0001 71.6 22.9501 71.6C21.6501 71.6 20.6001 71.4 19.8001 71C19.0501 70.65 18.5501 70 18.3001 69.05L18.3751 69.125L4.87505 15.275C4.62505 14.275 4.85005 13.425 5.55005 12.725C6.25005 11.975 7.25005 11.475 8.55005 11.225C11.3501 10.775 13.0501 11.7 13.6501 14L13.5751 13.925L16.9501 27.5C17.4001 29.3 17.8501 31.15 18.3001 33.05C18.7501 34.9 19.2501 36.9 19.8001 39.05C20.3501 41.15 20.9501 43.45 21.6001 45.95C22.2501 48.45 22.9751 51.25 23.7751 54.35L33.3751 13.85C33.6251 12.75 34.2001 12.025 35.1001 11.675C36.0001 11.325 37.0001 11.15 38.1001 11.15C39.1001 11.15 40.0751 11.35 41.0251 11.75C41.9751 12.1 42.5751 12.85 42.8251 14L52.7251 54.125L62.4001 13.925Z" stroke="white" stroke-width="8" mask="url(#path-1-outside-1_55_40)"/>
<path d="M85.4959 59C85.4959 60.2 85.8709 61.325 86.6209 62.375C87.4209 63.425 88.746 63.95 90.596 63.95H99.971C101.821 63.95 103.121 63.5 103.871 62.6C104.671 61.65 105.071 60.575 105.071 59.375V58.55C105.071 56.2 106.446 55.025 109.196 55.025C111.946 55.025 113.321 56.2 113.321 58.55V59.45C113.321 61.55 112.971 63.275 112.271 64.625C111.621 65.975 110.621 67.15 109.271 68.15C106.621 70.05 103.971 71 101.321 71H88.721C86.071 71 83.4959 70.05 80.9959 68.15C79.7959 67.15 78.871 65.9 78.221 64.4C77.571 62.85 77.2459 61.075 77.2459 59.075V37.7C77.2459 33.65 78.4959 30.65 80.9959 28.7C82.2459 27.8 83.521 27.1 84.821 26.6C86.171 26.05 87.471 25.775 88.721 25.775H101.321C102.521 25.775 103.846 26.025 105.296 26.525C106.746 26.975 108.096 27.6 109.346 28.4C110.546 29.25 111.496 30.425 112.196 31.925C112.946 33.425 113.321 35.2 113.321 37.25V47.375C113.321 48.525 112.971 49.55 112.271 50.45C111.621 51.35 110.396 51.8 108.596 51.8H92.396C90.596 51.8 89.646 50.625 89.546 48.275C89.546 45.925 90.496 44.75 92.396 44.75H105.146L105.071 37.775C105.071 36.525 104.671 35.4 103.871 34.4C103.121 33.35 101.821 32.825 99.971 32.825H90.596C88.746 32.825 87.4209 33.35 86.6209 34.4C85.8709 35.4 85.4959 36.525 85.4959 37.775V59Z" stroke="white" stroke-width="8" mask="url(#path-1-outside-1_55_40)"/>
<path d="M131.426 68.075C131.426 70.425 130.051 71.6 127.301 71.6C124.501 71.6 123.101 70.425 123.101 68.075V14.3C123.101 11.95 124.501 10.775 127.301 10.775C130.051 10.775 131.426 11.95 131.426 14.3V68.075Z" stroke="white" stroke-width="8" mask="url(#path-1-outside-1_55_40)"/>
<path d="M177.847 59.075C177.847 63.175 176.497 66.2 173.797 68.15C171.147 70.05 168.497 71 165.847 71H153.247C150.597 71 148.022 70.05 145.522 68.15C144.322 67.15 143.397 65.9 142.747 64.4C142.097 62.85 141.772 61.075 141.772 59.075V37.7C141.772 33.65 143.022 30.65 145.522 28.7C146.772 27.8 148.047 27.1 149.347 26.6C150.697 26.05 151.997 25.775 153.247 25.775H165.847C167.047 25.775 168.372 26.025 169.822 26.525C171.272 26.975 172.622 27.6 173.872 28.4C175.072 29.25 176.022 30.425 176.722 31.925C177.472 33.425 177.847 35.2 177.847 37.25V41C177.847 43.4 176.472 44.6 173.722 44.6C170.972 44.6 169.597 43.4 169.597 41V37.775C169.597 36.525 169.197 35.4 168.397 34.4C167.647 33.35 166.347 32.825 164.497 32.825H155.122C153.272 32.825 151.947 33.35 151.147 34.4C150.397 35.4 150.022 36.525 150.022 37.775V59C150.022 60.2 150.397 61.325 151.147 62.375C151.947 63.425 153.272 63.95 155.122 63.95H164.497C166.347 63.95 167.647 63.425 168.397 62.375C169.197 61.325 169.597 60.2 169.597 59V55.55C169.597 53.2 170.972 52.025 173.722 52.025C176.472 52.025 177.847 53.2 177.847 55.55V59.075Z" stroke="white" stroke-width="8" mask="url(#path-1-outside-1_55_40)"/>
<path d="M211.256 25.85C212.556 25.85 213.881 26.125 215.231 26.675C216.631 27.225 217.981 27.925 219.281 28.775H219.206C220.506 29.725 221.506 30.975 222.206 32.525C222.906 34.025 223.256 35.775 223.256 37.775V59.075C223.256 63.175 221.906 66.2 219.206 68.15C216.556 70.05 213.906 71 211.256 71H199.256C197.956 71 196.631 70.775 195.281 70.325C193.931 69.875 192.606 69.15 191.306 68.15C188.606 66.25 187.256 63.225 187.256 59.075V37.775C187.256 35.775 187.606 34.025 188.306 32.525C189.006 30.975 190.006 29.725 191.306 28.775H191.231C192.481 27.925 193.806 27.225 195.206 26.675C196.606 26.125 197.956 25.85 199.256 25.85H211.256ZM209.906 63.95C211.756 63.95 213.056 63.425 213.806 62.375C214.606 61.325 215.006 60.2 215.006 59V37.85C215.006 36.6 214.606 35.475 213.806 34.475C213.056 33.425 211.756 32.9 209.906 32.9H200.606C198.756 32.9 197.431 33.425 196.631 34.475C195.881 35.475 195.506 36.6 195.506 37.85V59C195.506 60.2 195.881 61.325 196.631 62.375C197.431 63.425 198.756 63.95 200.606 63.95H209.906Z" stroke="white" stroke-width="8" mask="url(#path-1-outside-1_55_40)"/>
<path d="M255.989 38.375C255.989 37.725 255.889 37.1 255.689 36.5C255.489 35.85 255.239 35.25 254.939 34.7C254.289 33.5 252.939 32.9 250.889 32.9H246.089C244.039 32.9 242.664 33.5 241.964 34.7C241.364 35.85 241.064 37.075 241.064 38.375V68.075C241.064 70.425 239.689 71.6 236.939 71.6C234.089 71.6 232.664 70.425 232.664 68.075V37.7C232.664 33.6 234.014 30.6 236.714 28.7C239.464 26.8 242.139 25.85 244.739 25.85H252.314C253.464 25.85 254.739 26.075 256.139 26.525C257.539 26.975 258.889 27.675 260.189 28.625C261.439 27.675 262.739 26.975 264.089 26.525C265.489 26.075 266.814 25.85 268.064 25.85H275.564C278.214 25.85 280.864 26.8 283.514 28.7C286.264 30.55 287.639 33.55 287.639 37.7V68.075C287.639 70.425 286.239 71.6 283.439 71.6C280.639 71.6 279.239 70.425 279.239 68.075V38.375C279.239 37.725 279.164 37.075 279.014 36.425C278.864 35.775 278.589 35.175 278.189 34.625L278.264 34.7C277.864 34.05 277.364 33.6 276.764 33.35C276.164 33.05 275.289 32.9 274.139 32.9H269.414C267.314 32.9 265.939 33.5 265.289 34.7C264.639 35.8 264.314 37.025 264.314 38.375V68.075C264.314 70.425 262.939 71.6 260.189 71.6C257.389 71.6 255.989 70.425 255.989 68.075V38.375Z" stroke="white" stroke-width="8" mask="url(#path-1-outside-1_55_40)"/>
<path d="M305.003 59C305.003 60.2 305.378 61.325 306.128 62.375C306.928 63.425 308.253 63.95 310.103 63.95H319.478C321.328 63.95 322.628 63.5 323.378 62.6C324.178 61.65 324.578 60.575 324.578 59.375V58.55C324.578 56.2 325.953 55.025 328.703 55.025C331.453 55.025 332.828 56.2 332.828 58.55V59.45C332.828 61.55 332.478 63.275 331.778 64.625C331.128 65.975 330.128 67.15 328.778 68.15C326.128 70.05 323.478 71 320.828 71H308.228C305.578 71 303.003 70.05 300.503 68.15C299.303 67.15 298.378 65.9 297.728 64.4C297.078 62.85 296.753 61.075 296.753 59.075V37.7C296.753 33.65 298.003 30.65 300.503 28.7C301.753 27.8 303.028 27.1 304.328 26.6C305.678 26.05 306.978 25.775 308.228 25.775H320.828C322.028 25.775 323.353 26.025 324.803 26.525C326.253 26.975 327.603 27.6 328.853 28.4C330.053 29.25 331.003 30.425 331.703 31.925C332.453 33.425 332.828 35.2 332.828 37.25V47.375C332.828 48.525 332.478 49.55 331.778 50.45C331.128 51.35 329.903 51.8 328.103 51.8H311.903C310.103 51.8 309.153 50.625 309.053 48.275C309.053 45.925 310.003 44.75 311.903 44.75H324.653L324.578 37.775C324.578 36.525 324.178 35.4 323.378 34.4C322.628 33.35 321.328 32.825 319.478 32.825H310.103C308.253 32.825 306.928 33.35 306.128 34.4C305.378 35.4 305.003 36.525 305.003 37.775V59Z" stroke="white" stroke-width="8" mask="url(#path-1-outside-1_55_40)"/>
<path d="M374.693 32.9V60.2C374.693 61.5 374.968 62.5 375.518 63.2C376.068 63.9 377.243 64.25 379.043 64.25H380.993C382.943 64.25 383.868 65.4 383.768 67.7C383.768 70.05 382.843 71.225 380.993 71.225H378.518C376.918 71.225 375.418 71.025 374.018 70.625C372.618 70.175 371.268 69.55 369.968 68.75V68.825C367.518 67.225 366.293 64.375 366.293 60.275V32.9H363.368C361.568 32.9 360.618 31.725 360.518 29.375C360.518 27.025 361.468 25.85 363.368 25.85H366.293V17.825C366.293 15.425 367.718 14.225 370.568 14.225C373.318 14.225 374.693 15.425 374.693 17.825V25.85H380.918C382.868 25.85 383.793 27.025 383.693 29.375C383.693 31.725 382.768 32.9 380.918 32.9H374.693Z" stroke="white" stroke-width="8" mask="url(#path-1-outside-1_55_40)"/>
<path d="M414.283 25.85C415.583 25.85 416.908 26.125 418.258 26.675C419.658 27.225 421.008 27.925 422.308 28.775H422.233C423.533 29.725 424.533 30.975 425.233 32.525C425.933 34.025 426.283 35.775 426.283 37.775V59.075C426.283 63.175 424.933 66.2 422.233 68.15C419.583 70.05 416.933 71 414.283 71H402.283C400.983 71 399.658 70.775 398.308 70.325C396.958 69.875 395.633 69.15 394.333 68.15C391.633 66.25 390.283 63.225 390.283 59.075V37.775C390.283 35.775 390.633 34.025 391.333 32.525C392.033 30.975 393.033 29.725 394.333 28.775H394.258C395.508 27.925 396.833 27.225 398.233 26.675C399.633 26.125 400.983 25.85 402.283 25.85H414.283ZM412.933 63.95C414.783 63.95 416.083 63.425 416.833 62.375C417.633 61.325 418.033 60.2 418.033 59V37.85C418.033 36.6 417.633 35.475 416.833 34.475C416.083 33.425 414.783 32.9 412.933 32.9H403.633C401.783 32.9 400.458 33.425 399.658 34.475C398.908 35.475 398.533 36.6 398.533 37.85V59C398.533 60.2 398.908 61.325 399.658 62.375C400.458 63.425 401.783 63.95 403.633 63.95H412.933Z" stroke="white" stroke-width="8" mask="url(#path-1-outside-1_55_40)"/>
<path d="M481.502 38.375C481.502 37.725 481.402 37.1 481.202 36.5C481.002 35.85 480.752 35.25 480.452 34.7C479.802 33.5 478.452 32.9 476.402 32.9H471.602C469.552 32.9 468.177 33.5 467.477 34.7C466.877 35.85 466.577 37.075 466.577 38.375V68.075C466.577 70.425 465.202 71.6 462.452 71.6C459.602 71.6 458.177 70.425 458.177 68.075V37.7C458.177 33.6 459.527 30.6 462.227 28.7C464.977 26.8 467.652 25.85 470.252 25.85H477.827C478.977 25.85 480.252 26.075 481.652 26.525C483.052 26.975 484.402 27.675 485.702 28.625C486.952 27.675 488.252 26.975 489.602 26.525C491.002 26.075 492.327 25.85 493.577 25.85H501.077C503.727 25.85 506.377 26.8 509.027 28.7C511.777 30.55 513.152 33.55 513.152 37.7V68.075C513.152 70.425 511.752 71.6 508.952 71.6C506.152 71.6 504.752 70.425 504.752 68.075V38.375C504.752 37.725 504.677 37.075 504.527 36.425C504.377 35.775 504.102 35.175 503.702 34.625L503.777 34.7C503.377 34.05 502.877 33.6 502.277 33.35C501.677 33.05 500.802 32.9 499.652 32.9H494.927C492.827 32.9 491.452 33.5 490.802 34.7C490.152 35.8 489.827 37.025 489.827 38.375V68.075C489.827 70.425 488.452 71.6 485.702 71.6C482.902 71.6 481.502 70.425 481.502 68.075V38.375Z" stroke="white" stroke-width="8" mask="url(#path-1-outside-1_55_40)"/>
<path d="M524.665 81.5C522.915 81.5 521.991 80.325 521.891 77.975C521.891 75.625 522.815 74.45 524.665 74.45H527.966C529.716 74.45 530.865 73.925 531.415 72.875L532.466 70.1L532.841 68.9L518.216 30.575V30.65C517.816 29.45 517.89 28.425 518.44 27.575C519.04 26.725 519.941 26.1 521.141 25.7C522.041 25.45 522.765 25.325 523.315 25.325C524.765 25.325 525.666 26.175 526.016 27.875L531.94 42.65L536.966 54.95L544.99 28.025C545.44 26.225 546.491 25.325 548.141 25.325C548.541 25.325 549.191 25.45 550.091 25.7C551.291 26.05 552.141 26.625 552.641 27.425C553.191 28.225 553.316 29.175 553.016 30.275C550.766 37.925 548.465 45.625 546.115 53.375C543.815 61.125 541.54 68.8 539.29 76.4C539.04 76.95 538.641 77.5 538.091 78.05C537.591 78.65 536.915 79.2 536.065 79.7C535.215 80.25 534.165 80.675 532.915 80.975C531.665 81.325 530.215 81.5 528.565 81.5H524.665Z" stroke="white" stroke-width="8" mask="url(#path-1-outside-1_55_40)"/>
<path d="M597.035 71C595.235 71 594.285 69.825 594.185 67.475C594.185 65.125 595.135 63.95 597.035 63.95H604.61C606.46 63.95 607.76 63.425 608.51 62.375C609.31 61.325 609.71 60.2 609.71 59V37.85C609.71 36.6 609.31 35.45 608.51 34.4C607.76 33.3 606.435 32.8 604.535 32.9H590.135V77.975C590.135 80.325 588.76 81.5 586.01 81.5C583.26 81.5 581.885 80.3 581.885 77.9V30.275C581.885 28.525 582.335 27.35 583.235 26.75C584.135 26.15 585.235 25.85 586.535 25.85H605.96C607.26 25.85 608.56 26.075 609.86 26.525C611.21 26.975 612.585 27.6 613.985 28.4C615.185 29.25 616.135 30.45 616.835 32C617.585 33.5 617.96 35.275 617.96 37.325V59.525C617.96 63.625 616.635 66.55 613.985 68.3C611.185 70.1 608.51 71 605.96 71H597.035Z" stroke="white" stroke-width="8" mask="url(#path-1-outside-1_55_40)"/>
<path d="M651.368 25.85C652.668 25.85 653.993 26.125 655.343 26.675C656.743 27.225 658.093 27.925 659.393 28.775H659.318C660.618 29.725 661.618 30.975 662.318 32.525C663.018 34.025 663.368 35.775 663.368 37.775V59.075C663.368 63.175 662.018 66.2 659.318 68.15C656.668 70.05 654.018 71 651.368 71H639.368C638.068 71 636.743 70.775 635.393 70.325C634.043 69.875 632.718 69.15 631.418 68.15C628.718 66.25 627.368 63.225 627.368 59.075V37.775C627.368 35.775 627.718 34.025 628.418 32.525C629.118 30.975 630.118 29.725 631.418 28.775H631.343C632.593 27.925 633.918 27.225 635.318 26.675C636.718 26.125 638.068 25.85 639.368 25.85H651.368ZM650.018 63.95C651.868 63.95 653.168 63.425 653.918 62.375C654.718 61.325 655.118 60.2 655.118 59V37.85C655.118 36.6 654.718 35.475 653.918 34.475C653.168 33.425 651.868 32.9 650.018 32.9H640.718C638.868 32.9 637.543 33.425 636.743 34.475C635.993 35.475 635.618 36.6 635.618 37.85V59C635.618 60.2 635.993 61.325 636.743 62.375C637.543 63.425 638.868 63.95 640.718 63.95H650.018Z" stroke="white" stroke-width="8" mask="url(#path-1-outside-1_55_40)"/>
<path d="M680.951 67.85C680.951 70.25 679.576 71.45 676.826 71.45C673.976 71.45 672.551 70.25 672.551 67.85V36.8C672.551 32.7 673.776 29.85 676.226 28.25C678.676 26.65 681.501 25.85 684.701 25.85H693.251C695.101 25.85 696.026 27.025 696.026 29.375C696.126 31.725 695.201 32.9 693.251 32.9H685.301C683.501 32.9 682.326 33.25 681.776 33.95C681.226 34.65 680.951 35.625 680.951 36.875V67.85Z" stroke="white" stroke-width="8" mask="url(#path-1-outside-1_55_40)"/>
<path d="M712.193 32.9V60.2C712.193 61.5 712.468 62.5 713.018 63.2C713.568 63.9 714.743 64.25 716.543 64.25H718.493C720.443 64.25 721.368 65.4 721.268 67.7C721.268 70.05 720.343 71.225 718.493 71.225H716.018C714.418 71.225 712.918 71.025 711.518 70.625C710.118 70.175 708.768 69.55 707.468 68.75V68.825C705.018 67.225 703.793 64.375 703.793 60.275V32.9H700.868C699.068 32.9 698.118 31.725 698.018 29.375C698.018 27.025 698.968 25.85 700.868 25.85H703.793V17.825C703.793 15.425 705.218 14.225 708.068 14.225C710.818 14.225 712.193 15.425 712.193 17.825V25.85H718.418C720.368 25.85 721.293 27.025 721.193 29.375C721.193 31.725 720.268 32.9 718.418 32.9H712.193Z" stroke="white" stroke-width="8" mask="url(#path-1-outside-1_55_40)"/>
<path d="M738.208 67.85C738.208 70.25 736.808 71.45 734.008 71.45C731.258 71.45 729.883 70.25 729.883 67.85V32.9H726.283C724.483 32.9 723.533 31.725 723.433 29.375C723.433 27.025 724.383 25.85 726.283 25.85H729.883V22.25C729.883 20.2 730.158 18.475 730.708 17.075C731.308 15.625 732.258 14.525 733.558 13.775V13.85C734.858 13.05 736.183 12.425 737.533 11.975C738.933 11.525 740.408 11.3 741.958 11.3H743.758C745.608 11.3 746.533 12.475 746.533 14.825C746.633 17.175 745.708 18.35 743.758 18.35H742.558C741.608 18.35 740.833 18.45 740.233 18.65C739.683 18.8 739.258 19.05 738.958 19.4C738.658 19.75 738.458 20.175 738.358 20.675C738.258 21.175 738.208 21.725 738.208 22.325V25.85H743.833C745.783 25.85 746.708 27.025 746.608 29.375C746.608 31.725 745.683 32.9 743.833 32.9H738.208V67.85Z" stroke="white" stroke-width="8" mask="url(#path-1-outside-1_55_40)"/>
<path d="M776.978 25.85C778.278 25.85 779.603 26.125 780.953 26.675C782.353 27.225 783.703 27.925 785.003 28.775H784.928C786.228 29.725 787.228 30.975 787.928 32.525C788.628 34.025 788.978 35.775 788.978 37.775V59.075C788.978 63.175 787.628 66.2 784.928 68.15C782.278 70.05 779.628 71 776.978 71H764.978C763.678 71 762.353 70.775 761.003 70.325C759.653 69.875 758.328 69.15 757.028 68.15C754.328 66.25 752.978 63.225 752.978 59.075V37.775C752.978 35.775 753.328 34.025 754.028 32.525C754.728 30.975 755.728 29.725 757.028 28.775H756.953C758.203 27.925 759.528 27.225 760.928 26.675C762.328 26.125 763.678 25.85 764.978 25.85H776.978ZM775.628 63.95C777.478 63.95 778.778 63.425 779.528 62.375C780.328 61.325 780.728 60.2 780.728 59V37.85C780.728 36.6 780.328 35.475 779.528 34.475C778.778 33.425 777.478 32.9 775.628 32.9H766.328C764.478 32.9 763.153 33.425 762.353 34.475C761.603 35.475 761.228 36.6 761.228 37.85V59C761.228 60.2 761.603 61.325 762.353 62.375C763.153 63.425 764.478 63.95 766.328 63.95H775.628Z" stroke="white" stroke-width="8" mask="url(#path-1-outside-1_55_40)"/>
<path d="M807.012 68.075C807.012 70.425 805.637 71.6 802.887 71.6C800.087 71.6 798.687 70.425 798.687 68.075V14.3C798.687 11.95 800.087 10.775 802.887 10.775C805.637 10.775 807.012 11.95 807.012 14.3V68.075Z" stroke="white" stroke-width="8" mask="url(#path-1-outside-1_55_40)"/>
<path d="M825.833 67.85C825.833 70.25 824.458 71.45 821.708 71.45C818.908 71.45 817.508 70.25 817.508 67.85V29.15C817.508 26.75 818.908 25.55 821.708 25.55C824.458 25.55 825.833 26.75 825.833 29.15V67.85ZM827.408 16.1C827.408 17.7 826.858 19.05 825.758 20.15C824.658 21.25 823.308 21.8 821.708 21.8C820.108 21.8 818.733 21.25 817.583 20.15C816.483 19.05 815.933 17.7 815.933 16.1C815.933 14.45 816.483 13.075 817.583 11.975C818.733 10.875 820.108 10.325 821.708 10.325C823.308 10.325 824.658 10.875 825.758 11.975C826.858 13.075 827.408 14.45 827.408 16.1Z" stroke="white" stroke-width="8" mask="url(#path-1-outside-1_55_40)"/>
<path d="M860.255 25.85C861.555 25.85 862.88 26.125 864.23 26.675C865.63 27.225 866.98 27.925 868.28 28.775H868.205C869.505 29.725 870.505 30.975 871.205 32.525C871.905 34.025 872.255 35.775 872.255 37.775V59.075C872.255 63.175 870.905 66.2 868.205 68.15C865.555 70.05 862.905 71 860.255 71H848.255C846.955 71 845.63 70.775 844.28 70.325C842.93 69.875 841.605 69.15 840.305 68.15C837.605 66.25 836.255 63.225 836.255 59.075V37.775C836.255 35.775 836.605 34.025 837.305 32.525C838.005 30.975 839.005 29.725 840.305 28.775H840.23C841.48 27.925 842.805 27.225 844.205 26.675C845.605 26.125 846.955 25.85 848.255 25.85H860.255ZM858.905 63.95C860.755 63.95 862.055 63.425 862.805 62.375C863.605 61.325 864.005 60.2 864.005 59V37.85C864.005 36.6 863.605 35.475 862.805 34.475C862.055 33.425 860.755 32.9 858.905 32.9H849.605C847.755 32.9 846.43 33.425 845.63 34.475C844.88 35.475 844.505 36.6 844.505 37.85V59C844.505 60.2 844.88 61.325 845.63 62.375C846.43 63.425 847.755 63.95 849.605 63.95H858.905Z" stroke="white" stroke-width="8" mask="url(#path-1-outside-1_55_40)"/>
</svg>
