<svg width="440" height="43" viewBox="0 0 440 43" fill="none" xmlns="http://www.w3.org/2000/svg">
<g clip-path="url(#clip0_110_51)">
<path d="M31.1293 6.94671L31.0919 6.98413C31.2416 6.43537 31.5284 6.03628 31.9524 5.78685C32.4014 5.53741 32.9876 5.47506 33.711 5.59977C34.4343 5.72449 34.9457 5.94898 35.245 6.27324C35.5693 6.5975 35.6441 7.04648 35.4695 7.62018L28.7348 34.4467V34.4093C28.6101 34.8333 28.3232 35.1576 27.8742 35.3821C27.4502 35.6066 27.0012 35.7188 26.5273 35.7188C25.9786 35.7188 25.4547 35.6315 24.9559 35.4569C24.482 35.3073 24.1826 34.983 24.0579 34.4841L24.0953 34.5215L19.4933 16.263H18.4831L13.9185 34.4841C13.7937 34.9082 13.482 35.22 12.9831 35.4195C12.4842 35.619 11.9729 35.7188 11.4491 35.7188C10.8005 35.7188 10.2767 35.619 9.87765 35.4195C9.5035 35.2449 9.25406 34.9206 9.12935 34.4467L9.16676 34.4841L2.43204 7.62018C2.30733 7.12131 2.41957 6.69728 2.76878 6.34807C3.11798 5.97392 3.61685 5.72449 4.26538 5.59977C5.66223 5.37528 6.5103 5.83673 6.80962 6.98413L6.7722 6.94671L8.45588 13.7188C8.68037 14.6168 8.90486 15.5397 9.12935 16.4875C9.35384 17.4104 9.60327 18.4082 9.87765 19.4807C10.152 20.5283 10.4513 21.6757 10.7756 22.9229C11.0999 24.1701 11.4615 25.5669 11.8606 27.1134L16.6498 6.9093C16.7745 6.36054 17.0613 5.99887 17.5103 5.82426C17.9593 5.64966 18.4581 5.56236 19.0069 5.56236C19.5058 5.56236 19.9922 5.66213 20.4661 5.86168C20.94 6.03628 21.2393 6.41043 21.364 6.98413L26.3028 27.0011L31.1293 6.94671Z" stroke="white" stroke-width="8"/>
<path d="M42.651 29.4331C42.651 30.0317 42.8381 30.593 43.2123 31.1168C43.6114 31.6406 44.2724 31.9025 45.1953 31.9025H49.8722C50.7951 31.9025 51.4436 31.678 51.8178 31.229C52.2169 30.7551 52.4164 30.2188 52.4164 29.6202V29.2086C52.4164 28.0363 53.1023 27.4501 54.4742 27.4501C55.8461 27.4501 56.532 28.0363 56.532 29.2086V29.6576C56.532 30.7052 56.3574 31.5658 56.0082 32.2392C55.684 32.9127 55.1851 33.4989 54.5116 33.9977C53.1896 34.9456 51.8676 35.4195 50.5456 35.4195H44.2599C42.9379 35.4195 41.6533 34.9456 40.4061 33.9977C39.8075 33.4989 39.3461 32.8753 39.0218 32.127C38.6976 31.3537 38.5354 30.4683 38.5354 29.4705V18.8073C38.5354 16.7868 39.159 15.2902 40.4061 14.3175C41.0297 13.8685 41.6658 13.5193 42.3144 13.2698C42.9878 12.9955 43.6364 12.8583 44.2599 12.8583H50.5456C51.1443 12.8583 51.8053 12.983 52.5286 13.2324C53.252 13.4569 53.9255 13.7687 54.5491 14.1678C55.1477 14.5918 55.6216 15.178 55.9708 15.9263C56.345 16.6746 56.532 17.5601 56.532 18.5828V23.6338C56.532 24.2075 56.3574 24.7188 56.0082 25.1678C55.684 25.6168 55.0729 25.8413 54.1749 25.8413H46.0933C45.1953 25.8413 44.7214 25.2551 44.6715 24.0828C44.6715 22.9104 45.1454 22.3243 46.0933 22.3243H52.4538L52.4164 18.8447C52.4164 18.2211 52.2169 17.6599 51.8178 17.161C51.4436 16.6372 50.7951 16.3753 49.8722 16.3753H45.1953C44.2724 16.3753 43.6114 16.6372 43.2123 17.161C42.8381 17.6599 42.651 18.2211 42.651 18.8447V29.4331Z" stroke="white" stroke-width="8"/>
<path d="M65.5639 33.9603C65.5639 35.1327 64.878 35.7188 63.5061 35.7188C62.1093 35.7188 61.4109 35.1327 61.4109 33.9603V7.13381C61.4109 5.96147 62.1093 5.37531 63.5061 5.37531C64.878 5.37531 65.5639 5.96147 65.5639 7.13381V33.9603Z" stroke="white" stroke-width="8"/>
<path d="M88.7219 29.4705C88.7219 31.5159 88.0485 33.0249 86.7015 33.9977C85.3795 34.9456 84.0575 35.4195 82.7355 35.4195H76.4498C75.1278 35.4195 73.8433 34.9456 72.5961 33.9977C71.9975 33.4989 71.536 32.8753 71.2117 32.127C70.8875 31.3537 70.7253 30.4683 70.7253 29.4705V18.8073C70.7253 16.7868 71.3489 15.2902 72.5961 14.3175C73.2197 13.8685 73.8557 13.5193 74.5043 13.2698C75.1777 12.9955 75.8262 12.8583 76.4498 12.8583H82.7355C83.3342 12.8583 83.9952 12.983 84.7185 13.2324C85.4419 13.4569 86.1154 13.7687 86.7389 14.1678C87.3376 14.5918 87.8115 15.178 88.1607 15.9263C88.5349 16.6746 88.7219 17.5601 88.7219 18.5828V20.4535C88.7219 21.6508 88.036 22.2494 86.6641 22.2494C85.2922 22.2494 84.6063 21.6508 84.6063 20.4535V18.8447C84.6063 18.2211 84.4068 17.6599 84.0077 17.161C83.6335 16.6372 82.985 16.3753 82.0621 16.3753H77.3852C76.4623 16.3753 75.8013 16.6372 75.4022 17.161C75.0281 17.6599 74.841 18.2211 74.841 18.8447V29.4331C74.841 30.0317 75.0281 30.593 75.4022 31.1168C75.8013 31.6406 76.4623 31.9025 77.3852 31.9025H82.0621C82.985 31.9025 83.6335 31.6406 84.0077 31.1168C84.4068 30.593 84.6063 30.0317 84.6063 29.4331V27.712C84.6063 26.5397 85.2922 25.9535 86.6641 25.9535C88.036 25.9535 88.7219 26.5397 88.7219 27.712V29.4705Z" stroke="white" stroke-width="8"/>
<path d="M105.389 12.8957C106.037 12.8957 106.698 13.0329 107.372 13.3073C108.07 13.5816 108.743 13.9308 109.392 14.3549H109.355C110.003 14.8288 110.502 15.4524 110.851 16.2256C111.2 16.9739 111.375 17.8469 111.375 18.8447V29.4705C111.375 31.5159 110.701 33.0249 109.355 33.9977C108.033 34.9456 106.711 35.4195 105.389 35.4195H99.4022C98.7536 35.4195 98.0926 35.3073 97.4192 35.0828C96.7457 34.8583 96.0847 34.4966 95.4362 33.9977C94.0892 33.0499 93.4158 31.5408 93.4158 29.4705V18.8447C93.4158 17.8469 93.5904 16.9739 93.9396 16.2256C94.2888 15.4524 94.7877 14.8288 95.4362 14.3549H95.3988C96.0224 13.9308 96.6833 13.5816 97.3818 13.3073C98.0802 13.0329 98.7536 12.8957 99.4022 12.8957H105.389ZM104.715 31.9025C105.638 31.9025 106.287 31.6406 106.661 31.1168C107.06 30.593 107.259 30.0317 107.259 29.4331V18.8821C107.259 18.2585 107.06 17.6973 106.661 17.1984C106.287 16.6746 105.638 16.4127 104.715 16.4127H100.076C99.1527 16.4127 98.4917 16.6746 98.0926 17.1984C97.7185 17.6973 97.5314 18.2585 97.5314 18.8821V29.4331C97.5314 30.0317 97.7185 30.593 98.0926 31.1168C98.4917 31.6406 99.1527 31.9025 100.076 31.9025H104.715Z" stroke="white" stroke-width="8"/>
<path d="M127.704 19.144C127.704 18.8197 127.654 18.5079 127.555 18.2086C127.455 17.8844 127.33 17.585 127.18 17.3107C126.856 16.712 126.183 16.4127 125.16 16.4127H122.765C121.743 16.4127 121.057 16.712 120.708 17.3107C120.408 17.8844 120.259 18.4955 120.259 19.144V33.9603C120.259 35.1326 119.573 35.7188 118.201 35.7188C116.779 35.7188 116.068 35.1326 116.068 33.9603V18.8073C116.068 16.7619 116.742 15.2653 118.089 14.3175C119.46 13.3696 120.795 12.8957 122.092 12.8957H125.871C126.445 12.8957 127.081 13.0079 127.779 13.2324C128.477 13.4569 129.151 13.8061 129.799 14.28C130.423 13.8061 131.072 13.4569 131.745 13.2324C132.443 13.0079 133.104 12.8957 133.728 12.8957H137.469C138.791 12.8957 140.113 13.3696 141.435 14.3175C142.807 15.2404 143.493 16.737 143.493 18.8073V33.9603C143.493 35.1326 142.795 35.7188 141.398 35.7188C140.001 35.7188 139.303 35.1326 139.303 33.9603V19.144C139.303 18.8197 139.265 18.4955 139.191 18.1712C139.116 17.8469 138.979 17.5476 138.779 17.2732L138.816 17.3107C138.617 16.9864 138.367 16.7619 138.068 16.6372C137.769 16.4875 137.332 16.4127 136.759 16.4127H134.401C133.354 16.4127 132.668 16.712 132.344 17.3107C132.019 17.8594 131.857 18.4705 131.857 19.144V33.9603C131.857 35.1326 131.171 35.7188 129.799 35.7188C128.403 35.7188 127.704 35.1326 127.704 33.9603V19.144Z" stroke="white" stroke-width="8"/>
<path d="M152.156 29.4331C152.156 30.0317 152.343 30.593 152.717 31.1168C153.116 31.6406 153.777 31.9025 154.7 31.9025H159.377C160.3 31.9025 160.948 31.678 161.322 31.229C161.721 30.7551 161.921 30.2188 161.921 29.6202V29.2086C161.921 28.0363 162.607 27.4501 163.979 27.4501C165.351 27.4501 166.037 28.0363 166.037 29.2086V29.6576C166.037 30.7052 165.862 31.5658 165.513 32.2392C165.189 32.9127 164.69 33.4989 164.016 33.9977C162.694 34.9456 161.372 35.4195 160.05 35.4195H153.765C152.443 35.4195 151.158 34.9456 149.911 33.9977C149.312 33.4989 148.851 32.8753 148.526 32.127C148.202 31.3537 148.04 30.4683 148.04 29.4705V18.8073C148.04 16.7868 148.664 15.2902 149.911 14.3175C150.534 13.8685 151.17 13.5193 151.819 13.2698C152.492 12.9955 153.141 12.8583 153.765 12.8583H160.05C160.649 12.8583 161.31 12.983 162.033 13.2324C162.757 13.4569 163.43 13.7687 164.054 14.1678C164.652 14.5918 165.126 15.178 165.475 15.9263C165.85 16.6746 166.037 17.5601 166.037 18.5828V23.6338C166.037 24.2075 165.862 24.7188 165.513 25.1678C165.189 25.6168 164.577 25.8413 163.68 25.8413H155.598C154.7 25.8413 154.226 25.2551 154.176 24.0828C154.176 22.9104 154.65 22.3243 155.598 22.3243H161.958L161.921 18.8447C161.921 18.2211 161.721 17.6599 161.322 17.161C160.948 16.6372 160.3 16.3753 159.377 16.3753H154.7C153.777 16.3753 153.116 16.6372 152.717 17.161C152.343 17.6599 152.156 18.2211 152.156 18.8447V29.4331Z" stroke="white" stroke-width="8"/>
<path d="M186.922 16.4127V30.0317C186.922 30.6803 187.059 31.1791 187.333 31.5283C187.608 31.8776 188.194 32.0522 189.092 32.0522H190.065C191.037 32.0522 191.499 32.6259 191.449 33.7732C191.449 34.9456 190.988 35.5317 190.065 35.5317H188.83C188.032 35.5317 187.283 35.432 186.585 35.2324C185.887 35.0079 185.213 34.6961 184.565 34.2971V34.3345C183.342 33.5363 182.731 32.1145 182.731 30.0692V16.4127H181.272C180.374 16.4127 179.9 15.8265 179.85 14.6542C179.85 13.4819 180.324 12.8957 181.272 12.8957H182.731V8.89229C182.731 7.69501 183.442 7.09637 184.864 7.09637C186.236 7.09637 186.922 7.69501 186.922 8.89229V12.8957H190.027C191 12.8957 191.461 13.4819 191.412 14.6542C191.412 15.8265 190.95 16.4127 190.027 16.4127H186.922Z" stroke="white" stroke-width="8"/>
<path d="M206.672 12.8957C207.32 12.8957 207.981 13.0329 208.655 13.3073C209.353 13.5816 210.027 13.9308 210.675 14.3549H210.638C211.286 14.8288 211.785 15.4524 212.134 16.2256C212.484 16.9739 212.658 17.8469 212.658 18.8447V29.4705C212.658 31.5159 211.985 33.0249 210.638 33.9977C209.316 34.9456 207.994 35.4195 206.672 35.4195H200.685C200.037 35.4195 199.376 35.3073 198.702 35.0828C198.029 34.8583 197.368 34.4966 196.719 33.9977C195.372 33.0499 194.699 31.5408 194.699 29.4705V18.8447C194.699 17.8469 194.874 16.9739 195.223 16.2256C195.572 15.4524 196.071 14.8288 196.719 14.3549H196.682C197.306 13.9308 197.967 13.5816 198.665 13.3073C199.363 13.0329 200.037 12.8957 200.685 12.8957H206.672ZM205.998 31.9025C206.921 31.9025 207.57 31.6406 207.944 31.1168C208.343 30.593 208.542 30.0317 208.542 29.4331V18.8821C208.542 18.2585 208.343 17.6973 207.944 17.1984C207.57 16.6746 206.921 16.4127 205.998 16.4127H201.359C200.436 16.4127 199.775 16.6746 199.376 17.1984C199.002 17.6973 198.815 18.2585 198.815 18.8821V29.4331C198.815 30.0317 199.002 30.593 199.376 31.1168C199.775 31.6406 200.436 31.9025 201.359 31.9025H205.998Z" stroke="white" stroke-width="8"/>
<path d="M240.205 19.144C240.205 18.8197 240.155 18.5079 240.055 18.2086C239.956 17.8844 239.831 17.585 239.681 17.3107C239.357 16.712 238.684 16.4127 237.661 16.4127H235.266C234.244 16.4127 233.558 16.712 233.209 17.3107C232.909 17.8844 232.76 18.4955 232.76 19.144V33.9603C232.76 35.1326 232.074 35.7188 230.702 35.7188C229.28 35.7188 228.569 35.1326 228.569 33.9603V18.8073C228.569 16.7619 229.243 15.2653 230.589 14.3175C231.961 13.3696 233.296 12.8957 234.593 12.8957H238.372C238.946 12.8957 239.582 13.0079 240.28 13.2324C240.978 13.4569 241.652 13.8061 242.3 14.28C242.924 13.8061 243.573 13.4569 244.246 13.2324C244.944 13.0079 245.605 12.8957 246.229 12.8957H249.97C251.292 12.8957 252.614 13.3696 253.936 14.3175C255.308 15.2404 255.994 16.737 255.994 18.8073V33.9603C255.994 35.1326 255.296 35.7188 253.899 35.7188C252.502 35.7188 251.804 35.1326 251.804 33.9603V19.144C251.804 18.8197 251.766 18.4955 251.692 18.1712C251.617 17.8469 251.48 17.5476 251.28 17.2732L251.317 17.3107C251.118 16.9864 250.868 16.7619 250.569 16.6372C250.27 16.4875 249.833 16.4127 249.26 16.4127H246.902C245.855 16.4127 245.169 16.712 244.845 17.3107C244.52 17.8594 244.358 18.4705 244.358 19.144V33.9603C244.358 35.1326 243.672 35.7188 242.3 35.7188C240.904 35.7188 240.205 35.1326 240.205 33.9603V19.144Z" stroke="white" stroke-width="8"/>
<path d="M261.738 40.6576C260.865 40.6576 260.404 40.0714 260.354 38.8991C260.354 37.7268 260.815 37.1406 261.738 37.1406H263.384C264.257 37.1406 264.831 36.8787 265.105 36.3549L265.629 34.9705L265.816 34.3719L258.521 15.2528V15.2903C258.321 14.6916 258.358 14.1803 258.632 13.7562C258.932 13.3322 259.381 13.0204 259.98 12.8209C260.429 12.6961 260.79 12.6338 261.064 12.6338C261.788 12.6338 262.237 13.0578 262.412 13.9059L265.367 21.2766L267.874 27.4127L271.877 13.9807C272.102 13.0828 272.626 12.6338 273.449 12.6338C273.649 12.6338 273.973 12.6961 274.422 12.8209C275.02 12.9955 275.444 13.2823 275.694 13.6814C275.968 14.0805 276.031 14.5544 275.881 15.1032C274.759 18.9195 273.611 22.7608 272.438 26.627C271.291 30.4932 270.156 34.322 269.034 38.1134C268.909 38.3878 268.71 38.6621 268.435 38.9365C268.186 39.2358 267.849 39.5102 267.425 39.7596C267.001 40.034 266.477 40.246 265.853 40.3957C265.23 40.5703 264.506 40.6576 263.683 40.6576H261.738Z" stroke="white" stroke-width="8"/>
<path d="M297.841 35.4195C296.943 35.4195 296.469 34.8333 296.419 33.661C296.419 32.4887 296.893 31.9025 297.841 31.9025H301.619C302.542 31.9025 303.191 31.6406 303.565 31.1168C303.964 30.593 304.164 30.0317 304.164 29.4331V18.8821C304.164 18.2585 303.964 17.6848 303.565 17.161C303.191 16.6122 302.53 16.3628 301.582 16.4127H294.398V38.8991C294.398 40.0714 293.712 40.6576 292.341 40.6576C290.969 40.6576 290.283 40.059 290.283 38.8617V15.1032C290.283 14.2302 290.507 13.644 290.956 13.3447C291.405 13.0454 291.954 12.8957 292.602 12.8957H302.293C302.941 12.8957 303.59 13.0079 304.238 13.2324C304.912 13.4569 305.598 13.7687 306.296 14.1678C306.895 14.5918 307.369 15.1905 307.718 15.9637C308.092 16.712 308.279 17.5975 308.279 18.6202V29.695C308.279 31.7404 307.618 33.1996 306.296 34.0726C304.899 34.9705 303.565 35.4195 302.293 35.4195H297.841Z" stroke="white" stroke-width="8"/>
<path d="M324.945 12.8957C325.594 12.8957 326.255 13.0329 326.928 13.3073C327.627 13.5816 328.3 13.9308 328.949 14.3549H328.911C329.56 14.8288 330.059 15.4524 330.408 16.2256C330.757 16.9739 330.932 17.8469 330.932 18.8447V29.4705C330.932 31.5159 330.258 33.0249 328.911 33.9977C327.589 34.9456 326.267 35.4195 324.945 35.4195H318.959C318.311 35.4195 317.65 35.3073 316.976 35.0828C316.303 34.8583 315.642 34.4966 314.993 33.9977C313.646 33.0499 312.973 31.5408 312.973 29.4705V18.8447C312.973 17.8469 313.147 16.9739 313.496 16.2256C313.846 15.4524 314.345 14.8288 314.993 14.3549H314.956C315.579 13.9308 316.24 13.5816 316.939 13.3073C317.637 13.0329 318.311 12.8957 318.959 12.8957H324.945ZM324.272 31.9025C325.195 31.9025 325.843 31.6406 326.218 31.1168C326.617 30.593 326.816 30.0317 326.816 29.4331V18.8821C326.816 18.2585 326.617 17.6973 326.218 17.1984C325.843 16.6746 325.195 16.4127 324.272 16.4127H319.633C318.71 16.4127 318.049 16.6746 317.65 17.1984C317.275 17.6973 317.088 18.2585 317.088 18.8821V29.4331C317.088 30.0317 317.275 30.593 317.65 31.1168C318.049 31.6406 318.71 31.9025 319.633 31.9025H324.272Z" stroke="white" stroke-width="8"/>
<path d="M339.703 33.8481C339.703 35.0454 339.017 35.644 337.646 35.644C336.224 35.644 335.513 35.0454 335.513 33.8481V18.3583C335.513 16.3129 336.124 14.8912 337.346 14.093C338.568 13.2948 339.978 12.8957 341.574 12.8957H345.839C346.762 12.8957 347.224 13.4819 347.224 14.6542C347.274 15.8265 346.812 16.4127 345.839 16.4127H341.873C340.976 16.4127 340.389 16.5873 340.115 16.9365C339.841 17.2857 339.703 17.7721 339.703 18.3957V33.8481Z" stroke="white" stroke-width="8"/>
<path d="M355.289 16.4127V30.0317C355.289 30.6803 355.426 31.1791 355.701 31.5283C355.975 31.8776 356.561 32.0522 357.459 32.0522H358.432C359.405 32.0522 359.866 32.6259 359.816 33.7732C359.816 34.9456 359.355 35.5317 358.432 35.5317H357.197C356.399 35.5317 355.651 35.432 354.952 35.2324C354.254 35.0079 353.58 34.6961 352.932 34.2971V34.3345C351.71 33.5363 351.098 32.1145 351.098 30.0692V16.4127H349.639C348.741 16.4127 348.267 15.8265 348.218 14.6542C348.218 13.4819 348.691 12.8957 349.639 12.8957H351.098V8.89229C351.098 7.69501 351.809 7.09637 353.231 7.09637C354.603 7.09637 355.289 7.69501 355.289 8.89229V12.8957H358.394C359.367 12.8957 359.829 13.4819 359.779 14.6542C359.779 15.8265 359.317 16.4127 358.394 16.4127H355.289Z" stroke="white" stroke-width="8"/>
<path d="M368.267 33.8481C368.267 35.0454 367.569 35.644 366.172 35.644C364.8 35.644 364.114 35.0454 364.114 33.8481V16.4127H362.318C361.42 16.4127 360.946 15.8265 360.896 14.6542C360.896 13.4819 361.37 12.8957 362.318 12.8957H364.114V11.0998C364.114 10.0771 364.251 9.21657 364.526 8.51816C364.825 7.7948 365.299 7.24605 365.947 6.8719V6.90932C366.596 6.51022 367.257 6.19843 367.93 5.97394C368.629 5.74945 369.365 5.63721 370.138 5.63721H371.036C371.959 5.63721 372.42 6.22337 372.42 7.39571C372.47 8.56805 372.009 9.15421 371.036 9.15421H370.437C369.963 9.15421 369.577 9.2041 369.277 9.30387C369.003 9.3787 368.791 9.50342 368.641 9.67802C368.491 9.85263 368.392 10.0646 368.342 10.3141C368.292 10.5635 368.267 10.8379 368.267 11.1372V12.8957H371.073C372.046 12.8957 372.507 13.4819 372.457 14.6542C372.457 15.8265 371.996 16.4127 371.073 16.4127H368.267V33.8481Z" stroke="white" stroke-width="8"/>
<path d="M387.608 12.8957C388.257 12.8957 388.918 13.0329 389.591 13.3073C390.289 13.5816 390.963 13.9308 391.611 14.3549H391.574C392.223 14.8288 392.721 15.4524 393.071 16.2256C393.42 16.9739 393.594 17.8469 393.594 18.8447V29.4705C393.594 31.5159 392.921 33.0249 391.574 33.9977C390.252 34.9456 388.93 35.4195 387.608 35.4195H381.622C380.973 35.4195 380.312 35.3073 379.639 35.0828C378.965 34.8583 378.304 34.4966 377.656 33.9977C376.309 33.0499 375.635 31.5408 375.635 29.4705V18.8447C375.635 17.8469 375.81 16.9739 376.159 16.2256C376.508 15.4524 377.007 14.8288 377.656 14.3549H377.618C378.242 13.9308 378.903 13.5816 379.601 13.3073C380.3 13.0329 380.973 12.8957 381.622 12.8957H387.608ZM386.935 31.9025C387.857 31.9025 388.506 31.6406 388.88 31.1168C389.279 30.593 389.479 30.0317 389.479 29.4331V18.8821C389.479 18.2585 389.279 17.6973 388.88 17.1984C388.506 16.6746 387.857 16.4127 386.935 16.4127H382.295C381.372 16.4127 380.711 16.6746 380.312 17.1984C379.938 17.6973 379.751 18.2585 379.751 18.8821V29.4331C379.751 30.0317 379.938 30.593 380.312 31.1168C380.711 31.6406 381.372 31.9025 382.295 31.9025H386.935Z" stroke="white" stroke-width="8"/>
<path d="M402.591 33.9603C402.591 35.1327 401.905 35.7188 400.533 35.7188C399.136 35.7188 398.438 35.1327 398.438 33.9603V7.13381C398.438 5.96147 399.136 5.37531 400.533 5.37531C401.905 5.37531 402.591 5.96147 402.591 7.13381V33.9603Z" stroke="white" stroke-width="8"/>
<path d="M411.98 33.8481C411.98 35.0454 411.294 35.644 409.922 35.644C408.526 35.644 407.827 35.0454 407.827 33.8481V14.542C407.827 13.3447 408.526 12.7461 409.922 12.7461C411.294 12.7461 411.98 13.3447 411.98 14.542V33.8481ZM412.766 8.03177C412.766 8.82996 412.492 9.50343 411.943 10.0522C411.394 10.6009 410.721 10.8753 409.922 10.8753C409.124 10.8753 408.438 10.6009 407.865 10.0522C407.316 9.50343 407.042 8.82996 407.042 8.03177C407.042 7.20864 407.316 6.5227 407.865 5.97395C408.438 5.42519 409.124 5.15082 409.922 5.15082C410.721 5.15082 411.394 5.42519 411.943 5.97395C412.492 6.5227 412.766 7.20864 412.766 8.03177Z" stroke="white" stroke-width="8"/>
<path d="M429.152 12.8957C429.801 12.8957 430.462 13.0329 431.135 13.3073C431.834 13.5816 432.507 13.9308 433.156 14.3549H433.118C433.767 14.8288 434.266 15.4524 434.615 16.2256C434.964 16.9739 435.139 17.8469 435.139 18.8447V29.4705C435.139 31.5159 434.465 33.0249 433.118 33.9977C431.796 34.9456 430.474 35.4195 429.152 35.4195H423.166C422.517 35.4195 421.856 35.3073 421.183 35.0828C420.509 34.8583 419.848 34.4966 419.2 33.9977C417.853 33.0499 417.179 31.5408 417.179 29.4705V18.8447C417.179 17.8469 417.354 16.9739 417.703 16.2256C418.052 15.4524 418.551 14.8288 419.2 14.3549H419.162C419.786 13.9308 420.447 13.5816 421.145 13.3073C421.844 13.0329 422.517 12.8957 423.166 12.8957H429.152ZM428.479 31.9025C429.402 31.9025 430.05 31.6406 430.424 31.1168C430.823 30.593 431.023 30.0317 431.023 29.4331V18.8821C431.023 18.2585 430.823 17.6973 430.424 17.1984C430.05 16.6746 429.402 16.4127 428.479 16.4127H423.839C422.916 16.4127 422.255 16.6746 421.856 17.1984C421.482 17.6973 421.295 18.2585 421.295 18.8821V29.4331C421.295 30.0317 421.482 30.593 421.856 31.1168C422.255 31.6406 422.916 31.9025 423.839 31.9025H428.479Z" stroke="white" stroke-width="8"/>
</g>
<defs>
<clipPath id="clip0_110_51">
<rect width="440" height="42.9025" fill="white"/>
</clipPath>
</defs>
</svg>
