<svg width="298" height="213" viewBox="0 0 298 213" fill="none" xmlns="http://www.w3.org/2000/svg">
<path d="M100.004 131.686L90.7786 127.828L90.7636 127.864L90.7489 127.9L100.004 131.686ZM91.8867 144.025L98.9132 151.14L98.9356 151.118L98.9578 151.096L91.8867 144.025ZM15.061 154.351L11.2149 163.581L15.061 154.351ZM12.3335 152.597L5.06336 159.463L5.25954 159.671L5.46726 159.867L12.3335 152.597ZM12.3335 64.3418L5.26243 57.2707L5.16143 57.3717L5.06336 57.4756L12.3335 64.3418ZM91.8867 72.9141L84.8157 79.9851L84.8379 80.0074L84.8603 80.0295L91.8867 72.9141ZM100.004 85.2529L90.737 89.01L90.7575 89.0606L90.7786 89.111L100.004 85.2529ZM84.4834 91.812L75.1385 95.372L75.1631 95.4364L75.1885 95.5005L84.4834 91.812ZM80.0024 84.8633L72.9314 91.9343L72.9711 91.9741L73.0113 92.0133L80.0024 84.8633ZM72.9888 80.3823L69.2491 89.6567L69.3386 89.6928L69.4288 89.7272L72.9888 80.3823ZM26.8154 78.7588V68.7588H16.8154V78.7588H26.8154ZM26.8154 138.115H16.8154V148.115H26.8154V138.115ZM72.9888 136.557L76.5987 145.882L76.638 145.867L76.6772 145.852L72.9888 136.557ZM80.0024 132.076L86.9936 139.226L87.0338 139.186L87.0735 139.147L80.0024 132.076ZM84.4834 125.127L75.1885 121.438L75.1729 121.478L75.1577 121.517L84.4834 125.127ZM92.9917 116.035C92.9917 120.513 92.2107 124.403 90.7786 127.828L109.23 135.544C111.781 129.444 112.992 122.9 112.992 116.035H92.9917ZM90.7489 127.9C89.2777 131.496 87.2931 134.476 84.8157 136.954L98.9578 151.096C103.407 146.646 106.835 141.401 109.26 135.472L90.7489 127.9ZM84.8603 136.91C82.3789 139.36 79.3844 141.34 75.7615 142.822L83.3342 161.333C89.236 158.919 94.4674 155.53 98.9132 151.14L84.8603 136.91ZM75.7615 142.822C72.3002 144.238 68.425 145 64.0269 145V165C70.7986 165 77.2708 163.814 83.3342 161.333L75.7615 142.822ZM64.0269 145H18.438V165H64.0269V145ZM18.438 145C18.4294 145 18.4789 144.999 18.573 145.018C18.6689 145.036 18.7845 145.069 18.9072 145.12L11.2149 163.581C13.5639 164.56 16.0081 165 18.438 165V145ZM18.9072 145.12C18.9071 145.12 18.917 145.124 18.9351 145.133C18.9533 145.143 18.9779 145.157 19.0074 145.176C19.069 145.215 19.1358 145.267 19.1997 145.327L5.46726 159.867C7.16989 161.475 9.11547 162.707 11.2149 163.581L18.9072 145.12ZM19.6036 145.731C19.664 145.795 19.7154 145.862 19.7549 145.923C19.7739 145.953 19.7878 145.977 19.7973 145.996C19.8068 146.014 19.8109 146.024 19.8108 146.023L1.34931 153.716C2.22406 155.815 3.45532 157.761 5.06336 159.463L19.6036 145.731ZM19.8108 146.023C19.862 146.146 19.8947 146.262 19.9131 146.358C19.9312 146.452 19.9307 146.501 19.9307 146.493H-0.0693359C-0.0693359 148.923 0.370553 151.367 1.34931 153.716L19.8108 146.023ZM19.9307 146.493V70.3813H-0.0693359V146.493H19.9307ZM19.9307 70.3813C19.9307 70.4176 19.9269 70.4947 19.9062 70.6008C19.8852 70.7077 19.8524 70.8159 19.8108 70.9155L1.34931 63.2232C0.389025 65.5279 -0.0693359 67.9439 -0.0693359 70.3813H19.9307ZM19.8108 70.9155C19.8109 70.9154 19.8068 70.9253 19.7973 70.9434C19.7878 70.9616 19.7739 70.9862 19.7549 71.0157C19.7154 71.0773 19.664 71.1441 19.6036 71.208L5.06336 57.4756C3.45532 59.1782 2.22406 61.1238 1.34931 63.2232L19.8108 70.9155ZM19.4046 71.4129C19.3326 71.4848 19.2449 71.5579 19.1469 71.6232C19.0492 71.6883 18.9647 71.7303 18.9072 71.7542L11.2149 53.2927C8.9965 54.217 6.98533 55.5478 5.26243 57.2707L19.4046 71.4129ZM18.9072 71.7542C18.7845 71.8053 18.6689 71.838 18.573 71.8564C18.4789 71.8745 18.4294 71.874 18.438 71.874V51.874C16.0081 51.874 13.5639 52.3139 11.2149 53.2927L18.9072 71.7542ZM18.438 71.874H64.0269V51.874H18.438V71.874ZM64.0269 71.874C68.425 71.874 72.3002 72.6358 75.7615 74.0519L83.3342 55.5409C77.2708 53.0604 70.7986 51.874 64.0269 51.874V71.874ZM75.7615 74.0519C79.3579 75.5231 82.3382 77.5076 84.8157 79.9851L98.9578 65.843C94.5082 61.3934 89.2625 57.9661 83.3342 55.5409L75.7615 74.0519ZM84.8603 80.0295C87.2941 82.4329 89.2658 85.381 90.737 89.01L109.272 81.4959C106.847 75.5136 103.406 70.2357 98.9132 65.7987L84.8603 80.0295ZM90.7786 89.111C92.2146 92.5449 92.9917 96.4148 92.9917 100.839H112.992C112.992 94.0065 111.777 87.4857 109.23 81.3949L90.7786 89.111ZM92.9917 100.839V116.035H112.992V100.839H92.9917ZM96.1069 100.839C96.1069 96.4381 95.3797 92.159 93.7783 88.1236L75.1885 95.5005C75.7518 96.9201 76.1069 98.6589 76.1069 100.839H96.1069ZM93.8283 88.2521C92.3111 84.2695 90.0495 80.7012 86.9936 77.7132L73.0113 92.0133C73.8518 92.8352 74.5775 93.8994 75.1385 95.372L93.8283 88.2521ZM87.0735 77.7922C84.0697 74.7884 80.5142 72.5481 76.5487 71.0374L69.4288 89.7272C70.9184 90.2947 72.0387 91.0417 72.9314 91.9343L87.0735 77.7922ZM76.7285 71.1079C72.7041 69.4852 68.4246 68.7588 64.0269 68.7588V88.7588C66.2099 88.7588 67.9049 89.1147 69.2491 89.6567L76.7285 71.1079ZM64.0269 68.7588H26.8154V88.7588H64.0269V68.7588ZM16.8154 78.7588V138.115H36.8154V78.7588H16.8154ZM26.8154 148.115H64.0269V128.115H26.8154V148.115ZM64.0269 148.115C68.377 148.115 72.6106 147.426 76.5987 145.882L69.3788 127.231C67.9985 127.765 66.2575 128.115 64.0269 128.115V148.115ZM76.6772 145.852C80.5412 144.318 84.0265 142.127 86.9936 139.226L73.0113 124.926C72.0819 125.834 70.8915 126.63 69.3003 127.262L76.6772 145.852ZM87.0735 139.147C90.0499 136.17 92.2905 132.66 93.8091 128.737L75.1577 121.517C74.5982 122.962 73.8514 124.085 72.9314 125.005L87.0735 139.147ZM93.7783 128.815C95.3855 124.765 96.1069 120.461 96.1069 116.035H76.1069C76.1069 118.276 75.746 120.034 75.1885 121.438L93.7783 128.815ZM96.1069 116.035V100.839H76.1069V116.035H96.1069Z" stroke="white" stroke-width="10px"/>
<path d="M115.601 148.246L108.53 141.175L108.493 141.211L108.457 141.248L115.601 148.246ZM108.132 153.247L111.87 162.522L111.929 162.498L111.988 162.473L108.132 153.247ZM36.7617 155H26.7617V165H36.7617V155ZM36.7617 138.115V128.115H26.7617V138.115H36.7617ZM103.521 136.362L110.593 143.433L110.657 143.369L110.72 143.303L103.521 136.362ZM105.275 61.874V51.874H95.2749V61.874H105.275ZM122.29 61.874H132.29V51.874H122.29V61.874ZM112.29 131.296C112.29 133.495 111.914 135.354 111.261 136.975L129.811 144.451C131.496 140.27 132.29 135.851 132.29 131.296H112.29ZM111.261 136.975C110.573 138.682 109.659 140.045 108.53 141.175L122.672 155.317C125.785 152.204 128.161 148.545 129.811 144.451L111.261 136.975ZM108.457 141.248C107.369 142.359 106.017 143.293 104.276 144.02L111.988 162.473C116.049 160.776 119.676 158.376 122.744 155.244L108.457 141.248ZM104.395 143.971C102.789 144.619 100.911 145 98.6509 145V165C103.232 165 107.675 164.213 111.87 162.522L104.395 143.971ZM98.6509 145H36.7617V165H98.6509V145ZM46.7617 155V138.115H26.7617V155H46.7617ZM36.7617 148.115H98.6509V128.115H36.7617V148.115ZM98.6509 148.115C102.662 148.115 107.095 146.931 110.593 143.433L96.4504 129.291C96.9526 128.789 97.5289 128.452 98.0399 128.268C98.5111 128.098 98.7643 128.115 98.6509 128.115V148.115ZM110.72 143.303C114.157 139.739 115.275 135.281 115.275 131.296H95.2749C95.2749 131.493 95.247 131.319 95.3867 130.915C95.5399 130.472 95.8385 129.923 96.323 129.42L110.72 143.303ZM115.275 131.296V61.874H95.2749V131.296H115.275ZM105.275 71.874H122.29V51.874H105.275V71.874ZM112.29 61.874V131.296H132.29V61.874H112.29Z" stroke="#0080DC" stroke-width="10px"/>
<path d="M257.537 108.554L249.359 102.799L249.348 102.815L249.337 102.83L257.537 108.554ZM245.263 118.555L249.388 127.665L249.426 127.647L249.464 127.63L245.263 118.555ZM238.249 120.828L236.288 111.022L236.27 111.026L236.253 111.029L238.249 120.828ZM231.625 121.542V111.542H204.749L225.088 129.11L231.625 121.542ZM266.888 152V162H293.765L273.425 144.432L266.888 152ZM240.782 152L234.238 159.562L237.056 162H240.782V152ZM205.583 121.542L212.127 113.981L209.309 111.542H205.583V121.542ZM193.439 121.542H183.439V131.542H193.439V121.542ZM193.439 104.658V94.6577H183.439V104.658H193.439ZM231.625 104.658V114.658H232.032L232.439 114.625L231.625 104.658ZM237.405 103.359L241.119 112.644L241.177 112.62L241.235 112.596L237.405 103.359ZM241.951 100.437L235.128 93.126L235.066 93.1837L235.005 93.2425L241.951 100.437ZM244.938 96.0854L254.19 99.881L254.206 99.8403L254.223 99.7994L244.938 96.0854ZM245.587 77.3823L236.357 81.2285L236.558 81.7115L236.808 82.1708L245.587 77.3823ZM244.678 76.2783L238.678 84.2783L239.225 84.6882L239.822 85.0199L244.678 76.2783ZM243.509 75.8237L242.405 85.7626L242.46 85.7686L242.514 85.7741L243.509 75.8237ZM186.686 75.7588V65.7588H176.686V75.7588H186.686ZM186.686 152V162H196.686V152H186.686ZM169.801 152H159.801V162H169.801V152ZM172.204 61.3418L165.133 54.2707L165.032 54.3717L164.933 54.4756L172.204 61.3418ZM251.952 60.9521L247.246 69.7757L247.303 69.8064L247.361 69.8364L251.952 60.9521ZM258.251 66.0825L250.331 72.1876L250.402 72.2795L250.475 72.3697L258.251 66.0825ZM261.758 72.7065L252.156 75.4998L252.179 75.5799L252.204 75.6596L261.758 72.7065ZM252.862 90.1758C252.862 93.2207 252.484 95.6237 251.893 97.5032L270.973 103.5C272.287 99.3181 272.862 94.8372 272.862 90.1758H252.862ZM251.893 97.5032C251.216 99.6585 250.348 101.393 249.359 102.799L265.715 114.309C268.015 111.04 269.745 107.406 270.973 103.5L251.893 97.5032ZM249.337 102.83C248.287 104.334 247.115 105.56 245.823 106.562L258.08 122.366C261.031 120.078 263.582 117.364 265.736 114.278L249.337 102.83ZM245.823 106.562C244.273 107.764 242.687 108.728 241.061 109.481L249.464 127.63C252.514 126.218 255.387 124.454 258.08 122.366L245.823 106.562ZM241.138 109.446C239.51 110.183 237.896 110.701 236.288 111.022L240.21 130.634C243.364 130.003 246.427 129.006 249.388 127.665L241.138 109.446ZM236.253 111.029C234.478 111.391 232.943 111.542 231.625 111.542V131.542C234.463 131.542 237.345 131.218 240.245 130.627L236.253 111.029ZM225.088 129.11L260.352 159.568L273.425 144.432L238.162 113.975L225.088 129.11ZM266.888 142H240.782V162H266.888V142ZM247.325 144.438L212.127 113.981L199.04 129.104L234.238 159.562L247.325 144.438ZM205.583 111.542H193.439V131.542H205.583V111.542ZM203.439 121.542V104.658H183.439V121.542H203.439ZM193.439 114.658H231.625V94.6577H193.439V114.658ZM232.439 114.625C235.418 114.381 238.339 113.755 241.119 112.644L233.691 94.0741C233.007 94.3478 232.075 94.5877 230.811 94.6909L232.439 114.625ZM241.235 112.596C244.05 111.429 246.653 109.797 248.897 107.631L235.005 93.2425C234.738 93.5005 234.309 93.8168 233.575 94.1215L241.235 112.596ZM248.774 107.747C251.155 105.525 252.965 102.865 254.19 99.881L235.686 92.2899C235.525 92.6828 235.344 92.924 235.128 93.126L248.774 107.747ZM254.223 99.7994C255.466 96.6907 255.977 93.4267 255.977 90.1758H235.977C235.977 91.3409 235.795 92.0167 235.653 92.3715L254.223 99.7994ZM255.977 90.1758V79.5254H235.977V90.1758H255.977ZM255.977 79.5254C255.977 77.9911 255.824 75.2662 254.366 72.5938L236.808 82.1708C236.287 81.2156 236.107 80.4248 236.041 80.0641C235.971 79.6817 235.977 79.4753 235.977 79.5254H255.977ZM254.818 73.5362C253.968 71.4948 252.36 69.1065 249.535 67.5367L239.822 85.0199C237.775 83.883 236.774 82.2308 236.357 81.2285L254.818 73.5362ZM250.678 68.2783C248.865 66.9184 246.743 66.0972 244.504 65.8734L242.514 85.7741C241.142 85.6369 239.799 85.1187 238.678 84.2783L250.678 68.2783ZM244.614 65.8849C243.904 65.8061 243.165 65.7588 242.405 65.7588V85.7588C242.371 85.7588 242.353 85.7577 242.354 85.7578C242.355 85.7578 242.371 85.7588 242.405 85.7626L244.614 65.8849ZM242.405 65.7588H186.686V85.7588H242.405V65.7588ZM176.686 75.7588V152H196.686V75.7588H176.686ZM186.686 142H169.801V162H186.686V142ZM179.801 152V67.3813H159.801V152H179.801ZM179.801 67.3813C179.801 67.4176 179.797 67.4947 179.776 67.6008C179.755 67.7077 179.722 67.8159 179.681 67.9155L161.219 60.2232C160.259 62.5279 159.801 64.9439 159.801 67.3813H179.801ZM179.681 67.9155C179.681 67.9154 179.677 67.9253 179.667 67.9434C179.658 67.9616 179.644 67.9862 179.625 68.0157C179.585 68.0773 179.534 68.1441 179.474 68.208L164.933 54.4756C163.325 56.1782 162.094 58.1238 161.219 60.2232L179.681 67.9155ZM179.275 68.4129C179.203 68.4848 179.115 68.5579 179.017 68.6232C178.919 68.6883 178.835 68.7303 178.777 68.7542L171.085 50.2927C168.867 51.217 166.855 52.5478 165.133 54.2707L179.275 68.4129ZM178.777 68.7542C178.655 68.8053 178.539 68.838 178.443 68.8564C178.349 68.8745 178.3 68.874 178.308 68.874V48.874C175.878 48.874 173.434 49.3139 171.085 50.2927L178.777 68.7542ZM178.308 68.874H242.405V48.874H178.308V68.874ZM242.405 68.874C244.977 68.874 246.445 69.3487 247.246 69.7757L256.658 52.1286C252.263 49.7848 247.367 48.874 242.405 48.874V68.874ZM247.361 69.8364C248.809 70.5843 249.72 71.3948 250.331 72.1876L266.171 59.9774C263.578 56.614 260.29 54.0043 256.542 52.0679L247.361 69.8364ZM250.475 72.3697C251.332 73.4304 251.854 74.4624 252.156 75.4998L271.36 69.9132C270.276 66.1883 268.46 62.8043 266.027 59.7953L250.475 72.3697ZM252.204 75.6596C252.701 77.2686 252.862 78.4947 252.862 79.3955H272.862C272.862 76.1401 272.287 72.9068 271.312 69.7535L252.204 75.6596ZM252.862 79.3955V90.1758H272.862V79.3955H252.862Z" stroke="white"/>
<path d="M182.276 139.154L191.799 142.209L191.807 142.183L191.815 142.157L182.276 139.154ZM179.354 145.259L187.546 150.993L187.579 150.946L187.612 150.898L179.354 145.259ZM175.133 149.74L181.167 157.714L181.235 157.663L181.302 157.61L175.133 149.74ZM170.067 152.727L166.047 143.571L166.006 143.589L165.964 143.608L170.067 152.727ZM164.742 154.48L166.657 164.295L166.748 164.278L166.837 164.258L164.742 154.48ZM115.322 150.974L109.452 159.07L109.566 159.152L109.682 159.232L115.322 150.974ZM110.841 146.688L102.867 152.722L102.918 152.79L102.97 152.856L110.841 146.688ZM107.854 141.687L98.6971 145.707L98.7155 145.749L98.7343 145.791L107.854 141.687ZM106.1 136.362L96.2767 138.233L96.3028 138.37L96.3327 138.506L106.1 136.362ZM107.918 97.4619L99.0775 92.7888L99.065 92.8125L99.0526 92.8363L107.918 97.4619ZM113.828 90.1235L120.057 97.9463L120.066 97.9393L120.075 97.9322L113.828 90.1235ZM159.677 84.7983H169.677V74.7983H159.677V84.7983ZM159.677 101.683V111.683H169.677V101.683H159.677ZM124.219 103.437L131.155 110.64L131.223 110.574L131.29 110.508L124.219 103.437ZM124.154 136.362L116.951 143.298L117.016 143.366L117.083 143.433L124.154 136.362ZM164.807 136.362L172.01 143.298L164.807 136.362ZM166.496 55.1201V45.1201H156.496V55.1201H166.496ZM183.38 55.1201H193.38V45.1201H183.38V55.1201ZM173.38 131.296C173.38 133.36 173.118 134.944 172.738 136.151L191.815 142.157C192.907 138.688 193.38 135.034 193.38 131.296H173.38ZM172.754 136.1C172.278 137.586 171.703 138.73 171.096 139.619L187.612 150.898C189.429 148.237 190.803 145.312 191.799 142.209L172.754 136.1ZM171.162 139.524C170.493 140.479 169.76 141.245 168.964 141.869L181.302 157.61C183.709 155.723 185.791 153.502 187.546 150.993L171.162 139.524ZM169.098 141.766C168.097 142.524 167.082 143.117 166.047 143.571L174.087 161.883C176.603 160.779 178.965 159.38 181.167 157.714L169.098 141.766ZM165.964 143.608C164.863 144.103 163.76 144.464 162.647 144.702L166.837 164.258C169.361 163.718 171.809 162.909 174.171 161.846L165.964 143.608ZM162.827 144.666C161.604 144.904 160.56 145 159.677 145V165C161.998 165 164.331 164.749 166.657 164.295L162.827 144.666ZM159.677 145H129.219V165H159.677V145ZM129.219 145C127.151 145 125.611 144.736 124.481 144.374L118.372 163.418C121.831 164.528 125.486 165 129.219 165V145ZM124.481 144.374C122.995 143.897 121.85 143.323 120.961 142.716L109.682 159.232C112.343 161.049 115.269 162.423 118.372 163.418L124.481 144.374ZM121.191 142.878C120.175 142.14 119.364 141.352 118.711 140.519L102.97 152.856C104.828 155.227 107.005 157.296 109.452 159.07L121.191 142.878ZM118.815 140.653C118.03 139.615 117.427 138.592 116.973 137.583L98.7343 145.791C99.8389 148.245 101.228 150.556 102.867 152.722L118.815 140.653ZM117.01 137.667C116.478 136.456 116.107 135.308 115.868 134.218L96.3327 138.506C96.8727 140.966 97.6703 143.368 98.6971 145.707L117.01 137.667ZM115.923 134.491C115.673 133.178 115.581 132.123 115.581 131.296H95.5806C95.5806 133.587 95.834 135.909 96.2767 138.233L115.923 134.491ZM115.581 131.296V108.437H95.5806V131.296H115.581ZM115.581 108.437C115.581 105.273 116.153 103.298 116.784 102.088L99.0526 92.8363C96.567 97.6004 95.5806 102.943 95.5806 108.437H115.581ZM116.759 102.135C117.811 100.145 118.945 98.832 120.057 97.9463L107.599 82.3007C104.035 85.1383 101.229 88.7178 99.0775 92.7888L116.759 102.135ZM120.075 97.9322C121.504 96.7889 122.936 96.0538 124.402 95.6187L118.71 76.4458C114.634 77.6558 110.914 79.6483 107.581 82.3148L120.075 97.9322ZM124.402 95.6187C126.458 95.0084 128.041 94.7983 129.219 94.7983V74.7983C125.722 74.7983 122.196 75.4109 118.71 76.4458L124.402 95.6187ZM129.219 94.7983H159.677V74.7983H129.219V94.7983ZM149.677 84.7983V101.683H169.677V84.7983H149.677ZM159.677 91.6831H129.349V111.683H159.677V91.6831ZM129.349 91.6831C125.43 91.6831 120.789 92.7243 117.148 96.3655L131.29 110.508C130.697 111.101 130.065 111.429 129.612 111.584C129.206 111.723 129.065 111.683 129.349 111.683V91.6831ZM117.282 96.2333C113.531 99.8459 112.465 104.522 112.465 108.437H132.465C132.465 108.19 132.501 108.382 132.34 108.84C132.162 109.349 131.794 110.024 131.155 110.64L117.282 96.2333ZM112.465 108.437V131.167H132.465V108.437H112.465ZM112.465 131.167C112.465 134.971 113.402 139.613 116.951 143.298L131.357 129.425C131.966 130.058 132.269 130.698 132.398 131.095C132.512 131.448 132.465 131.524 132.465 131.167H112.465ZM117.083 143.433C120.69 147.04 125.278 148.115 129.219 148.115V128.115C128.976 128.115 129.145 128.081 129.568 128.227C130.036 128.389 130.654 128.72 131.225 129.291L117.083 143.433ZM129.219 148.115H159.677V128.115H129.219V148.115ZM159.677 148.115C163.545 148.115 168.331 147.119 172.01 143.298L157.604 129.425C158.265 128.739 158.97 128.377 159.446 128.214C159.87 128.07 160.006 128.115 159.677 128.115V148.115ZM172.01 143.298C175.497 139.678 176.496 135.14 176.496 131.296H156.496C156.496 131.574 156.458 131.443 156.587 131.056C156.73 130.627 157.037 130.014 157.604 129.425L172.01 143.298ZM176.496 131.296V55.1201H156.496V131.296H176.496ZM166.496 65.1201H183.38V45.1201H166.496V65.1201ZM173.38 55.1201V131.296H193.38V55.1201H173.38Z" stroke="white" stroke-width="10px"/>
</svg>
