<svg width="214" height="127" viewBox="0 0 214 127" fill="none" xmlns="http://www.w3.org/2000/svg">
<path d="M60.0703 77.9766L55.4574 76.0475L55.4499 76.0654L55.4426 76.0834L60.0703 77.9766ZM55.1875 85.3984L58.7007 88.9561L58.7119 88.9451L58.723 88.934L55.1875 85.3984ZM8.97656 91.6094L7.05349 96.2248L8.97656 91.6094ZM7.33594 90.5547L3.70087 93.9878L3.79896 94.0917L3.90282 94.1898L7.33594 90.5547ZM7.33594 37.4688L3.8004 33.9332L3.74991 33.9837L3.70087 34.0356L7.33594 37.4688ZM55.1875 42.625L51.652 46.1605L51.6631 46.1716L51.6743 46.1827L55.1875 42.625ZM60.0703 50.0469L55.4366 51.9254L55.4469 51.9507L55.4574 51.9759L60.0703 50.0469ZM50.7344 53.9922L46.0619 55.7722L46.0742 55.8044L46.0869 55.8364L50.7344 53.9922ZM48.0391 49.8125L44.5035 53.348L44.5234 53.3679L44.5435 53.3875L48.0391 49.8125ZM43.8203 47.1172L41.9505 51.7544L41.9952 51.7724L42.0403 51.7896L43.8203 47.1172ZM16.0469 46.1406V41.1406H11.0469V46.1406H16.0469ZM16.0469 81.8438H11.0469V86.8438H16.0469V81.8438ZM43.8203 80.9062L45.6253 85.5691L45.6449 85.5615L45.6645 85.5537L43.8203 80.9062ZM48.0391 78.2109L51.5346 81.786L51.5547 81.7663L51.5746 81.7465L48.0391 78.2109ZM50.7344 74.0312L46.0869 72.187L46.0791 72.2066L46.0715 72.2263L50.7344 74.0312ZM56.8672 68.5625C56.8672 71.3773 56.3756 73.8518 55.4574 76.0475L64.6832 79.9056C66.1608 76.3722 66.8672 72.5706 66.8672 68.5625H56.8672ZM55.4426 76.0834C54.5092 78.365 53.2423 80.2726 51.652 81.8629L58.723 88.934C61.2994 86.3576 63.2877 83.3173 64.698 79.8697L55.4426 76.0834ZM51.6743 81.8407C50.082 83.4131 48.1673 84.6757 45.8725 85.6145L49.6588 94.8699C53.0931 93.465 56.1263 91.4984 58.7007 88.9561L51.6743 81.8407ZM45.8725 85.6145C43.6584 86.5202 41.1957 87 38.4297 87V97C42.3825 97 46.1437 96.3079 49.6588 94.8699L45.8725 85.6145ZM38.4297 87H11.0078V97H38.4297V87ZM11.0078 87C10.942 87 10.9074 86.9942 10.8974 86.9923C10.8881 86.9905 10.891 86.9904 10.8996 86.994L7.05349 96.2248C8.33346 96.7581 9.66981 97 11.0078 97V87ZM10.8996 86.994C10.8048 86.9545 10.7761 86.9263 10.7691 86.9196L3.90282 94.1898C4.83324 95.0685 5.89831 95.7434 7.05349 96.2248L10.8996 86.994ZM10.971 87.1216C10.9643 87.1145 10.9361 87.0858 10.8966 86.991L1.66587 90.8371C2.14719 91.9923 2.82214 93.0574 3.70087 93.9878L10.971 87.1216ZM10.8966 86.991C10.9002 86.9996 10.9001 87.0025 10.8983 86.9933C10.8964 86.9832 10.8906 86.9486 10.8906 86.8828H0.890625C0.890625 88.2208 1.13254 89.5572 1.66587 90.8371L10.8966 86.991ZM10.8906 86.8828V41.1016H0.890625V86.8828H10.8906ZM10.8906 41.1016C10.8906 41.0604 10.8943 41.0413 10.8948 41.0382C10.8954 41.0357 10.8954 41.0354 10.8966 41.0325L1.66587 37.1863C1.14178 38.4441 0.890625 39.7642 0.890625 41.1016H10.8906ZM10.8966 41.0325C10.9361 40.9376 10.9643 40.909 10.971 40.9019L3.70087 34.0356C2.82214 34.966 2.14719 36.0311 1.66587 37.1863L10.8966 41.0325ZM10.8715 41.0043C10.8739 41.0019 10.8746 41.0014 10.8737 41.0021C10.8729 41.0028 10.8718 41.0035 10.8712 41.004C10.8705 41.0044 10.8716 41.0036 10.8754 41.0016C10.8792 40.9996 10.887 40.9957 10.8996 40.9904L7.05349 31.7596C5.83883 32.2657 4.74096 32.9927 3.8004 33.9332L10.8715 41.0043ZM10.8996 40.9904C10.891 40.994 10.8881 40.9938 10.8974 40.9921C10.9074 40.9901 10.942 40.9844 11.0078 40.9844V30.9844C9.66981 30.9844 8.33346 31.2263 7.05349 31.7596L10.8996 40.9904ZM11.0078 40.9844H38.4297V30.9844H11.0078V40.9844ZM38.4297 40.9844C41.1957 40.9844 43.6584 41.4642 45.8725 42.3699L49.6588 33.1145C46.1437 31.6765 42.3825 30.9844 38.4297 30.9844V40.9844ZM45.8725 42.3699C48.1541 43.3033 50.0617 44.5702 51.652 46.1605L58.723 39.0895C56.1467 36.5131 53.1064 34.5248 49.6588 33.1145L45.8725 42.3699ZM51.6743 46.1827C53.2428 47.7316 54.5033 49.6231 55.4366 51.9254L64.704 48.1684C63.2936 44.6894 61.2989 41.633 58.7007 39.0673L51.6743 46.1827ZM55.4574 51.9759C56.3776 54.1762 56.8672 56.6385 56.8672 59.4219H66.8672C66.8672 55.4344 66.1589 51.6467 64.6832 48.1178L55.4574 51.9759ZM56.8672 59.4219V68.5625H66.8672V59.4219H56.8672ZM56.7109 59.4219C56.7109 56.8875 56.2924 54.4425 55.3818 52.148L46.0869 55.8364C46.4785 56.8231 46.7109 57.9979 46.7109 59.4219H56.7109ZM55.4068 52.2122C54.5428 49.9441 53.2604 47.9248 51.5346 46.2375L44.5435 53.3875C45.1615 53.9918 45.676 54.759 46.0619 55.7722L55.4068 52.2122ZM51.5746 46.277C49.8749 44.5773 47.8599 43.3055 45.6003 42.4447L42.0403 51.7896C43.062 52.1788 43.8594 52.7039 44.5035 53.348L51.5746 46.277ZM45.6902 42.48C43.4055 41.5588 40.9625 41.1406 38.4297 41.1406V51.1406C39.8552 51.1406 41.0059 51.3735 41.9505 51.7544L45.6902 42.48ZM38.4297 41.1406H16.0469V51.1406H38.4297V41.1406ZM11.0469 46.1406V81.8438H21.0469V46.1406H11.0469ZM16.0469 86.8438H38.4297V76.8438H16.0469V86.8438ZM38.4297 86.8438C40.9387 86.8438 43.3587 86.4465 45.6253 85.5691L42.0153 76.2434C41.0527 76.616 39.879 76.8438 38.4297 76.8438V86.8438ZM45.6645 85.5537C47.8734 84.6772 49.8533 83.4299 51.5346 81.786L44.5435 74.6359C43.881 75.2836 43.0485 75.8332 41.9761 76.2588L45.6645 85.5537ZM51.5746 81.7465C53.2606 80.0605 54.5325 78.0702 55.3972 75.8362L46.0715 72.2263C45.6863 73.2215 45.1613 74.0176 44.5035 74.6754L51.5746 81.7465ZM55.3818 75.8755C56.2953 73.5735 56.7109 71.1139 56.7109 68.5625H46.7109C46.7109 70.0215 46.4755 71.2077 46.0869 72.187L55.3818 75.8755ZM56.7109 68.5625V59.4219H46.7109V68.5625H56.7109Z" fill="white"/>
<path d="M73.1094 87.9375L69.5738 84.402L69.5556 84.4202L69.5376 84.4386L73.1094 87.9375ZM68.6172 90.9453L70.4861 95.5829L70.5157 95.571L70.5452 95.5587L68.6172 90.9453ZM25.6875 92H20.6875V97H25.6875V92ZM25.6875 81.8438V76.8438H20.6875V81.8438H25.6875ZM65.8438 80.7891L69.3793 84.3246L69.4114 84.2925L69.443 84.2597L65.8438 80.7891ZM66.8984 35.9844V30.9844H61.8984V35.9844H66.8984ZM77.1328 35.9844H82.1328V30.9844H77.1328V35.9844ZM72.1328 77.7422C72.1328 79.1845 71.8858 80.4325 71.4405 81.5374L80.7157 85.2751C81.6767 82.8904 82.1328 80.3624 82.1328 77.7422H72.1328ZM71.4405 81.5374C70.978 82.6851 70.354 83.6218 69.5738 84.402L76.6449 91.473C78.4169 89.7011 79.772 87.617 80.7157 85.2751L71.4405 81.5374ZM69.5376 84.4386C68.7826 85.2093 67.8538 85.8453 66.6892 86.332L70.5452 95.5587C72.8702 94.587 74.9362 93.2178 76.6812 91.4364L69.5376 84.4386ZM66.7483 86.3077C65.6509 86.7499 64.3911 87 62.9141 87V97C65.5516 97 68.0939 96.5469 70.4861 95.5829L66.7483 86.3077ZM62.9141 87H25.6875V97H62.9141V87ZM30.6875 92V81.8438H20.6875V92H30.6875ZM25.6875 86.8438H62.9141V76.8438H25.6875V86.8438ZM62.9141 86.8438C65.1307 86.8438 67.5117 86.1922 69.3793 84.3246L62.3082 77.2535C62.5 77.0617 62.7173 76.938 62.8904 76.8756C63.0436 76.8205 63.0762 76.8438 62.9141 76.8438V86.8438ZM69.443 84.2597C71.2803 82.3544 71.8984 79.9544 71.8984 77.7422H61.8984C61.8984 77.9505 61.8696 77.961 61.9098 77.8449C61.9306 77.785 61.9668 77.7001 62.0262 77.6019C62.086 77.5029 62.1598 77.4062 62.2445 77.3184L69.443 84.2597ZM71.8984 77.7422V35.9844H61.8984V77.7422H71.8984ZM66.8984 40.9844H77.1328V30.9844H66.8984V40.9844ZM72.1328 35.9844V77.7422H82.1328V35.9844H72.1328Z" fill="#0080DC"/>
<path d="M112.922 82.4688L117.683 83.9959L117.687 83.983L117.691 83.9702L112.922 82.4688ZM111.164 86.1406L115.26 89.0079L115.277 88.9843L115.293 88.9604L111.164 86.1406ZM108.625 88.8359L111.642 92.823L111.676 92.7974L111.709 92.7712L108.625 88.8359ZM105.578 90.6328L103.568 86.0546L103.547 86.0638L103.526 86.0732L105.578 90.6328ZM102.375 91.6875L103.333 96.595L103.378 96.5861L103.423 96.5765L102.375 91.6875ZM72.6484 89.5781L69.7136 93.6262L69.7705 93.6675L69.8286 93.7071L72.6484 89.5781ZM69.9531 87L65.9661 90.0172L65.9917 90.051L66.0178 90.0844L69.9531 87ZM68.1562 83.9922L63.578 86.0021L63.5872 86.0231L63.5966 86.044L68.1562 83.9922ZM67.1016 80.7891L62.1899 81.7246L62.2029 81.7931L62.2178 81.8611L67.1016 80.7891ZM68.1953 57.3906L63.7748 55.0541L63.7686 55.0659L63.7624 55.0778L68.1953 57.3906ZM71.75 52.9766L74.8646 56.888L74.8735 56.8809L71.75 52.9766ZM99.3281 49.7734H104.328V44.7734H99.3281V49.7734ZM99.3281 59.9297V64.9297H104.328V59.9297H99.3281ZM78 60.9844L81.4682 64.586L81.5022 64.5533L81.5355 64.5199L78 60.9844ZM77.9609 80.7891L74.3593 84.2573L74.3921 84.2912L74.4254 84.3246L77.9609 80.7891ZM102.414 80.7891L106.016 84.2573L102.414 80.7891ZM103.43 31.9219V26.9219H98.4297V31.9219H103.43ZM113.586 31.9219H118.586V26.9219H113.586V31.9219ZM108.586 77.7422C108.586 79.0684 108.417 80.1265 108.153 80.9673L117.691 83.9702C118.312 81.9985 118.586 79.9055 118.586 77.7422H108.586ZM108.161 80.9416C107.848 81.9175 107.462 82.6961 107.035 83.3208L115.293 88.9604C116.325 87.4497 117.111 85.7804 117.683 83.9959L108.161 80.9416ZM107.068 83.2733C106.61 83.9268 106.101 84.4612 105.541 84.9007L111.709 92.7712C113.076 91.7002 114.259 90.4378 115.26 89.0079L107.068 83.2733ZM105.608 84.8489C104.944 85.3509 104.265 85.7485 103.568 86.0546L107.588 95.211C109.026 94.5796 110.378 93.7793 111.642 92.823L105.608 84.8489ZM103.526 86.0732C102.8 86.4001 102.068 86.6397 101.327 86.7985L103.423 96.5765C104.869 96.2666 106.273 95.8031 107.63 95.1924L103.526 86.0732ZM101.417 86.78C100.626 86.9346 99.9322 87 99.3281 87V97C100.651 97 101.989 96.8571 103.333 96.595L101.417 86.78ZM99.3281 87H81.0078V97H99.3281V87ZM81.0078 87C79.6793 87 78.6454 86.8308 77.8475 86.5749L74.7932 96.097C76.7556 96.7265 78.8468 97 81.0078 97V87ZM77.8475 86.5749C76.8716 86.2618 76.0929 85.8757 75.4682 85.4491L69.8286 93.7071C71.3394 94.7388 73.0086 95.5246 74.7932 96.097L77.8475 86.5749ZM75.5833 85.5301C74.8991 85.034 74.3423 84.4947 73.8884 83.9156L66.0178 90.0844C67.0744 91.4324 68.3145 92.6118 69.7136 93.6262L75.5833 85.5301ZM73.9402 83.9828C73.4244 83.3013 73.022 82.6206 72.7159 81.9404L63.5966 86.044C64.228 87.4471 65.0235 88.7716 65.9661 90.0172L73.9402 83.9828ZM72.7345 81.9822C72.3895 81.1964 72.1445 80.4422 71.9853 79.717L62.2178 81.8611C62.5274 83.2714 62.9855 84.6526 63.578 86.0021L72.7345 81.9822ZM72.0133 79.8535C71.8531 79.0126 71.7891 78.3139 71.7891 77.7422H61.7891C61.7891 79.0455 61.9334 80.378 62.1899 81.7246L72.0133 79.8535ZM71.7891 77.7422V63.9922H61.7891V77.7422H71.7891ZM71.7891 63.9922C71.7891 61.9706 72.1542 60.6119 72.6282 59.7035L63.7624 55.0778C62.3614 57.7631 61.7891 60.8055 61.7891 63.9922H71.7891ZM72.6158 59.7272C73.3043 58.4245 74.0712 57.5198 74.8646 56.888L68.6354 49.0652C66.6163 50.6729 65.0134 52.7109 63.7748 55.0541L72.6158 59.7272ZM74.8735 56.8809C75.8298 56.1159 76.8073 55.6099 77.8214 55.3089L74.9754 45.7224C72.6562 46.4109 70.5348 47.5456 68.6265 49.0722L74.8735 56.8809ZM77.8214 55.3089C79.1306 54.9202 80.1813 54.7734 81.0078 54.7734V44.7734C79.0218 44.7734 76.9996 45.1215 74.9754 45.7224L77.8214 55.3089ZM81.0078 54.7734H99.3281V44.7734H81.0078V54.7734ZM94.3281 49.7734V59.9297H104.328V49.7734H94.3281ZM99.3281 54.9297H81.0859V64.9297H99.3281V54.9297ZM81.0859 54.9297C78.8976 54.9297 76.4037 55.5096 74.4645 57.4488L81.5355 64.5199C81.4246 64.6309 81.3057 64.7223 81.1891 64.7933C81.074 64.8635 80.9778 64.9035 80.9159 64.9247C80.7997 64.9643 80.8294 64.9297 81.0859 64.9297V54.9297ZM74.5318 57.3828C72.5374 59.3033 71.9453 61.8108 71.9453 63.9922H81.9453C81.9453 63.7565 81.978 63.7542 81.9273 63.8986C81.8677 64.0687 81.7285 64.3353 81.4682 64.586L74.5318 57.3828ZM71.9453 63.9922V77.6641H81.9453V63.9922H71.9453ZM71.9453 77.6641C71.9453 79.7994 72.4706 82.2959 74.3593 84.2573L81.5625 77.3209C81.6797 77.4425 81.7707 77.5676 81.8378 77.6829C81.904 77.7965 81.9385 77.886 81.9544 77.935C81.9832 78.0236 81.9453 77.9595 81.9453 77.6641H71.9453ZM74.4254 84.3246C76.3476 86.2468 78.8132 86.8438 81.0078 86.8438V76.8438C80.7743 76.8438 80.76 76.8117 80.8856 76.8551C80.9516 76.878 81.0485 76.9192 81.162 76.9889C81.2766 77.0592 81.3911 77.1481 81.4965 77.2535L74.4254 84.3246ZM81.0078 86.8438H99.3281V76.8438H81.0078V86.8438ZM99.3281 86.8438C101.495 86.8438 104.062 86.2863 106.016 84.2573L98.8125 77.3209C99.0858 77.037 99.3662 76.9006 99.5177 76.8488C99.6427 76.8061 99.6094 76.8438 99.3281 76.8438V86.8438ZM106.016 84.2573C107.873 82.3284 108.43 79.8881 108.43 77.7422H98.4297C98.4297 77.9928 98.3965 78.0265 98.4324 77.9189C98.4515 77.8614 98.4884 77.7702 98.5538 77.6595C98.62 77.5475 98.7062 77.4312 98.8125 77.3209L106.016 84.2573ZM108.43 77.7422V31.9219H98.4297V77.7422H108.43ZM103.43 36.9219H113.586V26.9219H103.43V36.9219ZM108.586 31.9219V77.7422H118.586V31.9219H108.586Z" fill="white"/>
<path d="M156.586 65.8672L152.497 62.9897L152.492 62.9974L152.486 63.0051L156.586 65.8672ZM149.203 71.8828L151.266 76.4376L151.285 76.4289L151.304 76.4202L149.203 71.8828ZM144.984 73.25L144.004 68.3471L143.995 68.3488L143.986 68.3506L144.984 73.25ZM141 73.6797V68.6797H127.562L137.732 77.4636L141 73.6797ZM162.211 92V97H175.649L165.479 88.216L162.211 92ZM146.508 92L143.236 95.781L144.645 97H146.508V92ZM125.336 73.6797L128.608 69.8987L127.199 68.6797H125.336V73.6797ZM118.031 73.6797H113.031V78.6797H118.031V73.6797ZM118.031 63.5234V58.5234H113.031V63.5234H118.031ZM141 63.5234V68.5234H141.204L141.407 68.5069L141 63.5234ZM144.477 62.7422L146.334 67.3846L146.363 67.3729L146.392 67.3609L144.477 62.7422ZM147.211 60.9844L143.799 57.3291L143.768 57.358L143.738 57.3874L147.211 60.9844ZM149.008 58.3672L153.634 60.265L153.642 60.2446L153.65 60.2241L149.008 58.3672ZM149.398 47.1172L144.783 49.0403L144.884 49.2818L145.009 49.5114L149.398 47.1172ZM148.852 46.4531L145.852 50.4531L146.125 50.658L146.423 50.8239L148.852 46.4531ZM148.148 46.1797L147.596 51.1491L147.624 51.1521L147.651 51.1549L148.148 46.1797ZM113.969 46.1406V41.1406H108.969V46.1406H113.969ZM113.969 92V97H118.969V92H113.969ZM103.812 92H98.8125V97H103.812V92ZM105.258 37.4688L101.722 33.9332L101.672 33.9837L101.623 34.0356L105.258 37.4688ZM153.227 37.2344L150.874 41.6461L150.902 41.6615L150.931 41.6765L153.227 37.2344ZM157.016 40.3203L153.056 43.3729L153.091 43.4188L153.127 43.4639L157.016 40.3203ZM159.125 44.3047L154.324 45.7013L154.336 45.7414L154.348 45.7812L159.125 44.3047ZM154.789 54.8125C154.789 56.7261 154.552 58.2769 154.16 59.5243L163.7 62.5226C164.453 60.1241 164.789 57.5343 164.789 54.8125H154.789ZM154.16 59.5243C153.724 60.9096 153.159 62.0491 152.497 62.9897L160.675 68.7447C161.992 66.8728 162.989 64.7831 163.7 62.5226L154.16 59.5243ZM152.486 63.0051C151.799 63.9898 151.024 64.8028 150.162 65.4708L156.291 73.373C157.981 72.0617 159.446 70.505 160.686 68.7293L152.486 63.0051ZM150.162 65.4708C149.172 66.2389 148.152 66.8594 147.103 67.3455L151.304 76.4202C153.066 75.6041 154.729 74.584 156.291 73.373L150.162 65.4708ZM147.141 67.328C146.094 67.8021 145.05 68.1379 144.004 68.3471L145.965 78.1529C147.784 77.7892 149.552 77.2135 151.266 76.4376L147.141 67.328ZM143.986 68.3506C142.861 68.5798 141.87 68.6797 141 68.6797V78.6797C142.63 78.6797 144.295 78.4931 145.982 78.1494L143.986 68.3506ZM137.732 77.4636L158.943 95.784L165.479 88.216L144.268 69.8957L137.732 77.4636ZM162.211 87H146.508V97H162.211V87ZM149.78 88.219L128.608 69.8987L122.064 77.4607L143.236 95.781L149.78 88.219ZM125.336 68.6797H118.031V78.6797H125.336V68.6797ZM123.031 73.6797V63.5234H113.031V73.6797H123.031ZM118.031 68.5234H141V58.5234H118.031V68.5234ZM141.407 68.5069C143.112 68.3677 144.768 68.0107 146.334 67.3846L142.62 58.0998C142.102 58.307 141.44 58.4708 140.593 58.54L141.407 68.5069ZM146.392 67.3609C147.98 66.7025 149.435 65.7877 150.684 64.5814L143.738 57.3874C143.477 57.6394 143.109 57.8965 142.561 58.1235L146.392 67.3609ZM150.623 64.6396C151.945 63.4054 152.951 61.9284 153.634 60.265L144.382 56.4694C144.231 56.8372 144.039 57.105 143.799 57.3291L150.623 64.6396ZM153.65 60.2241C154.342 58.494 154.633 56.6621 154.633 54.8125H144.633C144.633 55.6192 144.507 56.157 144.365 56.5102L153.65 60.2241ZM154.633 54.8125V48.4062H144.633V54.8125H154.633ZM154.633 48.4062C154.633 47.5424 154.543 46.1075 153.788 44.7229L145.009 49.5114C144.762 49.058 144.681 48.6928 144.655 48.5487C144.627 48.3938 144.633 48.3329 144.633 48.4062H154.633ZM154.014 45.1941C153.567 44.1207 152.732 42.8892 151.28 42.0823L146.423 50.8239C145.44 50.2775 144.97 49.4887 144.783 49.0403L154.014 45.1941ZM151.852 42.4531C150.91 41.7468 149.809 41.3208 148.646 41.2045L147.651 51.1549C147.009 51.0906 146.377 50.847 145.852 50.4531L151.852 42.4531ZM148.701 41.2103C148.306 41.1665 147.899 41.1406 147.484 41.1406V51.1406C147.486 51.1406 147.522 51.1408 147.596 51.1491L148.701 41.2103ZM147.484 41.1406H113.969V51.1406H147.484V41.1406ZM108.969 46.1406V92H118.969V46.1406H108.969ZM113.969 87H103.812V97H113.969V87ZM108.812 92V41.1016H98.8125V92H108.812ZM108.812 41.1016C108.812 41.0604 108.816 41.0413 108.817 41.0382C108.817 41.0357 108.817 41.0354 108.819 41.0325L99.5877 37.1863C99.0637 38.4441 98.8125 39.7642 98.8125 41.1016H108.812ZM108.819 41.0325C108.858 40.9376 108.886 40.909 108.893 40.9019L101.623 34.0356C100.744 34.966 100.069 36.0311 99.5877 37.1863L108.819 41.0325ZM108.793 41.0043C108.796 41.0019 108.796 41.0014 108.796 41.0021C108.795 41.0028 108.794 41.0035 108.793 41.004C108.792 41.0044 108.794 41.0036 108.797 41.0016C108.801 40.9996 108.809 40.9957 108.822 40.9904L104.975 31.7596C103.761 32.2657 102.663 32.9927 101.722 33.9332L108.793 41.0043ZM108.822 40.9904C108.813 40.994 108.81 40.9938 108.819 40.9921C108.829 40.9901 108.864 40.9844 108.93 40.9844V30.9844C107.592 30.9844 106.255 31.2263 104.975 31.7596L108.822 40.9904ZM108.93 40.9844H147.484V30.9844H108.93V40.9844ZM147.484 40.9844C149.153 40.9844 150.21 41.292 150.874 41.6461L155.58 32.8226C153.119 31.5101 150.347 30.9844 147.484 30.9844V40.9844ZM150.931 41.6765C151.919 42.1867 152.587 42.7655 153.056 43.3729L160.976 37.2678C159.517 35.3751 157.659 33.8967 155.522 32.7922L150.931 41.6765ZM153.127 43.4639C153.723 44.2008 154.103 44.9409 154.324 45.7013L163.926 42.908C163.314 40.8039 162.287 38.8877 160.904 37.1767L153.127 43.4639ZM154.348 45.7812C154.671 46.8274 154.789 47.6668 154.789 48.3281H164.789C164.789 46.4895 164.464 44.6465 163.902 42.8282L154.348 45.7812ZM154.789 48.3281V54.8125H164.789V48.3281H154.789Z" fill="white"/>
</svg>
