<svg width="888" height="492" viewBox="0 0 888 492" fill="none" xmlns="http://www.w3.org/2000/svg">
<path d="M732.543 260.5H694.043C688.376 260.5 683.876 258.333 680.543 254C677.543 249.333 676.043 243.167 676.043 235.5C676.043 218.5 683.043 210 697.043 210H755.543C767.876 210 776.543 206.5 781.543 199.5C786.543 192.5 789.043 184.833 789.043 176.5V112C789.043 103.667 786.543 96 781.543 89C776.543 82 767.876 78.5 755.543 78.5H650.043V404.5C650.043 420.5 640.21 428.5 620.543 428.5C600.876 428.5 591.043 420.5 591.043 404.5V58C591.043 46 594.043 38 600.043 34C606.376 30 613.876 28 622.543 28H768.043C776.71 28 785.71 29.8333 795.043 33.5C804.376 37.1667 813.376 41.8333 822.043 47.5H821.543C830.21 53.8333 836.876 62.1666 841.543 72.5C846.21 82.5 848.543 94.1667 848.543 107.5V180.5C848.543 207.5 839.543 227.667 821.543 241C817.876 243.667 813.876 246.167 809.543 248.5C805.543 250.833 801.376 253.167 797.043 255.5L877.043 387.5C878.043 389.167 879.043 391.333 880.043 394C881.043 396.667 881.543 398.833 881.543 400.5C881.543 408.5 875.876 416.167 864.543 423.5V423C856.876 427.667 850.376 430 845.043 430C837.376 430 831.21 426.167 826.543 418.5L827.043 419L732.543 260.5Z" fill="#0080DC"/>
<path d="M732.543 260.5L748.004 251.282L742.768 242.5H732.543V260.5ZM680.543 254L665.402 263.734L665.813 264.373L666.276 264.975L680.543 254ZM781.543 199.5L796.19 209.962L796.19 209.962L781.543 199.5ZM781.543 89L796.19 78.5377L796.19 78.5377L781.543 89ZM650.043 78.5V60.5H632.043V78.5H650.043ZM600.043 34L590.431 18.7812L590.243 18.8998L590.058 19.0231L600.043 34ZM795.043 33.5L801.625 16.7465L801.625 16.7464L795.043 33.5ZM822.043 47.5V65.5H882.464L831.893 32.4345L822.043 47.5ZM821.543 47.5V29.5H766.404L810.923 62.033L821.543 47.5ZM841.543 72.5L825.138 79.9085L825.184 80.0105L825.232 80.1119L841.543 72.5ZM821.543 241L832.13 255.557L832.194 255.511L832.257 255.464L821.543 241ZM809.543 248.5L801.009 232.652L800.739 232.797L800.473 232.952L809.543 248.5ZM797.043 255.5L788.509 239.652L771.832 248.631L781.649 264.829L797.043 255.5ZM877.043 387.5L892.478 378.239L892.457 378.205L892.437 378.171L877.043 387.5ZM880.043 394L896.897 387.68L896.897 387.68L880.043 394ZM864.543 423.5H846.543V456.587L874.322 438.612L864.543 423.5ZM864.543 423H882.543V390.971L855.184 407.624L864.543 423ZM826.543 418.5L839.271 405.772L811.167 427.859L826.543 418.5ZM827.043 419L814.315 431.728L842.504 409.782L827.043 419ZM732.543 242.5H694.043V278.5H732.543V242.5ZM694.043 242.5C693.775 242.5 693.696 242.475 693.764 242.489C693.838 242.505 694.008 242.552 694.227 242.657C694.447 242.763 694.629 242.886 694.756 242.992C694.878 243.093 694.889 243.127 694.81 243.025L666.276 264.975C673.159 273.923 683.026 278.5 694.043 278.5V242.5ZM695.684 244.266C695.136 243.414 694.043 240.986 694.043 235.5H658.043C658.043 245.347 659.95 255.253 665.402 263.734L695.684 244.266ZM694.043 235.5C694.043 229.017 695.449 227.5 695.188 227.818C695.116 227.905 694.998 228.023 694.846 228.134C694.696 228.243 694.598 228.283 694.609 228.279C694.647 228.263 695.329 228 697.043 228V192C686.248 192 675.211 195.446 667.398 204.932C660.137 213.75 658.043 224.983 658.043 235.5H694.043ZM697.043 228H755.543V192H697.043V228ZM755.543 228C771.005 228 786.506 223.52 796.19 209.962L766.896 189.038C766.58 189.48 764.747 192 755.543 192V228ZM796.19 209.962C803.296 200.015 807.043 188.712 807.043 176.5H771.043C771.043 180.954 769.79 184.985 766.896 189.038L796.19 209.962ZM807.043 176.5V112H771.043V176.5H807.043ZM807.043 112C807.043 99.7878 803.296 88.4853 796.19 78.5377L766.896 99.4622C769.79 103.515 771.043 107.546 771.043 112H807.043ZM796.19 78.5377C786.506 64.9798 771.005 60.5 755.543 60.5V96.5C764.747 96.5 766.58 99.0202 766.896 99.4623L796.19 78.5377ZM755.543 60.5H650.043V96.5H755.543V60.5ZM632.043 78.5V404.5H668.043V78.5H632.043ZM632.043 404.5C632.043 406.69 631.704 407.783 631.543 408.176C631.428 408.458 631.377 408.481 631.308 408.537C630.952 408.828 628.399 410.5 620.543 410.5V446.5C632.353 446.5 644.551 444.172 654.028 436.463C664.215 428.175 668.043 416.369 668.043 404.5H632.043ZM620.543 410.5C612.687 410.5 610.134 408.828 609.778 408.537C609.709 408.481 609.658 408.458 609.543 408.176C609.382 407.783 609.043 406.69 609.043 404.5H573.043C573.043 416.369 576.871 428.175 587.058 436.463C596.535 444.172 608.733 446.5 620.543 446.5V410.5ZM609.043 404.5V58H573.043V404.5H609.043ZM609.043 58C609.043 53.3521 609.644 50.6614 610.147 49.3202C610.573 48.1833 610.717 48.5175 610.028 48.9769L590.058 19.0231C576.427 28.1104 573.043 44.0279 573.043 58H609.043ZM609.655 49.2188C612.683 47.3063 616.734 46 622.543 46V9.99999C611.019 9.99999 600.07 12.6936 590.431 18.7812L609.655 49.2188ZM622.543 46H768.043V9.99999H622.543V46ZM768.043 46C774.133 46 780.9 47.2829 788.461 50.2535L801.625 16.7464C790.52 12.3837 779.287 9.99999 768.043 9.99999V46ZM788.461 50.2535C796.613 53.4562 804.521 57.5497 812.193 62.5654L831.893 32.4345C822.231 26.1169 812.139 20.8771 801.625 16.7465L788.461 50.2535ZM822.043 29.5H821.543V65.5H822.043V29.5ZM810.923 62.033C816.935 66.427 821.677 72.2445 825.138 79.9085L857.948 65.0914C852.076 52.0888 843.484 41.2396 832.163 32.9669L810.923 62.033ZM825.232 80.1119C828.579 87.2845 830.543 96.2584 830.543 107.5H866.543C866.543 92.0749 863.84 77.7155 857.854 64.888L825.232 80.1119ZM830.543 107.5V180.5H866.543V107.5H830.543ZM830.543 180.5C830.543 203.114 823.281 217.312 810.829 226.536L832.257 255.464C855.805 238.021 866.543 211.886 866.543 180.5H830.543ZM810.956 226.443C807.997 228.595 804.69 230.67 801.009 232.652L818.077 264.348C823.063 261.664 827.756 258.738 832.13 255.557L810.956 226.443ZM800.473 232.952C796.661 235.176 792.673 237.409 788.509 239.652L805.577 271.348C810.079 268.924 814.425 266.491 818.613 264.048L800.473 232.952ZM781.649 264.829L861.649 396.829L892.437 378.171L812.437 246.171L781.649 264.829ZM861.608 396.761C861.854 397.171 862.413 398.25 863.189 400.32L896.897 387.68C895.673 384.416 894.232 381.163 892.478 378.239L861.608 396.761ZM863.189 400.32C863.332 400.701 863.435 401.007 863.508 401.241C863.581 401.477 863.616 401.618 863.629 401.672C863.642 401.729 863.623 401.661 863.6 401.484C863.578 401.31 863.543 400.973 863.543 400.5H899.543C899.543 395.67 898.196 391.144 896.897 387.68L863.189 400.32ZM863.543 400.5C863.543 399.952 863.813 400.204 862.818 401.551C861.687 403.081 859.309 405.447 854.764 408.388L874.322 438.612C887.217 430.268 899.543 417.892 899.543 400.5H863.543ZM882.543 423.5V423H846.543V423.5H882.543ZM855.184 407.624C848.629 411.615 845.526 412 845.043 412V448C855.227 448 865.124 443.719 873.902 438.376L855.184 407.624ZM845.043 412C844.64 412 844.442 411.952 844.381 411.935C844.327 411.92 844.271 411.9 844.171 411.838C843.982 411.72 843.125 411.124 841.919 409.141L811.167 427.859C818.444 439.813 829.927 448 845.043 448V412ZM813.815 431.228L814.315 431.728L839.771 406.272L839.271 405.772L813.815 431.228ZM842.504 409.782L748.004 251.282L717.082 269.718L811.582 428.218L842.504 409.782Z" fill="white"/>
<path d="M216.893 375C229.226 375 237.893 371.5 242.893 364.5C247.893 357.5 250.393 349.667 250.393 341V112C250.393 103.667 247.893 96 242.893 89C237.893 82 229.226 78.5 216.893 78.5H99.8926L99.3926 404.5C99.3926 411.833 96.5593 417.667 90.8926 422C85.2259 426.333 78.2259 428.5 69.8926 428.5C50.2259 428.5 40.3926 420.5 40.3926 404.5V58C40.3926 46 43.3926 38 49.3926 34C55.7259 30 63.2259 28 71.8926 28H229.393C238.059 28 247.059 29.8333 256.393 33.5C265.726 37.1667 274.726 41.8333 283.393 47.5H282.893C291.559 53.8333 298.226 62.1666 302.893 72.5C307.559 82.5 309.893 94.1667 309.893 107.5V345C309.893 372 300.893 392.167 282.893 405.5C274.226 411.833 265.226 416.833 255.893 420.5C246.893 423.833 238.059 425.5 229.393 425.5H145.393C139.726 425.5 135.226 423.167 131.893 418.5C128.893 413.833 127.393 407.667 127.393 400C127.393 383.333 134.559 375 148.893 375H216.893Z" fill="#0080DC"/>
<path d="M242.893 364.5L228.245 354.038L228.245 354.038L242.893 364.5ZM242.893 89L257.54 78.5377L257.54 78.5377L242.893 89ZM99.8926 78.5V60.5H81.9202L81.8926 78.4724L99.8926 78.5ZM99.3926 404.5L81.3926 404.472L81.3926 404.486V404.5H99.3926ZM90.8926 422L101.827 436.298L101.827 436.298L90.8926 422ZM49.3926 34L39.7807 18.7812L39.5929 18.8998L39.408 19.0231L49.3926 34ZM256.393 33.5L262.974 16.7465L262.974 16.7464L256.393 33.5ZM283.393 47.5V65.5H343.814L293.243 32.4345L283.393 47.5ZM282.893 47.5V29.5H227.753L272.272 62.033L282.893 47.5ZM302.893 72.5L286.488 79.9085L286.534 80.0105L286.581 80.1119L302.893 72.5ZM282.893 405.5L293.513 420.033L293.56 419.999L293.607 419.964L282.893 405.5ZM255.893 420.5L262.144 437.379L262.31 437.318L262.474 437.254L255.893 420.5ZM131.893 418.5L116.751 428.234L116.989 428.604L117.245 428.962L131.893 418.5ZM216.893 393C232.355 393 247.856 388.52 257.54 374.962L228.245 354.038C227.93 354.48 226.097 357 216.893 357V393ZM257.54 374.962C264.738 364.885 268.393 353.388 268.393 341H232.393C232.393 345.945 231.047 350.115 228.245 354.038L257.54 374.962ZM268.393 341V112H232.393V341H268.393ZM268.393 112C268.393 99.7878 264.645 88.4853 257.54 78.5377L228.245 99.4622C231.14 103.515 232.393 107.546 232.393 112H268.393ZM257.54 78.5377C247.856 64.9798 232.355 60.5 216.893 60.5V96.5C226.097 96.5 227.93 99.0202 228.245 99.4623L257.54 78.5377ZM216.893 60.5H99.8926V96.5H216.893V60.5ZM81.8926 78.4724L81.3926 404.472L117.393 404.528L117.893 78.5276L81.8926 78.4724ZM81.3926 404.5C81.3926 405.8 81.1555 406.348 81.0764 406.511C81.0052 406.657 80.7883 407.067 79.9585 407.702L101.827 436.298C112.091 428.449 117.393 417.256 117.393 404.5H81.3926ZM79.9585 407.702C77.9391 409.246 74.9646 410.5 69.8926 410.5V446.5C81.4873 446.5 92.5127 443.421 101.827 436.298L79.9585 407.702ZM69.8926 410.5C62.0361 410.5 59.484 408.828 59.1272 408.537C59.0587 408.481 59.008 408.458 58.8925 408.176C58.7318 407.783 58.3926 406.69 58.3926 404.5H22.3926C22.3926 416.369 26.221 428.175 36.408 436.463C45.8845 444.172 58.0824 446.5 69.8926 446.5V410.5ZM58.3926 404.5V58H22.3926V404.5H58.3926ZM58.3926 58C58.3926 53.3521 58.9936 50.6614 59.4965 49.3202C59.9228 48.1833 60.0662 48.5175 59.3772 48.9769L39.408 19.0231C25.777 28.1104 22.3926 44.0279 22.3926 58H58.3926ZM59.0044 49.2188C62.0325 47.3063 66.0832 46 71.8926 46V9.99999C60.3687 9.99999 49.4193 12.6936 39.7807 18.7812L59.0044 49.2188ZM71.8926 46H229.393V9.99999H71.8926V46ZM229.393 46C235.482 46 242.249 47.2829 249.811 50.2535L262.974 16.7464C251.869 12.3837 240.636 9.99999 229.393 9.99999V46ZM249.811 50.2535C257.963 53.4562 265.871 57.5497 273.542 62.5654L293.243 32.4345C283.581 26.1169 273.489 20.8771 262.974 16.7465L249.811 50.2535ZM283.393 29.5H282.893V65.5H283.393V29.5ZM272.272 62.033C278.285 66.427 283.027 72.2445 286.488 79.9085L319.297 65.0914C313.425 52.0888 304.833 41.2396 293.513 32.9669L272.272 62.033ZM286.581 80.1119C289.928 87.2845 291.893 96.2584 291.893 107.5H327.893C327.893 92.0749 325.19 77.7155 319.204 64.888L286.581 80.1119ZM291.893 107.5V345H327.893V107.5H291.893ZM291.893 345C291.893 367.614 284.631 381.812 272.178 391.036L293.607 419.964C317.154 402.521 327.893 376.386 327.893 345H291.893ZM272.272 390.967C264.764 396.454 257.111 400.682 249.311 403.746L262.474 437.254C273.341 432.985 283.688 427.213 293.513 420.033L272.272 390.967ZM249.641 403.621C242.428 406.292 235.708 407.5 229.393 407.5V443.5C240.41 443.5 251.357 441.375 262.144 437.379L249.641 403.621ZM229.393 407.5H145.393V443.5H229.393V407.5ZM145.393 407.5C145.215 407.5 145.23 407.482 145.388 407.519C145.554 407.557 145.792 407.635 146.053 407.77C146.314 407.906 146.501 408.048 146.605 408.141C146.703 408.228 146.671 408.221 146.54 408.038L117.245 428.962C123.909 438.291 133.83 443.5 145.393 443.5V407.5ZM147.034 408.766C146.486 407.914 145.393 405.486 145.393 400H109.393C109.393 409.847 111.3 419.753 116.751 428.234L147.034 408.766ZM145.393 400C145.393 393.832 146.777 392.566 146.415 392.987C146.182 393.258 145.924 393.372 145.992 393.346C146.168 393.278 147.012 393 148.893 393V357C138.183 357 127.095 360.24 119.12 369.513C111.592 378.267 109.393 389.501 109.393 400H145.393ZM148.893 393H216.893V357H148.893V393Z" fill="white"/>
<path d="M593.18 171.621H496.68C483.013 171.621 474.013 175.621 469.68 183.621C465.013 190.621 462.68 198.788 462.68 208.121V352.121C462.68 360.788 465.346 367.454 470.68 372.121C476.013 376.454 484.846 378.621 497.18 378.621H548.68C560.68 378.621 566.68 386.454 566.68 402.121C566.68 408.788 565.18 414.454 562.18 419.121C559.513 423.454 555.013 425.621 548.68 425.621H488.18C467.18 425.621 448.513 420.288 432.18 409.621C415.846 399.621 407.68 380.621 407.68 352.621V203.621C407.68 189.954 409.846 178.121 414.18 168.121C418.513 158.121 425.346 149.954 434.68 143.621C452.346 130.954 470.013 124.621 487.68 124.621H593.18V49.6211C593.18 33.6211 602.346 25.6211 620.68 25.6211C639.013 25.6211 648.18 33.6211 648.18 49.6211V404.621C648.18 420.621 639.013 428.621 620.68 428.621C613.68 428.621 607.346 427.454 601.68 425.121C596.013 422.454 593.18 416.788 593.18 408.121V171.621Z" fill="#0080DC"/>
<path d="M593.18 171.621H611.18V153.621H593.18V171.621ZM469.68 183.621L484.657 193.606L485.114 192.919L485.507 192.194L469.68 183.621ZM470.68 372.121L458.827 385.667L459.074 385.884L459.329 386.091L470.68 372.121ZM562.18 419.121L547.038 409.387L546.943 409.536L546.85 409.687L562.18 419.121ZM432.18 409.621L442.022 394.55L441.802 394.407L441.578 394.27L432.18 409.621ZM414.18 168.121L397.664 160.964L397.664 160.964L414.18 168.121ZM434.68 143.621L444.787 158.516L444.979 158.385L445.168 158.25L434.68 143.621ZM593.18 124.621V142.621H611.18V124.621H593.18ZM601.68 425.121L594.015 441.408L594.416 441.597L594.826 441.765L601.68 425.121ZM593.18 153.621H496.68V189.621H593.18V153.621ZM496.68 153.621C480.054 153.621 462.753 158.616 453.852 175.048L485.507 192.194C485.622 191.982 485.802 191.598 486.99 191.07C488.479 190.408 491.452 189.621 496.68 189.621V153.621ZM454.703 173.636C447.852 183.912 444.68 195.638 444.68 208.121H480.68C480.68 201.937 482.174 197.33 484.657 193.606L454.703 173.636ZM444.68 208.121V352.121H480.68V208.121H444.68ZM444.68 352.121C444.68 364.72 448.731 376.833 458.827 385.667L482.533 358.575C481.962 358.075 480.68 356.855 480.68 352.121H444.68ZM459.329 386.091C469.575 394.416 483.633 396.621 497.18 396.621V360.621C486.059 360.621 482.451 358.493 482.03 358.151L459.329 386.091ZM497.18 396.621H548.68V360.621H497.18V396.621ZM548.68 396.621C549.745 396.621 549.833 396.795 549.372 396.595C548.804 396.347 548.238 395.896 547.89 395.441C547.615 395.083 547.831 395.185 548.114 396.293C548.403 397.424 548.68 399.295 548.68 402.121H584.68C584.68 392.497 582.924 381.978 576.47 373.551C569.319 364.215 558.931 360.621 548.68 360.621V396.621ZM548.68 402.121C548.68 406.04 547.825 408.164 547.038 409.387L577.321 428.855C582.534 420.745 584.68 411.536 584.68 402.121H548.68ZM546.85 409.687C547.027 409.4 547.318 409.018 547.743 408.632C548.171 408.244 548.613 407.963 548.996 407.778C549.745 407.418 549.846 407.621 548.68 407.621V443.621C559.501 443.621 570.738 439.558 577.51 428.555L546.85 409.687ZM548.68 407.621H488.18V443.621H548.68V407.621ZM488.18 407.621C470.396 407.621 455.203 403.158 442.022 394.55L422.337 424.692C441.823 437.417 463.964 443.621 488.18 443.621V407.621ZM441.578 394.27C432.812 388.903 425.68 377.502 425.68 352.621H389.68C389.68 383.74 398.88 410.339 422.781 424.972L441.578 394.27ZM425.68 352.621V203.621H389.68V352.621H425.68ZM425.68 203.621C425.68 191.812 427.556 182.523 430.696 175.278L397.664 160.964C392.137 173.719 389.68 188.097 389.68 203.621H425.68ZM430.696 175.278C433.621 168.527 438.177 163.001 444.787 158.516L424.573 128.727C412.516 136.908 403.405 147.715 397.664 160.964L430.696 175.278ZM445.168 158.25C460.492 147.263 474.569 142.621 487.68 142.621V106.621C465.457 106.621 444.201 114.646 424.191 128.993L445.168 158.25ZM487.68 142.621H593.18V106.621H487.68V142.621ZM611.18 124.621V49.6211H575.18V124.621H611.18ZM611.18 49.6211C611.18 47.2971 611.517 46.0582 611.714 45.5436C611.807 45.2984 611.874 45.2017 611.88 45.1936C611.883 45.1893 611.878 45.1939 611.89 45.1827C611.892 45.1816 612.311 44.8018 613.676 44.4046C615.098 43.9912 617.347 43.6211 620.68 43.6211V7.62109C609.294 7.62109 597.394 10.0523 588.219 18.0594C578.576 26.4752 575.18 38.1609 575.18 49.6211H611.18ZM620.68 43.6211C624.012 43.6211 626.262 43.9912 627.683 44.4046C629.048 44.8018 629.468 45.1816 629.469 45.1827C629.482 45.1939 629.477 45.1893 629.48 45.1936C629.485 45.2017 629.552 45.2984 629.646 45.5436C629.842 46.0582 630.18 47.2971 630.18 49.6211H666.18C666.18 38.1608 662.783 26.4752 653.14 18.0594C643.965 10.0523 632.065 7.62109 620.68 7.62109V43.6211ZM630.18 49.6211V404.621H666.18V49.6211H630.18ZM630.18 404.621C630.18 406.945 629.842 408.184 629.646 408.699C629.552 408.944 629.485 409.041 629.48 409.049C629.477 409.053 629.482 409.048 629.469 409.059C629.468 409.061 629.048 409.44 627.683 409.838C626.262 410.251 624.012 410.621 620.68 410.621V446.621C632.065 446.621 643.965 444.19 653.14 436.183C662.783 427.767 666.18 416.081 666.18 404.621H630.18ZM620.68 410.621C615.699 410.621 611.739 409.797 608.533 408.477L594.826 441.765C602.954 445.112 611.661 446.621 620.68 446.621V410.621ZM609.344 408.834C609.658 408.982 610.109 409.261 610.562 409.705C611.013 410.148 611.279 410.57 611.404 410.821C611.518 411.048 611.457 411.013 611.369 410.568C611.28 410.115 611.18 409.326 611.18 408.121H575.18C575.18 420.639 579.635 434.641 594.015 441.408L609.344 408.834ZM611.18 408.121V171.621H575.18V408.121H611.18Z" fill="white"/>
<path d="M458.99 345.621C458.99 372.621 449.99 392.788 431.99 406.121C423.324 412.454 414.324 417.454 404.99 421.121C395.99 424.454 387.157 426.121 378.49 426.121H330.49C321.824 426.121 312.824 424.454 303.49 421.121C294.49 417.454 285.657 412.454 276.99 406.121C259.324 393.121 250.49 372.954 250.49 345.621V312.621C250.49 296.954 260.157 289.121 279.49 289.121C299.49 289.121 309.49 296.954 309.49 312.621V341.621C309.49 350.288 311.99 358.121 316.99 365.121C321.99 372.121 330.657 375.621 342.99 375.621H365.99C378.324 375.621 386.99 372.121 391.99 365.121C396.99 358.121 399.49 350.288 399.49 341.621V50.1211C399.49 34.1211 409.324 26.1211 428.99 26.1211C448.99 26.1211 458.99 34.1211 458.99 50.1211V345.621Z" fill="#0080DC"/>
<path d="M431.99 406.121L442.611 420.654L442.658 420.62L442.704 420.585L431.99 406.121ZM404.99 421.121L411.242 438.001L411.408 437.939L411.572 437.875L404.99 421.121ZM303.49 421.121L296.699 437.791L297.064 437.94L297.436 438.072L303.49 421.121ZM276.99 406.121L266.322 420.619L266.346 420.637L266.37 420.654L276.99 406.121ZM316.99 365.121L331.637 354.659L331.637 354.659L316.99 365.121ZM391.99 365.121L406.637 375.583L406.637 375.583L391.99 365.121ZM440.99 345.621C440.99 368.235 433.729 382.433 421.276 391.657L442.704 420.585C466.252 403.142 476.99 377.007 476.99 345.621H440.99ZM421.37 391.588C413.861 397.075 406.209 401.303 398.408 404.368L411.572 437.875C422.438 433.606 432.786 427.834 442.611 420.654L421.37 391.588ZM398.739 404.242C391.525 406.913 384.806 408.121 378.49 408.121V444.121C389.508 444.121 400.455 441.996 411.242 438.001L398.739 404.242ZM378.49 408.121H330.49V444.121H378.49V408.121ZM330.49 408.121C324.16 408.121 317.21 406.907 309.544 404.17L297.436 438.072C308.438 442.002 319.487 444.121 330.49 444.121V408.121ZM310.282 404.451C302.773 401.393 295.215 397.145 287.611 391.588L266.37 420.654C276.099 427.764 286.207 433.516 296.699 437.791L310.282 404.451ZM287.658 391.623C275.735 382.849 268.49 368.801 268.49 345.621H232.49C232.49 377.108 242.912 403.393 266.322 420.619L287.658 391.623ZM268.49 345.621V312.621H232.49V345.621H268.49ZM268.49 312.621C268.49 310.522 268.817 309.51 268.949 309.187C269.037 308.975 269.048 309.001 269.073 308.981C269.349 308.757 271.788 307.121 279.49 307.121V271.121C267.859 271.121 255.798 273.402 246.408 281.011C236.293 289.207 232.49 300.895 232.49 312.621H268.49ZM279.49 307.121C287.632 307.121 290.421 308.799 290.89 309.166C290.984 309.24 290.986 309.232 291.052 309.388C291.165 309.652 291.49 310.592 291.49 312.621H327.49C327.49 300.682 323.458 288.947 313.09 280.826C303.559 273.36 291.348 271.121 279.49 271.121V307.121ZM291.49 312.621V341.621H327.49V312.621H291.49ZM291.49 341.621C291.49 354.009 295.145 365.506 302.343 375.583L331.637 354.659C328.835 350.736 327.49 346.566 327.49 341.621H291.49ZM302.343 375.583C312.027 389.141 327.528 393.621 342.99 393.621V357.621C333.786 357.621 331.953 355.101 331.637 354.659L302.343 375.583ZM342.99 393.621H365.99V357.621H342.99V393.621ZM365.99 393.621C381.452 393.621 396.953 389.141 406.637 375.583L377.343 354.659C377.027 355.101 375.195 357.621 365.99 357.621V393.621ZM406.637 375.583C413.835 365.506 417.49 354.009 417.49 341.621H381.49C381.49 346.566 380.145 350.736 377.343 354.659L406.637 375.583ZM417.49 341.621V50.1211H381.49V341.621H417.49ZM417.49 50.1211C417.49 47.9312 417.829 46.8377 417.99 46.4455C418.106 46.1635 418.156 46.1396 418.225 46.0839C418.582 45.7935 421.134 44.1211 428.99 44.1211V8.12108C417.18 8.12108 404.982 10.4486 395.506 18.1583C385.319 26.446 381.49 38.252 381.49 50.1211H417.49ZM428.99 44.1211C437.067 44.1211 439.794 45.8151 440.246 46.1767C440.348 46.2584 440.394 46.2909 440.5 46.5442C440.651 46.9073 440.99 47.9651 440.99 50.1211H476.99C476.99 38.1484 473.05 26.3174 462.735 18.0654C453.187 10.427 440.913 8.12108 428.99 8.12108V44.1211ZM440.99 50.1211V345.621H476.99V50.1211H440.99Z" fill="white"/>
</svg>
