<svg width="308" height="52" viewBox="0 0 308 52" fill="none" xmlns="http://www.w3.org/2000/svg">
<mask id="path-1-outside-1_55_5" maskUnits="userSpaceOnUse" x="0" y="0" width="308" height="52" fill="black">
<rect fill="white" width="308" height="52"/>
<path d="M24.1359 6.76095C24.1359 5.23767 25.0721 4.47603 26.9444 4.47603C28.8485 4.47603 29.8006 5.23767 29.8006 6.76095V40.5112C29.8006 42.0345 28.8485 42.7961 26.9444 42.7961C25.0721 42.7961 24.1359 42.0345 24.1359 40.5112V6.76095ZM9.66471 40.5112C9.66471 42.0345 8.71266 42.7961 6.80855 42.7961C4.93618 42.7961 4 42.0345 4 40.5112V6.76095C4 5.23767 4.93618 4.47603 6.80855 4.47603C8.71266 4.47603 9.66471 5.23767 9.66471 6.76095V40.5112ZM20.8037 22.8506C20.8037 23.9613 20.4229 24.8975 19.6612 25.6592C18.8996 26.4208 17.9634 26.8016 16.8527 26.8016C15.7737 26.8016 14.8534 26.4208 14.0917 25.6592C13.3301 24.8975 12.9493 23.9613 12.9493 22.8506C12.9493 21.7399 13.3301 20.8037 14.0917 20.0421C14.8534 19.2804 15.7737 18.8996 16.8527 18.8996C17.9634 18.8996 18.8996 19.2804 19.6612 20.0421C20.4229 20.8037 20.8037 21.7399 20.8037 22.8506Z"/>
<path d="M41.7239 40.5112C41.7239 42.0345 40.8512 42.7961 39.1058 42.7961C37.3286 42.7961 36.44 42.0345 36.44 40.5112V15.9482C36.44 14.425 37.3286 13.6633 39.1058 13.6633C40.8512 13.6633 41.7239 14.425 41.7239 15.9482V40.5112ZM42.7236 7.6654C42.7236 8.68092 42.3745 9.53777 41.6763 10.2359C40.9782 10.9341 40.1213 11.2832 39.1058 11.2832C38.0903 11.2832 37.2176 10.9341 36.4876 10.2359C35.7895 9.53777 35.4404 8.68092 35.4404 7.6654C35.4404 6.61814 35.7895 5.74543 36.4876 5.04725C37.2176 4.34908 38.0903 4 39.1058 4C40.1213 4 40.9782 4.34908 41.6763 5.04725C42.3745 5.74543 42.7236 6.61814 42.7236 7.6654Z"/>
<path d="M48.4337 46.2711C49.4492 45.7316 50.2426 45.1921 50.8138 44.6526C51.385 44.1448 51.7024 43.4467 51.7658 42.5581C50.6869 42.3677 49.7824 41.9075 49.0525 41.1776C48.3226 40.4477 47.9576 39.5909 47.9576 38.6071C47.9576 37.5598 48.3226 36.6712 49.0525 35.9413C49.7824 35.1797 50.6869 34.7989 51.7658 34.7989C52.8131 34.7989 53.7017 35.1638 54.4316 35.8937C55.1615 36.5919 55.5582 37.4963 55.6217 38.6071C55.7803 41.4315 55.2091 43.4625 53.908 44.7002C53.305 45.3666 52.6703 45.922 52.0039 46.3663C51.3692 46.8423 50.7662 47.1755 50.195 47.3659C49.7189 47.5564 49.2588 47.6516 48.8145 47.6516C48.7193 47.6516 48.5923 47.6198 48.4337 47.5564C48.3067 47.4929 48.1956 47.4294 48.1004 47.3659C47.8148 46.9217 47.9259 46.5567 48.4337 46.2711Z"/>
<path d="M82.4212 40.5112C82.4212 42.0345 81.4691 42.7961 79.565 42.7961C77.6926 42.7961 76.7564 42.0345 76.7564 40.5112V6.76095C76.7564 5.23767 77.6926 4.47603 79.565 4.47603C81.4691 4.47603 82.4212 5.23767 82.4212 6.76095V40.5112Z"/>
<path d="M93.9983 9.04587C93.7126 10.1566 93.3477 11.3625 92.9034 12.6637C92.4591 13.9648 91.9672 15.2659 91.4277 16.5671C90.92 17.8365 90.4122 19.0424 89.9044 20.1849H86.8103C87.0324 19.2963 87.2546 18.3442 87.4767 17.3287C87.7306 16.3132 87.9527 15.2977 88.1431 14.2822C88.3653 13.2349 88.5557 12.2194 88.7144 11.2356C88.9048 10.2518 89.0635 9.34735 89.1904 8.52224H93.665L93.9983 9.04587Z"/>
<path d="M112.697 21.8034C112.697 21.3908 112.633 20.9941 112.506 20.6133C112.379 20.2007 112.221 19.8199 112.03 19.4708C111.618 18.7092 110.761 18.3284 109.46 18.3284H106.413C105.112 18.3284 104.239 18.7092 103.795 19.4708C103.414 20.2007 103.224 20.9783 103.224 21.8034V40.654C103.224 42.1455 102.351 42.8913 100.606 42.8913C98.7968 42.8913 97.8924 42.1455 97.8924 40.654V21.3749C97.8924 18.7727 98.7492 16.8686 100.463 15.6626C102.208 14.4567 103.906 13.8537 105.556 13.8537H110.364C111.094 13.8537 111.903 13.9965 112.792 14.2822C113.681 14.5678 114.537 15.0121 115.363 15.615C116.156 15.0121 116.981 14.5678 117.838 14.2822C118.726 13.9965 119.567 13.8537 120.361 13.8537H125.121C126.803 13.8537 128.485 14.4567 130.167 15.6626C131.912 16.8368 132.785 18.7409 132.785 21.3749V40.654C132.785 42.1455 131.896 42.8913 130.119 42.8913C128.342 42.8913 127.454 42.1455 127.454 40.654V21.8034C127.454 21.3908 127.406 20.9783 127.311 20.5657C127.216 20.1531 127.041 19.7723 126.787 19.4232L126.835 19.4708C126.581 19.0583 126.264 18.7727 125.883 18.614C125.502 18.4236 124.946 18.3284 124.217 18.3284H121.218C119.885 18.3284 119.012 18.7092 118.599 19.4708C118.187 20.169 117.981 20.9465 117.981 21.8034V40.654C117.981 42.1455 117.108 42.8913 115.363 42.8913C113.585 42.8913 112.697 42.1455 112.697 40.654V21.8034Z"/>
<path d="M170.073 37.7502C171.247 37.7502 172.072 37.417 172.548 36.7506C173.024 36.0841 173.262 35.3384 173.262 34.5133V12.7113C173.262 11.9179 173.024 11.188 172.548 10.5216C172.072 9.85512 171.247 9.5219 170.073 9.5219H158.934L158.887 40.5588C158.887 41.257 158.617 41.8123 158.077 42.2249C157.538 42.6374 156.871 42.8437 156.078 42.8437C154.206 42.8437 153.269 42.0821 153.269 40.5588V7.57019C153.269 6.42773 153.555 5.66609 154.126 5.28527C154.729 4.90445 155.443 4.71404 156.268 4.71404H171.263C172.088 4.71404 172.945 4.88858 173.834 5.23767C174.722 5.58675 175.579 6.03104 176.404 6.57054H176.357C177.182 7.1735 177.816 7.96688 178.261 8.95067C178.705 9.90272 178.927 11.0134 178.927 12.2828V34.8941C178.927 37.4646 178.07 39.3846 176.357 40.654C175.532 41.2569 174.675 41.733 173.786 42.0821C172.929 42.3994 172.088 42.5581 171.263 42.5581H163.266C162.726 42.5581 162.298 42.3359 161.981 41.8916C161.695 41.4474 161.552 40.8603 161.552 40.1304C161.552 38.5436 162.235 37.7502 163.599 37.7502H170.073Z"/>
<path d="M192.895 42.5105C191.911 42.5105 190.975 42.3835 190.087 42.1297C189.198 41.844 188.341 41.4474 187.516 40.9396V40.9872C185.961 40.0034 185.184 38.1945 185.184 35.5605V33.228C185.184 31.9268 185.406 30.8003 185.85 29.8482C186.326 28.8644 186.977 28.0869 187.802 27.5157H187.754C188.548 26.9762 189.388 26.5795 190.277 26.3256C191.166 26.04 192.023 25.8972 192.848 25.8972H203.368V21.4701C203.368 20.6768 203.114 19.9627 202.606 19.328C202.13 18.6616 201.305 18.3284 200.131 18.3284H194.561C193.355 18.3284 192.514 18.6299 192.038 19.2328C191.594 19.8041 191.372 20.4864 191.372 21.2797V21.6606C191.372 23.3108 190.483 24.1359 188.706 24.1359C186.929 24.1359 186.04 23.3108 186.04 21.6606V21.2321C186.04 19.931 186.263 18.8361 186.707 17.9476C187.183 17.059 187.818 16.3132 188.611 15.7102H188.563C189.388 15.1707 190.245 14.7264 191.134 14.3774C192.054 14.0283 192.927 13.8537 193.752 13.8537H200.988C201.781 13.8537 202.622 14.0283 203.511 14.3774C204.431 14.7264 205.288 15.1707 206.081 15.7102H206.034C206.859 16.3132 207.493 17.1066 207.938 18.0904C208.382 19.0424 208.604 20.1531 208.604 21.4225V40.5112C208.604 42.0345 207.731 42.7961 205.986 42.7961C205.637 42.7961 205.304 42.7802 204.986 42.7485C204.701 42.7168 204.431 42.6374 204.177 42.5105C203.955 42.3518 203.764 42.1455 203.606 41.8916C203.479 41.606 203.415 41.2411 203.415 40.7968L203.368 30.3718H193.752C193.054 30.3718 192.514 30.4512 192.134 30.6098C191.753 30.7685 191.451 31.0224 191.229 31.3715C190.975 31.911 190.785 32.3394 190.658 32.6567C190.563 32.9424 190.515 33.2756 190.515 33.6564V35.5129C190.515 36.338 190.753 36.9727 191.229 37.417C191.737 37.8296 192.594 38.0358 193.8 38.0358H199.131C200.305 38.0358 200.892 38.7816 200.892 40.2732C200.892 40.9079 200.75 41.4474 200.464 41.8916C200.178 42.3042 199.734 42.5105 199.131 42.5105H192.895Z"/>
<path d="M219.998 40.5112C219.998 42.0345 219.125 42.7961 217.38 42.7961C215.634 42.7961 214.762 42.0345 214.762 40.5112V21.3749C214.762 20.0738 214.968 18.9472 215.38 17.9952C215.793 17.0431 216.443 16.2656 217.332 15.6626C219.014 14.4567 220.696 13.8537 222.378 13.8537H230.042C231.66 13.8537 233.342 14.4567 235.088 15.6626C236.802 16.8686 237.658 18.7727 237.658 21.3749V40.5112C237.658 42.0345 236.786 42.7961 235.04 42.7961C233.295 42.7961 232.422 42.0345 232.422 40.5112V21.8034C232.422 20.9783 232.168 20.1849 231.66 19.4232L231.708 19.4708C231.296 18.7092 230.455 18.3284 229.185 18.3284H223.235C221.934 18.3284 221.077 18.7092 220.664 19.4708C220.22 20.1373 219.998 20.9148 219.998 21.8034V40.5112Z"/>
<path d="M249.195 40.5112C249.195 42.0345 248.322 42.7961 246.577 42.7961C244.8 42.7961 243.911 42.0345 243.911 40.5112V15.9482C243.911 14.425 244.8 13.6633 246.577 13.6633C248.322 13.6633 249.195 14.425 249.195 15.9482V40.5112ZM250.195 7.6654C250.195 8.68092 249.845 9.53777 249.147 10.2359C248.449 10.9341 247.592 11.2832 246.577 11.2832C245.561 11.2832 244.689 10.9341 243.959 10.2359C243.26 9.53777 242.911 8.68092 242.911 7.6654C242.911 6.61814 243.26 5.74543 243.959 5.04725C244.689 4.34908 245.561 4 246.577 4C247.592 4 248.449 4.34908 249.147 5.04725C249.845 5.74543 250.195 6.61814 250.195 7.6654Z"/>
<path d="M261.046 34.8941C261.046 35.6557 261.284 36.3698 261.76 37.0362C262.268 37.7026 263.109 38.0358 264.283 38.0358H270.233C271.407 38.0358 272.232 37.7502 272.708 37.179C273.216 36.576 273.47 35.8937 273.47 35.1321V34.6085C273.47 33.1169 274.343 32.3711 276.088 32.3711C277.834 32.3711 278.706 33.1169 278.706 34.6085V35.1797C278.706 36.5126 278.484 37.6074 278.04 38.4643C277.627 39.3211 276.993 40.0669 276.136 40.7016C274.454 41.9075 272.772 42.5105 271.09 42.5105H263.093C261.411 42.5105 259.776 41.9075 258.19 40.7016C257.428 40.0669 256.841 39.2735 256.428 38.3215C256.016 37.3377 255.809 36.2111 255.809 34.9417V21.3749C255.809 18.8044 256.603 16.9003 258.19 15.6626C258.983 15.0914 259.792 14.6471 260.617 14.3298C261.474 13.9807 262.299 13.8061 263.093 13.8061H271.09C271.852 13.8061 272.693 13.9648 273.613 14.2822C274.533 14.5678 275.39 14.9645 276.183 15.4722C276.945 16.0117 277.548 16.7575 277.992 17.7095C278.468 18.6616 278.706 19.7882 278.706 21.0893V27.5157C278.706 28.2456 278.484 28.8961 278.04 29.4674C277.627 30.0386 276.85 30.3242 275.707 30.3242H265.425C264.283 30.3242 263.68 29.5784 263.616 28.0869C263.616 26.5954 264.219 25.8496 265.425 25.8496H273.518L273.47 21.4225C273.47 20.6292 273.216 19.9151 272.708 19.2804C272.232 18.614 271.407 18.2808 270.233 18.2808H264.283C263.109 18.2808 262.268 18.614 261.76 19.2804C261.284 19.9151 261.046 20.6292 261.046 21.4225V34.8941Z"/>
<path d="M290.197 40.654C290.197 42.1455 289.325 42.8913 287.579 42.8913C285.802 42.8913 284.914 42.1455 284.914 40.654V6.52294C284.914 5.03139 285.802 4.28561 287.579 4.28561C289.325 4.28561 290.197 5.03139 290.197 6.52294V40.654Z"/>
<path d="M304 38.6071C304 39.6861 303.635 40.6064 302.905 41.368C302.175 42.0979 301.271 42.4629 300.192 42.4629C299.113 42.4629 298.208 42.0979 297.478 41.368C296.749 40.6064 296.384 39.6861 296.384 38.6071C296.384 37.5598 296.749 36.6712 297.478 35.9413C298.208 35.1797 299.113 34.7989 300.192 34.7989C301.271 34.7989 302.175 35.1797 302.905 35.9413C303.635 36.6712 304 37.5598 304 38.6071Z"/>
</mask>
<path d="M24.1359 6.76095C24.1359 5.23767 25.0721 4.47603 26.9444 4.47603C28.8485 4.47603 29.8006 5.23767 29.8006 6.76095V40.5112C29.8006 42.0345 28.8485 42.7961 26.9444 42.7961C25.0721 42.7961 24.1359 42.0345 24.1359 40.5112V6.76095ZM9.66471 40.5112C9.66471 42.0345 8.71266 42.7961 6.80855 42.7961C4.93618 42.7961 4 42.0345 4 40.5112V6.76095C4 5.23767 4.93618 4.47603 6.80855 4.47603C8.71266 4.47603 9.66471 5.23767 9.66471 6.76095V40.5112ZM20.8037 22.8506C20.8037 23.9613 20.4229 24.8975 19.6612 25.6592C18.8996 26.4208 17.9634 26.8016 16.8527 26.8016C15.7737 26.8016 14.8534 26.4208 14.0917 25.6592C13.3301 24.8975 12.9493 23.9613 12.9493 22.8506C12.9493 21.7399 13.3301 20.8037 14.0917 20.0421C14.8534 19.2804 15.7737 18.8996 16.8527 18.8996C17.9634 18.8996 18.8996 19.2804 19.6612 20.0421C20.4229 20.8037 20.8037 21.7399 20.8037 22.8506Z" stroke="#0080DC" stroke-width="8" mask="url(#path-1-outside-1_55_5)"/>
<path d="M41.7239 40.5112C41.7239 42.0345 40.8512 42.7961 39.1058 42.7961C37.3286 42.7961 36.44 42.0345 36.44 40.5112V15.9482C36.44 14.425 37.3286 13.6633 39.1058 13.6633C40.8512 13.6633 41.7239 14.425 41.7239 15.9482V40.5112ZM42.7236 7.6654C42.7236 8.68092 42.3745 9.53777 41.6763 10.2359C40.9782 10.9341 40.1213 11.2832 39.1058 11.2832C38.0903 11.2832 37.2176 10.9341 36.4876 10.2359C35.7895 9.53777 35.4404 8.68092 35.4404 7.6654C35.4404 6.61814 35.7895 5.74543 36.4876 5.04725C37.2176 4.34908 38.0903 4 39.1058 4C40.1213 4 40.9782 4.34908 41.6763 5.04725C42.3745 5.74543 42.7236 6.61814 42.7236 7.6654Z" stroke="#0080DC" stroke-width="8" mask="url(#path-1-outside-1_55_5)"/>
<path d="M48.4337 46.2711C49.4492 45.7316 50.2426 45.1921 50.8138 44.6526C51.385 44.1448 51.7024 43.4467 51.7658 42.5581C50.6869 42.3677 49.7824 41.9075 49.0525 41.1776C48.3226 40.4477 47.9576 39.5909 47.9576 38.6071C47.9576 37.5598 48.3226 36.6712 49.0525 35.9413C49.7824 35.1797 50.6869 34.7989 51.7658 34.7989C52.8131 34.7989 53.7017 35.1638 54.4316 35.8937C55.1615 36.5919 55.5582 37.4963 55.6217 38.6071C55.7803 41.4315 55.2091 43.4625 53.908 44.7002C53.305 45.3666 52.6703 45.922 52.0039 46.3663C51.3692 46.8423 50.7662 47.1755 50.195 47.3659C49.7189 47.5564 49.2588 47.6516 48.8145 47.6516C48.7193 47.6516 48.5923 47.6198 48.4337 47.5564C48.3067 47.4929 48.1956 47.4294 48.1004 47.3659C47.8148 46.9217 47.9259 46.5567 48.4337 46.2711Z" stroke="#0080DC" stroke-width="8" mask="url(#path-1-outside-1_55_5)"/>
<path d="M82.4212 40.5112C82.4212 42.0345 81.4691 42.7961 79.565 42.7961C77.6926 42.7961 76.7564 42.0345 76.7564 40.5112V6.76095C76.7564 5.23767 77.6926 4.47603 79.565 4.47603C81.4691 4.47603 82.4212 5.23767 82.4212 6.76095V40.5112Z" stroke="#0080DC" stroke-width="8" mask="url(#path-1-outside-1_55_5)"/>
<path d="M93.9983 9.04587C93.7126 10.1566 93.3477 11.3625 92.9034 12.6637C92.4591 13.9648 91.9672 15.2659 91.4277 16.5671C90.92 17.8365 90.4122 19.0424 89.9044 20.1849H86.8103C87.0324 19.2963 87.2546 18.3442 87.4767 17.3287C87.7306 16.3132 87.9527 15.2977 88.1431 14.2822C88.3653 13.2349 88.5557 12.2194 88.7144 11.2356C88.9048 10.2518 89.0635 9.34735 89.1904 8.52224H93.665L93.9983 9.04587Z" stroke="#0080DC" stroke-width="8" mask="url(#path-1-outside-1_55_5)"/>
<path d="M112.697 21.8034C112.697 21.3908 112.633 20.9941 112.506 20.6133C112.379 20.2007 112.221 19.8199 112.03 19.4708C111.618 18.7092 110.761 18.3284 109.46 18.3284H106.413C105.112 18.3284 104.239 18.7092 103.795 19.4708C103.414 20.2007 103.224 20.9783 103.224 21.8034V40.654C103.224 42.1455 102.351 42.8913 100.606 42.8913C98.7968 42.8913 97.8924 42.1455 97.8924 40.654V21.3749C97.8924 18.7727 98.7492 16.8686 100.463 15.6626C102.208 14.4567 103.906 13.8537 105.556 13.8537H110.364C111.094 13.8537 111.903 13.9965 112.792 14.2822C113.681 14.5678 114.537 15.0121 115.363 15.615C116.156 15.0121 116.981 14.5678 117.838 14.2822C118.726 13.9965 119.567 13.8537 120.361 13.8537H125.121C126.803 13.8537 128.485 14.4567 130.167 15.6626C131.912 16.8368 132.785 18.7409 132.785 21.3749V40.654C132.785 42.1455 131.896 42.8913 130.119 42.8913C128.342 42.8913 127.454 42.1455 127.454 40.654V21.8034C127.454 21.3908 127.406 20.9783 127.311 20.5657C127.216 20.1531 127.041 19.7723 126.787 19.4232L126.835 19.4708C126.581 19.0583 126.264 18.7727 125.883 18.614C125.502 18.4236 124.946 18.3284 124.217 18.3284H121.218C119.885 18.3284 119.012 18.7092 118.599 19.4708C118.187 20.169 117.981 20.9465 117.981 21.8034V40.654C117.981 42.1455 117.108 42.8913 115.363 42.8913C113.585 42.8913 112.697 42.1455 112.697 40.654V21.8034Z" stroke="#0080DC" stroke-width="8" mask="url(#path-1-outside-1_55_5)"/>
<path d="M170.073 37.7502C171.247 37.7502 172.072 37.417 172.548 36.7506C173.024 36.0841 173.262 35.3384 173.262 34.5133V12.7113C173.262 11.9179 173.024 11.188 172.548 10.5216C172.072 9.85512 171.247 9.5219 170.073 9.5219H158.934L158.887 40.5588C158.887 41.257 158.617 41.8123 158.077 42.2249C157.538 42.6374 156.871 42.8437 156.078 42.8437C154.206 42.8437 153.269 42.0821 153.269 40.5588V7.57019C153.269 6.42773 153.555 5.66609 154.126 5.28527C154.729 4.90445 155.443 4.71404 156.268 4.71404H171.263C172.088 4.71404 172.945 4.88858 173.834 5.23767C174.722 5.58675 175.579 6.03104 176.404 6.57054H176.357C177.182 7.1735 177.816 7.96688 178.261 8.95067C178.705 9.90272 178.927 11.0134 178.927 12.2828V34.8941C178.927 37.4646 178.07 39.3846 176.357 40.654C175.532 41.2569 174.675 41.733 173.786 42.0821C172.929 42.3994 172.088 42.5581 171.263 42.5581H163.266C162.726 42.5581 162.298 42.3359 161.981 41.8916C161.695 41.4474 161.552 40.8603 161.552 40.1304C161.552 38.5436 162.235 37.7502 163.599 37.7502H170.073Z" stroke="#0080DC" stroke-width="8" mask="url(#path-1-outside-1_55_5)"/>
<path d="M192.895 42.5105C191.911 42.5105 190.975 42.3835 190.087 42.1297C189.198 41.844 188.341 41.4474 187.516 40.9396V40.9872C185.961 40.0034 185.184 38.1945 185.184 35.5605V33.228C185.184 31.9268 185.406 30.8003 185.85 29.8482C186.326 28.8644 186.977 28.0869 187.802 27.5157H187.754C188.548 26.9762 189.388 26.5795 190.277 26.3256C191.166 26.04 192.023 25.8972 192.848 25.8972H203.368V21.4701C203.368 20.6768 203.114 19.9627 202.606 19.328C202.13 18.6616 201.305 18.3284 200.131 18.3284H194.561C193.355 18.3284 192.514 18.6299 192.038 19.2328C191.594 19.8041 191.372 20.4864 191.372 21.2797V21.6606C191.372 23.3108 190.483 24.1359 188.706 24.1359C186.929 24.1359 186.04 23.3108 186.04 21.6606V21.2321C186.04 19.931 186.263 18.8361 186.707 17.9476C187.183 17.059 187.818 16.3132 188.611 15.7102H188.563C189.388 15.1707 190.245 14.7264 191.134 14.3774C192.054 14.0283 192.927 13.8537 193.752 13.8537H200.988C201.781 13.8537 202.622 14.0283 203.511 14.3774C204.431 14.7264 205.288 15.1707 206.081 15.7102H206.034C206.859 16.3132 207.493 17.1066 207.938 18.0904C208.382 19.0424 208.604 20.1531 208.604 21.4225V40.5112C208.604 42.0345 207.731 42.7961 205.986 42.7961C205.637 42.7961 205.304 42.7802 204.986 42.7485C204.701 42.7168 204.431 42.6374 204.177 42.5105C203.955 42.3518 203.764 42.1455 203.606 41.8916C203.479 41.606 203.415 41.2411 203.415 40.7968L203.368 30.3718H193.752C193.054 30.3718 192.514 30.4512 192.134 30.6098C191.753 30.7685 191.451 31.0224 191.229 31.3715C190.975 31.911 190.785 32.3394 190.658 32.6567C190.563 32.9424 190.515 33.2756 190.515 33.6564V35.5129C190.515 36.338 190.753 36.9727 191.229 37.417C191.737 37.8296 192.594 38.0358 193.8 38.0358H199.131C200.305 38.0358 200.892 38.7816 200.892 40.2732C200.892 40.9079 200.75 41.4474 200.464 41.8916C200.178 42.3042 199.734 42.5105 199.131 42.5105H192.895Z" stroke="#0080DC" stroke-width="8" mask="url(#path-1-outside-1_55_5)"/>
<path d="M219.998 40.5112C219.998 42.0345 219.125 42.7961 217.38 42.7961C215.634 42.7961 214.762 42.0345 214.762 40.5112V21.3749C214.762 20.0738 214.968 18.9472 215.38 17.9952C215.793 17.0431 216.443 16.2656 217.332 15.6626C219.014 14.4567 220.696 13.8537 222.378 13.8537H230.042C231.66 13.8537 233.342 14.4567 235.088 15.6626C236.802 16.8686 237.658 18.7727 237.658 21.3749V40.5112C237.658 42.0345 236.786 42.7961 235.04 42.7961C233.295 42.7961 232.422 42.0345 232.422 40.5112V21.8034C232.422 20.9783 232.168 20.1849 231.66 19.4232L231.708 19.4708C231.296 18.7092 230.455 18.3284 229.185 18.3284H223.235C221.934 18.3284 221.077 18.7092 220.664 19.4708C220.22 20.1373 219.998 20.9148 219.998 21.8034V40.5112Z" stroke="#0080DC" stroke-width="8" mask="url(#path-1-outside-1_55_5)"/>
<path d="M249.195 40.5112C249.195 42.0345 248.322 42.7961 246.577 42.7961C244.8 42.7961 243.911 42.0345 243.911 40.5112V15.9482C243.911 14.425 244.8 13.6633 246.577 13.6633C248.322 13.6633 249.195 14.425 249.195 15.9482V40.5112ZM250.195 7.6654C250.195 8.68092 249.845 9.53777 249.147 10.2359C248.449 10.9341 247.592 11.2832 246.577 11.2832C245.561 11.2832 244.689 10.9341 243.959 10.2359C243.26 9.53777 242.911 8.68092 242.911 7.6654C242.911 6.61814 243.26 5.74543 243.959 5.04725C244.689 4.34908 245.561 4 246.577 4C247.592 4 248.449 4.34908 249.147 5.04725C249.845 5.74543 250.195 6.61814 250.195 7.6654Z" stroke="#0080DC" stroke-width="8" mask="url(#path-1-outside-1_55_5)"/>
<path d="M261.046 34.8941C261.046 35.6557 261.284 36.3698 261.76 37.0362C262.268 37.7026 263.109 38.0358 264.283 38.0358H270.233C271.407 38.0358 272.232 37.7502 272.708 37.179C273.216 36.576 273.47 35.8937 273.47 35.1321V34.6085C273.47 33.1169 274.343 32.3711 276.088 32.3711C277.834 32.3711 278.706 33.1169 278.706 34.6085V35.1797C278.706 36.5126 278.484 37.6074 278.04 38.4643C277.627 39.3211 276.993 40.0669 276.136 40.7016C274.454 41.9075 272.772 42.5105 271.09 42.5105H263.093C261.411 42.5105 259.776 41.9075 258.19 40.7016C257.428 40.0669 256.841 39.2735 256.428 38.3215C256.016 37.3377 255.809 36.2111 255.809 34.9417V21.3749C255.809 18.8044 256.603 16.9003 258.19 15.6626C258.983 15.0914 259.792 14.6471 260.617 14.3298C261.474 13.9807 262.299 13.8061 263.093 13.8061H271.09C271.852 13.8061 272.693 13.9648 273.613 14.2822C274.533 14.5678 275.39 14.9645 276.183 15.4722C276.945 16.0117 277.548 16.7575 277.992 17.7095C278.468 18.6616 278.706 19.7882 278.706 21.0893V27.5157C278.706 28.2456 278.484 28.8961 278.04 29.4674C277.627 30.0386 276.85 30.3242 275.707 30.3242H265.425C264.283 30.3242 263.68 29.5784 263.616 28.0869C263.616 26.5954 264.219 25.8496 265.425 25.8496H273.518L273.47 21.4225C273.47 20.6292 273.216 19.9151 272.708 19.2804C272.232 18.614 271.407 18.2808 270.233 18.2808H264.283C263.109 18.2808 262.268 18.614 261.76 19.2804C261.284 19.9151 261.046 20.6292 261.046 21.4225V34.8941Z" stroke="#0080DC" stroke-width="8" mask="url(#path-1-outside-1_55_5)"/>
<path d="M290.197 40.654C290.197 42.1455 289.325 42.8913 287.579 42.8913C285.802 42.8913 284.914 42.1455 284.914 40.654V6.52294C284.914 5.03139 285.802 4.28561 287.579 4.28561C289.325 4.28561 290.197 5.03139 290.197 6.52294V40.654Z" stroke="#0080DC" stroke-width="8" mask="url(#path-1-outside-1_55_5)"/>
<path d="M304 38.6071C304 39.6861 303.635 40.6064 302.905 41.368C302.175 42.0979 301.271 42.4629 300.192 42.4629C299.113 42.4629 298.208 42.0979 297.478 41.368C296.749 40.6064 296.384 39.6861 296.384 38.6071C296.384 37.5598 296.749 36.6712 297.478 35.9413C298.208 35.1797 299.113 34.7989 300.192 34.7989C301.271 34.7989 302.175 35.1797 302.905 35.9413C303.635 36.6712 304 37.5598 304 38.6071Z" stroke="#0080DC" stroke-width="8" mask="url(#path-1-outside-1_55_5)"/>
</svg>
