<svg width="320" height="51" viewBox="0 0 320 51" fill="none" xmlns="http://www.w3.org/2000/svg">
<g clip-path="url(#clip0_110_37)">
<path d="M23.1863 4.95771C23.1863 3.3552 24.1712 2.55396 26.1409 2.55396C28.144 2.55396 29.1456 3.3552 29.1456 4.95771V40.4632C29.1456 42.0657 28.144 42.867 26.1409 42.867C24.1712 42.867 23.1863 42.0657 23.1863 40.4632V4.95771ZM7.96249 40.4632C7.96249 42.0657 6.96092 42.867 4.95779 42.867C2.98805 42.867 2.00317 42.0657 2.00317 40.4632V4.95771C2.00317 3.3552 2.98805 2.55396 4.95779 2.55396C6.96092 2.55396 7.96249 3.3552 7.96249 4.95771V40.4632ZM19.6808 21.8842C19.6808 23.0526 19.2802 24.0375 18.4789 24.8388C17.6777 25.64 16.6928 26.0407 15.5243 26.0407C14.3892 26.0407 13.421 25.64 12.6198 24.8388C11.8185 24.0375 11.4179 23.0526 11.4179 21.8842C11.4179 20.7156 11.8185 19.7308 12.6198 18.9296C13.421 18.1283 14.3892 17.7277 15.5243 17.7277C16.6928 17.7277 17.6777 18.1283 18.4789 18.9296C19.2802 19.7308 19.6808 20.7156 19.6808 21.8842Z" stroke="white" stroke-width="8"/>
<path d="M41.6889 40.4632C41.6889 42.0658 40.7708 42.867 38.9346 42.867C37.065 42.867 36.1303 42.0658 36.1303 40.4632V14.6229C36.1303 13.0204 37.065 12.2191 38.9346 12.2191C40.7708 12.2191 41.6889 13.0204 41.6889 14.6229V40.4632ZM42.7406 5.90926C42.7406 6.97758 42.3733 7.87899 41.6389 8.61348C40.9044 9.34793 40.003 9.7152 38.9346 9.7152C37.8663 9.7152 36.9482 9.34793 36.1803 8.61348C35.4458 7.87899 35.0786 6.97758 35.0786 5.90926C35.0786 4.80752 35.4458 3.88942 36.1803 3.15494C36.9482 2.42046 37.8663 2.05322 38.9346 2.05322C40.003 2.05322 40.9044 2.42046 41.6389 3.15494C42.3733 3.88942 42.7406 4.80752 42.7406 5.90926Z" stroke="white" stroke-width="8"/>
<path d="M48.7477 46.5227C49.816 45.9551 50.6506 45.3876 51.2516 44.8201C51.8525 44.2859 52.1865 43.5514 52.2531 42.6166C51.1179 42.4163 50.1664 41.9322 49.3987 41.1643C48.6308 40.3964 48.2469 39.495 48.2469 38.4601C48.2469 37.3584 48.6308 36.4236 49.3987 35.6557C50.1664 34.8545 51.1179 34.4539 52.2531 34.4539C53.3549 34.4539 54.2898 34.8378 55.0575 35.6057C55.8252 36.3401 56.2429 37.2916 56.3095 38.4601C56.4762 41.4314 55.8753 43.5681 54.5067 44.8701C53.8722 45.5712 53.2046 46.1554 52.5035 46.6229C51.836 47.1237 51.2015 47.4742 50.6006 47.6745C50.0998 47.8748 49.6157 47.975 49.1483 47.975C49.0481 47.975 48.9146 47.9416 48.7477 47.8748C48.6141 47.808 48.4973 47.7413 48.3971 47.6745C48.0967 47.2071 48.2135 46.8232 48.7477 46.5227Z" stroke="white" stroke-width="8"/>
<path d="M84.5025 40.4632C84.5025 42.0657 83.501 42.867 81.4978 42.867C79.5282 42.867 78.5432 42.0657 78.5432 40.4632V4.95771C78.5432 3.3552 79.5282 2.55396 81.4978 2.55396C83.501 2.55396 84.5025 3.3552 84.5025 4.95771V40.4632Z" stroke="white" stroke-width="8"/>
<path d="M96.6822 7.36153C96.3817 8.53001 95.9976 9.79864 95.5304 11.1675C95.0626 12.5363 94.5453 13.9051 93.9779 15.2739C93.4436 16.6093 92.9093 17.878 92.3754 19.0798H89.1204C89.3537 18.145 89.5876 17.1435 89.8215 16.0751C90.0884 15.0068 90.3222 13.9385 90.5225 12.8701C90.7559 11.7684 90.9562 10.7 91.1235 9.66513C91.3238 8.63016 91.4906 7.67868 91.6243 6.81067H96.3316L96.6822 7.36153Z" stroke="white" stroke-width="8"/>
<path d="M116.353 20.7825C116.353 20.3485 116.286 19.9312 116.153 19.5305C116.019 19.0965 115.852 18.6959 115.652 18.3287C115.218 17.5274 114.317 17.1268 112.948 17.1268H109.743C108.374 17.1268 107.456 17.5274 106.988 18.3287C106.588 19.0965 106.387 19.9144 106.387 20.7825V40.6135C106.387 42.1826 105.469 42.9672 103.633 42.9672C101.73 42.9672 100.779 42.1826 100.779 40.6135V20.3318C100.779 17.5942 101.68 15.591 103.483 14.3224C105.319 13.0537 107.105 12.4194 108.841 12.4194H113.899C114.667 12.4194 115.519 12.5697 116.453 12.8701C117.388 13.1706 118.289 13.638 119.157 14.2723C119.992 13.638 120.86 13.1706 121.761 12.8701C122.696 12.5697 123.581 12.4194 124.416 12.4194H129.423C131.193 12.4194 132.962 13.0537 134.732 14.3224C136.568 15.5576 137.486 17.5608 137.486 20.3318V40.6135C137.486 42.1826 136.551 42.9672 134.682 42.9672C132.812 42.9672 131.877 42.1826 131.877 40.6135V20.7825C131.877 20.3485 131.827 19.9144 131.727 19.4805C131.627 19.0464 131.443 18.6458 131.176 18.2786L131.226 18.3287C130.959 17.8946 130.625 17.5942 130.225 17.4273C129.824 17.2269 129.24 17.1268 128.472 17.1268H125.317C123.915 17.1268 122.997 17.5274 122.563 18.3287C122.129 19.0631 121.912 19.8811 121.912 20.7825V40.6135C121.912 42.1826 120.994 42.9672 119.157 42.9672C117.288 42.9672 116.353 42.1826 116.353 40.6135V20.7825Z" stroke="white" stroke-width="8"/>
<path d="M176.713 37.5587C177.948 37.5587 178.816 37.2082 179.317 36.5071C179.818 35.806 180.068 35.0214 180.068 34.1534V11.2175C180.068 10.3829 179.818 9.61504 179.317 8.91394C178.816 8.21285 177.948 7.8623 176.713 7.8623H164.995L164.945 40.5133C164.945 41.2478 164.661 41.832 164.093 42.2661C163.526 42.7 162.825 42.9171 161.99 42.9171C160.02 42.9171 159.035 42.1158 159.035 40.5133V5.80909C159.035 4.6072 159.336 3.80595 159.937 3.40532C160.571 3.0047 161.322 2.80438 162.19 2.80438H177.965C178.833 2.80438 179.735 2.988 180.669 3.35524C181.604 3.72249 182.506 4.18988 183.373 4.75743H183.323C184.192 5.39174 184.859 6.22639 185.326 7.26136C185.794 8.26293 186.028 9.4314 186.028 10.7668V34.554C186.028 37.2582 185.126 39.278 183.323 40.6135C182.455 41.2478 181.554 41.7485 180.619 42.1158C179.718 42.4496 178.833 42.6166 177.965 42.6166H169.552C168.984 42.6166 168.534 42.3829 168.2 41.9155C167.899 41.4481 167.749 40.8305 167.749 40.0626C167.749 38.3933 168.467 37.5587 169.902 37.5587H176.713Z" stroke="white" stroke-width="8"/>
<path d="M200.722 42.5665C199.687 42.5665 198.702 42.433 197.767 42.1659C196.833 41.8654 195.932 41.4481 195.063 40.914V40.964C193.428 39.9291 192.609 38.0261 192.609 35.2551V32.8013C192.609 31.4324 192.843 30.2473 193.31 29.2457C193.811 28.2108 194.496 27.3928 195.364 26.7919H195.314C196.148 26.2243 197.033 25.807 197.968 25.5399C198.903 25.2395 199.804 25.0892 200.672 25.0892H211.739V20.432C211.739 19.5973 211.472 18.8461 210.938 18.1784C210.437 17.4773 209.569 17.1268 208.334 17.1268H202.475C201.206 17.1268 200.321 17.4439 199.821 18.0783C199.353 18.6792 199.12 19.397 199.12 20.2316V20.6323C199.12 22.3683 198.185 23.2363 196.315 23.2363C194.446 23.2363 193.511 22.3683 193.511 20.6323V20.1816C193.511 18.8127 193.745 17.6609 194.212 16.7262C194.713 15.7914 195.381 15.0068 196.215 14.3725H196.165C197.033 13.8049 197.935 13.3375 198.869 12.9703C199.838 12.603 200.756 12.4194 201.623 12.4194H209.235C210.07 12.4194 210.955 12.603 211.89 12.9703C212.858 13.3375 213.759 13.8049 214.594 14.3725H214.544C215.412 15.0068 216.08 15.8414 216.547 16.8764C217.015 17.878 217.248 19.0464 217.248 20.3819V40.4633C217.248 42.0658 216.33 42.867 214.494 42.867C214.126 42.867 213.776 42.8503 213.442 42.8169C213.141 42.7835 212.858 42.7 212.591 42.5665C212.357 42.3996 212.157 42.1826 211.99 41.9155C211.856 41.6151 211.789 41.2311 211.789 40.7637L211.739 29.7966H201.623C200.889 29.7966 200.321 29.88 199.921 30.047C199.52 30.2139 199.203 30.481 198.969 30.8482C198.702 31.4158 198.502 31.8665 198.368 32.2003C198.268 32.5008 198.218 32.8514 198.218 33.252V35.205C198.218 36.073 198.469 36.7407 198.969 37.2082C199.504 37.6421 200.405 37.8592 201.674 37.8592H207.282C208.518 37.8592 209.135 38.6437 209.135 40.2129C209.135 40.8806 208.985 41.4481 208.685 41.9155C208.384 42.3495 207.917 42.5665 207.282 42.5665H200.722Z" stroke="white" stroke-width="8"/>
<path d="M229.234 40.4633C229.234 42.0658 228.316 42.867 226.48 42.867C224.644 42.867 223.726 42.0658 223.726 40.4633V20.3318C223.726 18.963 223.943 17.7778 224.377 16.7762C224.811 15.7747 225.495 14.9567 226.43 14.3224C228.2 13.0537 229.969 12.4194 231.738 12.4194H239.801C241.503 12.4194 243.273 13.0537 245.109 14.3224C246.912 15.591 247.813 17.5942 247.813 20.3318V40.4633C247.813 42.0658 246.895 42.867 245.059 42.867C243.223 42.867 242.305 42.0658 242.305 40.4633V20.7825C242.305 19.9144 242.038 19.0798 241.503 18.2786L241.553 18.3287C241.12 17.5274 240.235 17.1268 238.899 17.1268H232.64C231.271 17.1268 230.369 17.5274 229.935 18.3287C229.468 19.0298 229.234 19.8477 229.234 20.7825V40.4633Z" stroke="white" stroke-width="8"/>
<path d="M259.95 40.4632C259.95 42.0658 259.032 42.867 257.196 42.867C255.326 42.867 254.391 42.0658 254.391 40.4632V14.6229C254.391 13.0204 255.326 12.2191 257.196 12.2191C259.032 12.2191 259.95 13.0204 259.95 14.6229V40.4632ZM261.002 5.90926C261.002 6.97758 260.634 7.87899 259.9 8.61348C259.165 9.34793 258.264 9.7152 257.196 9.7152C256.127 9.7152 255.209 9.34793 254.442 8.61348C253.707 7.87899 253.34 6.97758 253.34 5.90926C253.34 4.80752 253.707 3.88942 254.442 3.15494C255.209 2.42046 256.127 2.05322 257.196 2.05322C258.264 2.05322 259.165 2.42046 259.9 3.15494C260.634 3.88942 261.002 4.80752 261.002 5.90926Z" stroke="white" stroke-width="8"/>
<path d="M272.417 34.554C272.417 35.3552 272.667 36.1064 273.168 36.8075C273.702 37.5086 274.587 37.8592 275.822 37.8592H282.082C283.318 37.8592 284.185 37.5587 284.686 36.9577C285.22 36.3234 285.487 35.6056 285.487 34.8044V34.2535C285.487 32.6844 286.405 31.8998 288.242 31.8998C290.078 31.8998 290.996 32.6844 290.996 34.2535V34.8545C290.996 36.2566 290.762 37.4084 290.295 38.3099C289.861 39.2113 289.193 39.9958 288.292 40.6635C286.522 41.9322 284.753 42.5665 282.984 42.5665H274.57C272.801 42.5665 271.081 41.9322 269.412 40.6635C268.611 39.9958 267.994 39.1612 267.559 38.1596C267.125 37.1247 266.908 35.9395 266.908 34.6041V20.3318C266.908 17.6275 267.743 15.6244 269.412 14.3224C270.247 13.7214 271.098 13.254 271.966 12.9202C272.868 12.5529 273.736 12.3693 274.57 12.3693H282.984C283.785 12.3693 284.669 12.5362 285.638 12.8701C286.606 13.1706 287.507 13.5879 288.342 14.1221C289.143 14.6896 289.777 15.4742 290.245 16.4757C290.746 17.4773 290.996 18.6625 290.996 20.0313V26.7919C290.996 27.5597 290.762 28.2441 290.295 28.8451C289.861 29.446 289.043 29.7465 287.841 29.7465H277.024C275.822 29.7465 275.188 28.9619 275.121 27.3928C275.121 25.8236 275.755 25.0391 277.024 25.0391H285.538L285.487 20.3818C285.487 19.5472 285.22 18.796 284.686 18.1283C284.185 17.4272 283.318 17.0767 282.082 17.0767H275.822C274.587 17.0767 273.702 17.4272 273.168 18.1283C272.667 18.796 272.417 19.5472 272.417 20.3818V34.554Z" stroke="white" stroke-width="8"/>
<path d="M303.085 40.6134C303.085 42.1825 302.167 42.9671 300.331 42.9671C298.461 42.9671 297.526 42.1825 297.526 40.6134V4.70732C297.526 3.1382 298.461 2.35364 300.331 2.35364C302.167 2.35364 303.085 3.1382 303.085 4.70732V40.6134Z" stroke="white" stroke-width="8"/>
<path d="M317.605 38.4601C317.605 39.5952 317.221 40.5634 316.453 41.3647C315.686 42.1325 314.734 42.5165 313.599 42.5165C312.464 42.5165 311.512 42.1325 310.745 41.3647C309.977 40.5634 309.593 39.5952 309.593 38.4601C309.593 37.3584 309.977 36.4236 310.745 35.6557C311.512 34.8545 312.464 34.4539 313.599 34.4539C314.734 34.4539 315.686 34.8545 316.453 35.6557C317.221 36.4236 317.605 37.3584 317.605 38.4601Z" stroke="white" stroke-width="8"/>
</g>
<defs>
<clipPath id="clip0_110_37">
<rect width="320" height="50.0782" fill="white"/>
</clipPath>
</defs>
</svg>
