<svg width="639" height="100" viewBox="0 0 639 100" fill="none" xmlns="http://www.w3.org/2000/svg">
<path d="M46.3 9.89997C46.3 6.69997 48.2667 5.09998 52.2 5.09998C56.2 5.09998 58.2 6.69997 58.2 9.89997V80.8C58.2 84 56.2 85.6 52.2 85.6C48.2667 85.6 46.3 84 46.3 80.8V9.89997ZM15.9 80.8C15.9 84 13.9 85.6 9.9 85.6C5.96667 85.6 4 84 4 80.8V9.89997C4 6.69997 5.96667 5.09998 9.9 5.09998C13.9 5.09998 15.9 6.69997 15.9 9.89997V80.8ZM39.3 43.7C39.3 46.0333 38.5 48 36.9 49.6C35.3 51.2 33.3333 52 31 52C28.7333 52 26.8 51.2 25.2 49.6C23.6 48 22.8 46.0333 22.8 43.7C22.8 41.3666 23.6 39.4 25.2 37.8C26.8 36.2 28.7333 35.4 31 35.4C33.3333 35.4 35.3 36.2 36.9 37.8C38.5 39.4 39.3 41.3666 39.3 43.7Z" stroke="#0080DC" stroke-width="8" />
<path d="M83.2477 80.8C83.2477 84 81.4143 85.6 77.7477 85.6C74.0143 85.6 72.1477 84 72.1477 80.8V29.2C72.1477 26 74.0143 24.4 77.7477 24.4C81.4143 24.4 83.2477 26 83.2477 29.2V80.8ZM85.3477 11.8C85.3477 13.9333 84.6143 15.7333 83.1477 17.2C81.681 18.6666 79.881 19.4 77.7477 19.4C75.6143 19.4 73.781 18.6666 72.2477 17.2C70.781 15.7333 70.0477 13.9333 70.0477 11.8C70.0477 9.59997 70.781 7.76664 72.2477 6.29997C73.781 4.83331 75.6143 4.09998 77.7477 4.09998C79.881 4.09998 81.681 4.83331 83.1477 6.29997C84.6143 7.76664 85.3477 9.59997 85.3477 11.8Z" stroke="#0080DC" stroke-width="8" />
<path d="M97.343 92.9C99.4763 91.7666 101.143 90.6333 102.343 89.5C103.543 88.4333 104.21 86.9666 104.343 85.1C102.076 84.7 100.176 83.7333 98.643 82.2C97.1096 80.6666 96.343 78.8666 96.343 76.8C96.343 74.6 97.1096 72.7333 98.643 71.2C100.176 69.6 102.076 68.8 104.343 68.8C106.543 68.8 108.41 69.5666 109.943 71.1C111.476 72.5666 112.31 74.4666 112.443 76.8C112.776 82.7333 111.576 87 108.843 89.6C107.576 91 106.243 92.1666 104.843 93.1C103.51 94.1 102.243 94.8 101.043 95.2C100.043 95.6 99.0763 95.8 98.143 95.8C97.943 95.8 97.6763 95.7333 97.343 95.6C97.0763 95.4666 96.843 95.3333 96.643 95.2C96.043 94.2666 96.2763 93.5 97.343 92.9Z" stroke="#0080DC" stroke-width="8"/>
<path d="M168.741 80.8C168.741 84 166.741 85.6 162.741 85.6C158.808 85.6 156.841 84 156.841 80.8V9.89997C156.841 6.69997 158.808 5.09998 162.741 5.09998C166.741 5.09998 168.741 6.69997 168.741 9.89997V80.8Z" stroke="#0080DC" stroke-width="8"/>
<path d="M193.062 14.7C192.462 17.0333 191.695 19.5666 190.762 22.3C189.828 25.0333 188.795 27.7666 187.662 30.5C186.595 33.1666 185.528 35.7 184.462 38.1H177.962C178.428 36.2333 178.895 34.2333 179.362 32.1C179.895 29.9666 180.362 27.8333 180.762 25.7C181.228 23.5 181.628 21.3666 181.962 19.3C182.362 17.2333 182.695 15.3333 182.962 13.6H192.362L193.062 14.7Z" stroke="#0080DC" stroke-width="8"/>
<path d="M232.342 41.5C232.342 40.6333 232.209 39.8 231.942 39C231.676 38.1333 231.342 37.3333 230.942 36.6C230.076 35 228.276 34.2 225.542 34.2H219.142C216.409 34.2 214.576 35 213.642 36.6C212.842 38.1333 212.442 39.7666 212.442 41.5V81.1C212.442 84.2333 210.609 85.8 206.942 85.8C203.142 85.8 201.242 84.2333 201.242 81.1V40.6C201.242 35.1333 203.042 31.1333 206.642 28.6C210.309 26.0666 213.876 24.8 217.342 24.8H227.442C228.976 24.8 230.676 25.1 232.542 25.7C234.409 26.3 236.209 27.2333 237.942 28.5C239.609 27.2333 241.342 26.3 243.142 25.7C245.009 25.1 246.776 24.8 248.442 24.8H258.442C261.976 24.8 265.509 26.0666 269.042 28.6C272.709 31.0666 274.542 35.0666 274.542 40.6V81.1C274.542 84.2333 272.676 85.8 268.942 85.8C265.209 85.8 263.342 84.2333 263.342 81.1V41.5C263.342 40.6333 263.242 39.7666 263.042 38.9C262.842 38.0333 262.476 37.2333 261.942 36.5L262.042 36.6C261.509 35.7333 260.842 35.1333 260.042 34.8C259.242 34.4 258.076 34.2 256.542 34.2H250.242C247.442 34.2 245.609 35 244.742 36.6C243.876 38.0666 243.442 39.7 243.442 41.5V81.1C243.442 84.2333 241.609 85.8 237.942 85.8C234.209 85.8 232.342 84.2333 232.342 81.1V41.5Z" stroke="#0080DC" stroke-width="8"/>
<path d="M352.874 75C355.341 75 357.074 74.3 358.074 72.9C359.074 71.5 359.574 69.9333 359.574 68.2V22.4C359.574 20.7333 359.074 19.2 358.074 17.8C357.074 16.4 355.341 15.7 352.874 15.7H329.474L329.374 80.9C329.374 82.3666 328.808 83.5333 327.674 84.4C326.541 85.2666 325.141 85.7 323.474 85.7C319.541 85.7 317.574 84.1 317.574 80.9V11.6C317.574 9.19997 318.174 7.59997 319.374 6.79997C320.641 5.99997 322.141 5.59997 323.874 5.59997H355.374C357.108 5.59997 358.908 5.96664 360.774 6.69997C362.641 7.43331 364.441 8.36664 366.174 9.49997H366.074C367.808 10.7666 369.141 12.4333 370.074 14.5C371.008 16.5 371.474 18.8333 371.474 21.5V69C371.474 74.4 369.674 78.4333 366.074 81.1C364.341 82.3666 362.541 83.3666 360.674 84.1C358.874 84.7666 357.108 85.1 355.374 85.1H338.574C337.441 85.1 336.541 84.6333 335.874 83.7C335.274 82.7666 334.974 81.5333 334.974 80C334.974 76.6666 336.408 75 339.274 75H352.874Z" stroke="#0080DC" stroke-width="8"/>
<path d="M400.817 85C398.751 85 396.784 84.7333 394.917 84.2C393.051 83.6 391.251 82.7666 389.517 81.7V81.8C386.251 79.7333 384.617 75.9333 384.617 70.4V65.5C384.617 62.7666 385.084 60.4 386.017 58.4C387.017 56.3333 388.384 54.7 390.117 53.5H390.017C391.684 52.3666 393.451 51.5333 395.317 51C397.184 50.4 398.984 50.1 400.717 50.1H422.817V40.8C422.817 39.1333 422.284 37.6333 421.217 36.3C420.217 34.9 418.484 34.2 416.017 34.2H404.317C401.784 34.2 400.017 34.8333 399.017 36.1C398.084 37.3 397.617 38.7333 397.617 40.4V41.2C397.617 44.6666 395.751 46.4 392.017 46.4C388.284 46.4 386.417 44.6666 386.417 41.2V40.3C386.417 37.5666 386.884 35.2666 387.817 33.4C388.817 31.5333 390.151 29.9666 391.817 28.7H391.717C393.451 27.5666 395.251 26.6333 397.117 25.9C399.051 25.1666 400.884 24.8 402.617 24.8H417.817C419.484 24.8 421.251 25.1666 423.117 25.9C425.051 26.6333 426.851 27.5666 428.517 28.7H428.417C430.151 29.9666 431.484 31.6333 432.417 33.7C433.351 35.7 433.817 38.0333 433.817 40.7V80.8C433.817 84 431.984 85.6 428.317 85.6C427.584 85.6 426.884 85.5666 426.217 85.5C425.617 85.4333 425.051 85.2666 424.517 85C424.051 84.6666 423.651 84.2333 423.317 83.7C423.051 83.1 422.917 82.3333 422.917 81.4L422.817 59.5H402.617C401.151 59.5 400.017 59.6666 399.217 60C398.417 60.3333 397.784 60.8666 397.317 61.6C396.784 62.7333 396.384 63.6333 396.117 64.3C395.917 64.9 395.817 65.6 395.817 66.4V70.3C395.817 72.0333 396.317 73.3666 397.317 74.3C398.384 75.1666 400.184 75.6 402.717 75.6H413.917C416.384 75.6 417.617 77.1666 417.617 80.3C417.617 81.6333 417.317 82.7666 416.717 83.7C416.117 84.5666 415.184 85 413.917 85H400.817Z" stroke="#0080DC" stroke-width="8"/>
<path d="M457.752 80.8C457.752 84 455.919 85.6 452.252 85.6C448.586 85.6 446.752 84 446.752 80.8V40.6C446.752 37.8666 447.186 35.5 448.052 33.5C448.919 31.5 450.286 29.8666 452.152 28.6C455.686 26.0666 459.219 24.8 462.752 24.8H478.852C482.252 24.8 485.786 26.0666 489.452 28.6C493.052 31.1333 494.852 35.1333 494.852 40.6V80.8C494.852 84 493.019 85.6 489.352 85.6C485.686 85.6 483.852 84 483.852 80.8V41.5C483.852 39.7666 483.319 38.1 482.252 36.5L482.352 36.6C481.486 35 479.719 34.2 477.052 34.2H464.552C461.819 34.2 460.019 35 459.152 36.6C458.219 38 457.752 39.6333 457.752 41.5V80.8Z" stroke="#0080DC" stroke-width="8"/>
<path d="M519.088 80.8C519.088 84 517.254 85.6 513.588 85.6C509.854 85.6 507.987 84 507.987 80.8V29.2C507.987 26 509.854 24.4 513.588 24.4C517.254 24.4 519.088 26 519.088 29.2V80.8ZM521.188 11.8C521.188 13.9333 520.454 15.7333 518.987 17.2C517.521 18.6666 515.721 19.4 513.588 19.4C511.454 19.4 509.621 18.6666 508.088 17.2C506.621 15.7333 505.888 13.9333 505.888 11.8C505.888 9.59997 506.621 7.76664 508.088 6.29997C509.621 4.83331 511.454 4.09998 513.588 4.09998C515.721 4.09998 517.521 4.83331 518.987 6.29997C520.454 7.76664 521.188 9.59997 521.188 11.8Z" stroke="#0080DC" stroke-width="8"/>
<path d="M543.983 69C543.983 70.6 544.483 72.1 545.483 73.5C546.549 74.9 548.316 75.6 550.783 75.6H563.283C565.75 75.6 567.483 75 568.483 73.8C569.549 72.5333 570.083 71.1 570.083 69.5V68.4C570.083 65.2666 571.916 63.7 575.583 63.7C579.249 63.7 581.083 65.2666 581.083 68.4V69.6C581.083 72.4 580.616 74.7 579.683 76.5C578.816 78.3 577.483 79.8666 575.683 81.2C572.149 83.7333 568.616 85 565.083 85H548.283C544.75 85 541.316 83.7333 537.983 81.2C536.383 79.8666 535.15 78.2 534.283 76.2C533.416 74.1333 532.983 71.7666 532.983 69.1V40.6C532.983 35.2 534.649 31.2 537.983 28.6C539.649 27.4 541.349 26.4666 543.083 25.8C544.883 25.0666 546.616 24.7 548.283 24.7H565.083C566.683 24.7 568.449 25.0333 570.383 25.7C572.316 26.3 574.116 27.1333 575.783 28.2C577.383 29.3333 578.649 30.9 579.583 32.9C580.583 34.9 581.083 37.2666 581.083 40V53.5C581.083 55.0333 580.616 56.4 579.683 57.6C578.816 58.8 577.183 59.4 574.783 59.4H553.183C550.783 59.4 549.516 57.8333 549.383 54.7C549.383 51.5666 550.649 50 553.183 50H570.183L570.083 40.7C570.083 39.0333 569.549 37.5333 568.483 36.2C567.483 34.8 565.75 34.1 563.283 34.1H550.783C548.316 34.1 546.549 34.8 545.483 36.2C544.483 37.5333 543.983 39.0333 543.983 40.7V69Z" stroke="#0080DC" stroke-width="8"/>
<path d="M605.223 81.1C605.223 84.2333 603.389 85.8 599.723 85.8C595.989 85.8 594.123 84.2333 594.123 81.1V9.39997C594.123 6.26664 595.989 4.69997 599.723 4.69997C603.389 4.69997 605.223 6.26664 605.223 9.39997V81.1Z" stroke="#0080DC" stroke-width="8"/>
<path d="M634.218 76.8C634.218 79.0666 633.451 81 631.918 82.6C630.385 84.1333 628.485 84.9 626.218 84.9C623.951 84.9 622.051 84.1333 620.518 82.6C618.985 81 618.218 79.0666 618.218 76.8C618.218 74.6 618.985 72.7333 620.518 71.2C622.051 69.6 623.951 68.8 626.218 68.8C628.485 68.8 630.385 69.6 631.918 71.2C633.451 72.7333 634.218 74.6 634.218 76.8Z" stroke="#0080DC" stroke-width="8"/>
</svg>
